<svg width="184" height="184" viewBox="0 0 184 184" fill="none" xmlns="http://www.w3.org/2000/svg">
<path d="M3.8903 94.4493C3.67949 94.6634 3.42664 94.8315 3.14767 94.9431C2.8687 95.0547 2.56965 95.1073 2.26934 95.0977C1.66989 95.0891 1.09713 94.8484 0.671539 94.4261C0.249301 94.0006 0.00857589 93.4278 0 92.8283C0 92.2142 0.24397 91.6252 0.678239 91.1909C1.11251 90.7567 1.7015 90.5127 2.31565 90.5127C2.9151 90.5213 3.48786 90.762 3.91345 91.1842C4.33774 91.6171 4.5754 92.1991 4.5754 92.8052C4.5754 93.4113 4.33774 93.9933 3.91345 94.4261L3.8903 94.4493Z" fill="#2D9CDB"/>
<path d="M83.0161 12.1045C82.5918 11.6716 82.3542 11.0897 82.3542 10.4835C82.3542 9.87742 82.5918 9.29545 83.0161 8.86259C83.4479 8.44522 84.025 8.21191 84.6255 8.21191C85.226 8.21191 85.8031 8.44522 86.2349 8.86259C86.6592 9.29545 86.8968 9.87742 86.8968 10.4835C86.8968 11.0897 86.6592 11.6716 86.2349 12.1045C85.8031 12.5219 85.226 12.7552 84.6255 12.7552C84.025 12.7552 83.4479 12.5219 83.0161 12.1045ZM74.7724 20.3251C74.3481 19.8922 74.1105 19.3102 74.1105 18.7041C74.1105 18.098 74.3481 17.516 74.7724 17.0832C75.2053 16.6589 75.7872 16.4212 76.3934 16.4212C76.9995 16.4212 77.5815 16.6589 78.0143 17.0832C78.4386 17.516 78.6763 18.098 78.6763 18.7041C78.6763 19.3102 78.4386 19.8922 78.0143 20.3251C77.5815 20.7494 76.9995 20.987 76.3934 20.987C75.7872 20.987 75.2053 20.7494 74.7724 20.3251ZM66.5518 28.5688C66.1276 28.1359 65.8899 27.554 65.8899 26.9478C65.8899 26.3417 66.1276 25.7597 66.5518 25.3269C66.9836 24.9095 67.5607 24.6762 68.1612 24.6762C68.7618 24.6762 69.3388 24.9095 69.7706 25.3269C70.1949 25.7597 70.4325 26.3417 70.4325 26.9478C70.4325 27.554 70.1949 28.1359 69.7706 28.5688C69.3388 28.9862 68.7618 29.2195 68.1612 29.2195C67.5607 29.2195 66.9836 28.9862 66.5518 28.5688ZM58.3081 36.7894C57.8838 36.3565 57.6462 35.7745 57.6462 35.1684C57.6462 34.5623 57.8838 33.9803 58.3081 33.5474C58.741 33.1232 59.3229 32.8855 59.9291 32.8855C60.5352 32.8855 61.1172 33.1232 61.55 33.5474C61.9743 33.9803 62.212 34.5623 62.212 35.1684C62.212 35.7745 61.9743 36.3565 61.55 36.7894C61.1172 37.2137 60.5352 37.4513 59.9291 37.4513C59.3229 37.4513 58.741 37.2137 58.3081 36.7894ZM50.0875 45.0331C49.6633 44.6002 49.4256 44.0183 49.4256 43.4121C49.4256 42.806 49.6633 42.224 50.0875 41.7912C50.5204 41.3669 51.1024 41.1292 51.7085 41.1292C52.3146 41.1292 52.8966 41.3669 53.3295 41.7912C53.7538 42.224 53.9914 42.806 53.9914 43.4121C53.9914 44.0183 53.7538 44.6002 53.3295 45.0331C52.8966 45.4574 52.3146 45.695 51.7085 45.695C51.1024 45.695 50.5204 45.4574 50.0875 45.0331ZM41.8438 53.2073C41.4195 52.7745 41.1819 52.1925 41.1819 51.5864C41.1819 50.9803 41.4195 50.3983 41.8438 49.9654C42.2756 49.5481 42.8527 49.3148 43.4532 49.3148C44.0537 49.3148 44.6308 49.5481 45.0626 49.9654C45.4869 50.3983 45.7245 50.9803 45.7245 51.5864C45.7245 52.1925 45.4869 52.7745 45.0626 53.2073C44.6308 53.6247 44.0537 53.858 43.4532 53.858C42.8527 53.858 42.2756 53.6247 41.8438 53.2073ZM33.6001 61.4279C33.1758 60.995 32.9382 60.4131 32.9382 59.807C32.9382 59.2008 33.1758 58.6189 33.6001 58.186C34.033 57.7617 34.6149 57.5241 35.2211 57.5241C35.8272 57.5241 36.4092 57.7617 36.842 58.186C37.2663 58.6189 37.504 59.2008 37.504 59.807C37.504 60.4131 37.2663 60.995 36.842 61.4279C36.4183 61.8616 35.8414 62.1118 35.2352 62.1248C34.6291 62.1378 34.042 61.9125 33.6001 61.4974V61.4279ZM25.4722 69.7411C25.0479 69.3082 24.8102 68.7263 24.8102 68.1201C24.8102 67.514 25.0479 66.9321 25.4722 66.4992C25.904 66.0818 26.481 65.8485 27.0815 65.8485C27.6821 65.8485 28.2591 66.0818 28.6909 66.4992C29.1152 66.9321 29.3529 67.514 29.3529 68.1201C29.3529 68.7263 29.1152 69.3082 28.6909 69.7411C28.2591 70.1585 27.6821 70.3918 27.0815 70.3918C26.481 70.3918 25.904 70.1585 25.4722 69.7411ZM17.1358 77.9617C16.7115 77.5288 16.4739 76.9468 16.4739 76.3407C16.4739 75.7346 16.7115 75.1526 17.1358 74.7198C17.5687 74.2955 18.1506 74.0578 18.7568 74.0578C19.3629 74.0578 19.9449 74.2955 20.3777 74.7198C20.802 75.1526 21.0397 75.7346 21.0397 76.3407C21.0397 76.9468 20.802 77.5288 20.3777 77.9617C19.9449 78.386 19.3629 78.6236 18.7568 78.6236C18.1506 78.6236 17.5687 78.386 17.1358 77.9617ZM8.91524 86.2054C8.49095 85.7725 8.2533 85.1906 8.2533 84.5844C8.2533 83.9783 8.49095 83.3963 8.91524 82.9635C9.34703 82.5461 9.92408 82.3128 10.5246 82.3128C11.1252 82.3128 11.7022 82.5461 12.134 82.9635C12.5583 83.3963 12.7959 83.9783 12.7959 84.5844C12.7959 85.1906 12.5583 85.7725 12.134 86.2054C11.7022 86.6228 11.1252 86.8561 10.5246 86.8561C9.92408 86.8561 9.34703 86.6228 8.91524 86.2054Z" fill="#2D9CDB"/>
<path d="M94.4787 3.86085C94.0458 4.28514 93.4639 4.5228 92.8577 4.5228C92.2516 4.5228 91.6696 4.28514 91.2368 3.86085C90.8174 3.42582 90.5848 2.84411 90.5884 2.2399C90.6029 1.79586 90.7449 1.36539 90.9973 0.999812C91.2498 0.634238 91.6021 0.349001 92.0122 0.178128C92.4223 0.00725506 92.8729 -0.0420414 93.3102 0.0361192C93.7475 0.11428 94.1532 0.316598 94.4787 0.61894C94.9065 1.05025 95.1477 1.63241 95.1502 2.2399C95.1477 2.84738 94.9065 3.42954 94.4787 3.86085Z" fill="#2D9CDB"/>
<path d="M12.8055 103.341C12.3742 103.769 11.792 104.01 11.1845 104.013C10.5704 104.013 9.98141 103.769 9.54714 103.334C9.11287 102.9 8.8689 102.311 8.8689 101.697C8.8689 101.083 9.11287 100.494 9.54714 100.06C9.98141 99.6253 10.5704 99.3813 11.1845 99.3813C11.7987 99.3813 12.3877 99.6253 12.822 100.06C13.2562 100.494 13.5002 101.083 13.5002 101.697C13.4989 102.003 13.4369 102.306 13.3176 102.589C13.1984 102.871 13.0243 103.127 12.8055 103.341Z" fill="#2D9CDB"/>
<path d="M91.9084 20.9964C91.4841 20.5635 91.2465 19.9816 91.2465 19.3754C91.2465 18.7693 91.4841 18.1873 91.9084 17.7545C92.3413 17.3302 92.9232 17.0925 93.5294 17.0925C94.1355 17.0925 94.7175 17.3302 95.1503 17.7545C95.5746 18.1873 95.8123 18.7693 95.8123 19.3754C95.8123 19.9816 95.5746 20.5635 95.1503 20.9964C94.7175 21.4207 94.1355 21.6583 93.5294 21.6583C92.9232 21.6583 92.3413 21.4207 91.9084 20.9964ZM83.6878 29.2401C83.2635 28.8073 83.0259 28.2253 83.0259 27.6192C83.0259 27.013 83.2635 26.4311 83.6878 25.9982C84.1196 25.5808 84.6967 25.3475 85.2972 25.3475C85.8978 25.3475 86.4748 25.5808 86.9066 25.9982C87.3309 26.4311 87.5685 27.013 87.5685 27.6192C87.5685 28.2253 87.3309 28.8073 86.9066 29.2401C86.4748 29.6575 85.8978 29.8908 85.2972 29.8908C84.6967 29.8908 84.1196 29.6575 83.6878 29.2401ZM75.4441 37.4607C75.0198 37.0278 74.7822 36.4459 74.7822 35.8397C74.7822 35.2336 75.0198 34.6516 75.4441 34.2188C75.877 33.7945 76.4589 33.5568 77.0651 33.5568C77.6712 33.5568 78.2532 33.7945 78.686 34.2188C79.1103 34.6516 79.348 35.2336 79.348 35.8397C79.348 36.4459 79.1103 37.0278 78.686 37.4607C78.2532 37.885 77.6712 38.1226 77.0651 38.1226C76.4589 38.1226 75.877 37.885 75.4441 37.4607ZM67.1541 45.7044C66.7298 45.2715 66.4921 44.6896 66.4921 44.0834C66.4921 43.4773 66.7298 42.8954 67.1541 42.4625C67.5859 42.0451 68.1629 41.8118 68.7635 41.8118C69.364 41.8118 69.941 42.0451 70.3728 42.4625C70.7971 42.8954 71.0348 43.4773 71.0348 44.0834C71.0348 44.6896 70.7971 45.2715 70.3728 45.7044C69.941 46.1218 69.364 46.3551 68.7635 46.3551C68.1629 46.3551 67.5859 46.1218 67.1541 45.7044ZM58.9104 53.925C58.493 53.4932 58.2597 52.9161 58.2597 52.3156C58.2597 51.7151 58.493 51.138 58.9104 50.7062C59.3421 50.2888 59.9192 50.0555 60.5197 50.0555C61.1203 50.0555 61.6973 50.2888 62.1291 50.7062C62.5534 51.1391 62.7911 51.721 62.7911 52.3272C62.7911 52.9333 62.5534 53.5153 62.1291 53.9481C61.698 54.3421 61.1339 54.5587 60.5499 54.5544C59.9659 54.5501 59.4051 54.3253 58.9798 53.925H58.9104ZM50.6666 62.1687C50.2423 61.7358 50.0047 61.1539 50.0047 60.5477C50.0047 59.9416 50.2423 59.3596 50.6666 58.9268C51.0995 58.5025 51.6815 58.2648 52.2876 58.2648C52.8937 58.2648 53.4757 58.5025 53.9085 58.9268C54.3328 59.3596 54.5705 59.9416 54.5705 60.5477C54.5705 61.1539 54.3328 61.7358 53.9085 62.1687C53.4791 62.5725 52.9118 62.7973 52.3223 62.7973C51.7328 62.7973 51.1656 62.5725 50.7361 62.1687H50.6666ZM42.4461 70.4124C42.0218 69.9796 41.7841 69.3976 41.7841 68.7915C41.7841 68.1853 42.0218 67.6034 42.4461 67.1705C42.8779 66.7531 43.4549 66.5198 44.0554 66.5198C44.656 66.5198 45.233 66.7531 45.6648 67.1705C46.0891 67.6034 46.3268 68.1853 46.3268 68.7915C46.3268 69.3976 46.0891 69.9796 45.6648 70.4124C45.2366 70.8095 44.6742 71.0302 44.0902 71.0302C43.5062 71.0302 42.9437 70.8095 42.5155 70.4124H42.4461ZM34.2718 78.6793C33.8475 78.2464 33.6099 77.6645 33.6099 77.0583C33.6099 76.4522 33.8475 75.8702 34.2718 75.4374C34.7047 75.0131 35.2866 74.7754 35.8928 74.7754C36.4989 74.7754 37.0809 75.0131 37.5137 75.4374C37.938 75.8702 38.1757 76.4522 38.1757 77.0583C38.1757 77.6645 37.938 78.2464 37.5137 78.6793C37.0809 79.1036 36.4989 79.3413 35.8928 79.3413C35.2866 79.3413 34.7047 79.1036 34.2718 78.6793ZM26.0512 86.923C25.6269 86.4902 25.3893 85.9082 25.3893 85.3021C25.3893 84.6959 25.6269 84.114 26.0512 83.6811C26.483 83.2637 27.0601 83.0304 27.6606 83.0304C28.2612 83.0304 28.8382 83.2637 29.27 83.6811C29.6943 84.114 29.9319 84.6959 29.9319 85.3021C29.9319 85.9082 29.6943 86.4902 29.27 86.923C28.8322 87.3342 28.2518 87.5593 27.6513 87.5506C27.0507 87.542 26.477 87.3004 26.0512 86.8767V86.923ZM17.8075 95.0973C17.3832 94.6644 17.1456 94.0825 17.1456 93.4763C17.1456 92.8702 17.3832 92.2882 17.8075 91.8554C18.2404 91.4311 18.8223 91.1934 19.4285 91.1934C20.0346 91.1934 20.6166 91.4311 21.0494 91.8554C21.4737 92.2882 21.7114 92.8702 21.7114 93.4763C21.7114 94.0825 21.4737 94.6644 21.0494 95.0973C20.6166 95.5216 20.0346 95.7592 19.4285 95.7592C18.8223 95.7592 18.2404 95.5216 17.8075 95.0973Z" fill="#2D9CDB"/>
<path d="M103.371 12.7762C102.939 13.1935 102.362 13.4268 101.762 13.4268C101.161 13.4268 100.584 13.1935 100.152 12.7762C99.7524 12.3245 99.5447 11.7346 99.5732 11.1321C99.5732 10.5179 99.8172 9.92891 100.251 9.49465C100.686 9.06038 101.275 8.81641 101.889 8.81641C102.493 8.83715 103.068 9.07569 103.51 9.48795C103.929 9.92298 104.162 10.5047 104.158 11.1089C104.148 11.4259 104.073 11.7375 103.938 12.0243C103.802 12.3111 103.609 12.567 103.371 12.7762Z" fill="#2D9CDB"/>
<path d="M21.4429 111.955C21.0116 112.383 20.4294 112.624 19.8219 112.627C19.5172 112.629 19.2151 112.57 18.933 112.455C18.6508 112.34 18.3942 112.17 18.1778 111.955C17.7641 111.526 17.5318 110.954 17.5294 110.358C17.5294 109.743 17.7734 109.154 18.2077 108.72C18.642 108.286 19.231 108.042 19.8451 108.042C20.1432 108.038 20.4389 108.096 20.7137 108.212C20.9886 108.327 21.2368 108.498 21.4429 108.713C21.8603 109.145 22.0936 109.722 22.0936 110.323C22.0936 110.923 21.8603 111.5 21.4429 111.932V111.955Z" fill="#2D9CDB"/>
<path d="M100.546 29.6104C100.128 29.1786 99.8951 28.6016 99.8951 28.001C99.8951 27.4005 100.128 26.8234 100.546 26.3916C100.978 25.9743 101.555 25.741 102.155 25.741C102.756 25.741 103.333 25.9743 103.765 26.3916C104.182 26.8234 104.415 27.4005 104.415 28.001C104.415 28.6016 104.182 29.1786 103.765 29.6104C103.333 30.0278 102.756 30.2611 102.155 30.2611C101.555 30.2611 100.978 30.0278 100.546 29.6104ZM92.302 37.8541C91.8777 37.4213 91.6401 36.8393 91.6401 36.2332C91.6401 35.627 91.8777 35.0451 92.302 34.6122C92.7349 34.1879 93.3168 33.9503 93.923 33.9503C94.5291 33.9503 95.1111 34.1879 95.5439 34.6122C95.9682 35.0451 96.2059 35.627 96.2059 36.2332C96.2059 36.8393 95.9682 37.4213 95.5439 37.8541C95.1111 38.2784 94.5291 38.5161 93.923 38.5161C93.3168 38.5161 92.7349 38.2784 92.302 37.8541ZM84.0583 46.0747C83.6409 45.6429 83.4076 45.0659 83.4076 44.4653C83.4076 43.8648 83.6409 43.2877 84.0583 42.8559C84.4911 42.4316 85.0731 42.194 85.6792 42.194C86.2854 42.194 86.8673 42.4316 87.3002 42.8559C87.7176 43.2877 87.9509 43.8648 87.9509 44.4653C87.9509 45.0659 87.7176 45.6429 87.3002 46.0747C86.8673 46.499 86.2854 46.7366 85.6792 46.7366C85.0731 46.7366 84.4911 46.499 84.0583 46.0747ZM75.8377 54.3184C75.4134 53.8856 75.1758 53.3036 75.1758 52.6975C75.1758 52.0913 75.4134 51.5094 75.8377 51.0765C76.2706 50.6522 76.8526 50.4146 77.4587 50.4146C78.0648 50.4146 78.6468 50.6522 79.0796 51.0765C79.5039 51.5094 79.7416 52.0913 79.7416 52.6975C79.7416 53.3036 79.5039 53.8856 79.0796 54.3184C78.6468 54.7427 78.0648 54.9804 77.4587 54.9804C76.8526 54.9804 76.2706 54.7427 75.8377 54.3184ZM67.594 62.4695C67.1697 62.0367 66.9321 61.4547 66.9321 60.8486C66.9321 60.2424 67.1697 59.6605 67.594 59.2276C68.0269 58.8033 68.6088 58.5657 69.215 58.5657C69.8211 58.5657 70.403 58.8033 70.8359 59.2276C71.2602 59.6605 71.4979 60.2424 71.4979 60.8486C71.4979 61.4547 71.2602 62.0367 70.8359 62.4695C70.403 62.8938 69.8211 63.1315 69.215 63.1315C68.6088 63.1315 68.0269 62.8938 67.594 62.4695ZM59.3503 70.6901C58.9329 70.2583 58.6996 69.6812 58.6996 69.0807C58.6996 68.4802 58.9329 67.9031 59.3503 67.4713C59.7831 67.047 60.3651 66.8094 60.9712 66.8094C61.5774 66.8094 62.1593 67.047 62.5922 67.4713C63.0096 67.9031 63.2429 68.4802 63.2429 69.0807C63.2429 69.6812 63.0096 70.2583 62.5922 70.6901C62.1716 71.127 61.5964 71.3814 60.9902 71.3987C60.384 71.416 59.7951 71.1949 59.3503 70.7827V70.6901ZM51.1297 78.9338C50.7054 78.5009 50.4678 77.919 50.4678 77.3129C50.4678 76.7067 50.7054 76.1248 51.1297 75.6919C51.5626 75.2676 52.1445 75.03 52.7507 75.03C53.3568 75.03 53.9388 75.2676 54.3716 75.6919C54.7959 76.1248 55.0336 76.7067 55.0336 77.3129C55.0336 77.919 54.7959 78.5009 54.3716 78.9338C53.951 79.3707 53.3758 79.6251 52.7696 79.6424C52.1634 79.6598 51.5746 79.4386 51.1297 79.0264V78.9338ZM42.886 87.247C42.4686 86.8152 42.2353 86.2382 42.2353 85.6376C42.2353 85.0371 42.4686 84.46 42.886 84.0283C43.3188 83.604 43.9008 83.3663 44.5069 83.3663C45.1131 83.3663 45.695 83.604 46.1279 84.0283C46.5453 84.46 46.7786 85.0371 46.7786 85.6376C46.7786 86.2382 46.5453 86.8152 46.1279 87.247C45.695 87.6713 45.1131 87.909 44.5069 87.909C43.9008 87.909 43.3188 87.6713 42.886 87.247ZM34.7349 95.4907C34.3106 95.0579 34.0729 94.4759 34.0729 93.8698C34.0729 93.2636 34.3106 92.6817 34.7349 92.2488C35.1677 91.8245 35.7497 91.5869 36.3558 91.5869C36.962 91.5869 37.5439 91.8245 37.9768 92.2488C38.4011 92.6817 38.6387 93.2636 38.6387 93.8698C38.6387 94.4759 38.4011 95.0579 37.9768 95.4907C37.5439 95.915 36.962 96.1527 36.3558 96.1527C35.7497 96.1527 35.1677 95.915 34.7349 95.4907ZM26.4912 103.711C26.0738 103.28 25.8405 102.702 25.8405 102.102C25.8405 101.501 26.0738 100.924 26.4912 100.493C26.924 100.068 27.506 99.8306 28.1121 99.8306C28.7182 99.8306 29.3002 100.068 29.7331 100.493C30.1504 100.924 30.3837 101.501 30.3837 102.102C30.3837 102.702 30.1504 103.28 29.7331 103.711C29.5174 103.932 29.2599 104.107 28.9755 104.227C28.6912 104.346 28.3859 104.408 28.0774 104.408C27.7689 104.408 27.4635 104.346 27.1792 104.227C26.8949 104.107 26.6373 103.932 26.4217 103.711H26.4912Z" fill="#2D9CDB"/>
<path d="M112.008 21.3905C111.577 21.8183 110.995 22.0594 110.387 22.062C109.782 22.0477 109.204 21.8083 108.766 21.3905C108.339 20.9592 108.097 20.377 108.095 19.7695C108.095 19.1554 108.339 18.5664 108.773 18.1321C109.207 17.6978 109.796 17.4539 110.411 17.4539C111.018 17.4564 111.6 17.6976 112.031 18.1254C112.456 18.5583 112.693 19.1402 112.693 19.7464C112.693 20.3525 112.456 20.9344 112.031 21.3673L112.008 21.3905Z" fill="#2D9CDB"/>
<path d="M30.335 120.871C29.9021 121.295 29.3202 121.532 28.714 121.532C28.1079 121.532 27.5259 121.295 27.0931 120.871C26.6653 120.439 26.4241 119.857 26.4215 119.25C26.4125 118.864 26.4997 118.483 26.6754 118.14C26.851 117.797 27.1095 117.503 27.4275 117.285C27.7454 117.067 28.1127 116.932 28.496 116.892C28.8793 116.852 29.2666 116.908 29.6227 117.056C29.9788 117.203 30.2924 117.437 30.5352 117.737C30.7779 118.036 30.9421 118.391 31.0129 118.77C31.0836 119.149 31.0587 119.539 30.9403 119.906C30.8219 120.273 30.6139 120.604 30.335 120.871Z" fill="#2D9CDB"/>
<path d="M109.438 38.5262C109.013 38.0933 108.776 37.5113 108.776 36.9052C108.776 36.2991 109.013 35.7171 109.438 35.2843C109.871 34.86 110.453 34.6223 111.059 34.6223C111.665 34.6223 112.247 34.86 112.68 35.2843C113.104 35.7171 113.342 36.2991 113.342 36.9052C113.342 37.5113 113.104 38.0933 112.68 38.5262C112.247 38.9505 111.665 39.1881 111.059 39.1881C110.453 39.1881 109.871 38.9505 109.438 38.5262ZM101.217 46.7467C100.8 46.3149 100.566 45.7379 100.566 45.1374C100.566 44.5368 100.8 43.9598 101.217 43.528C101.649 43.1106 102.226 42.8773 102.827 42.8773C103.427 42.8773 104.004 43.1106 104.436 43.528C104.853 43.9598 105.087 44.5368 105.087 45.1374C105.087 45.7379 104.853 46.3149 104.436 46.7467C104.004 47.1641 103.427 47.3974 102.827 47.3974C102.226 47.3974 101.649 47.1641 101.217 46.7467ZM92.9734 54.9905C92.5491 54.5576 92.3115 53.9756 92.3115 53.3695C92.3115 52.7634 92.5491 52.1814 92.9734 51.7486C93.4063 51.3243 93.9882 51.0866 94.5944 51.0866C95.2005 51.0866 95.7825 51.3243 96.2153 51.7486C96.6396 52.1814 96.8773 52.7634 96.8773 53.3695C96.8773 53.9756 96.6396 54.5576 96.2153 54.9905C95.7825 55.4148 95.2005 55.6524 94.5944 55.6524C93.9882 55.6524 93.4063 55.4148 92.9734 54.9905ZM84.7297 63.211C84.3123 62.7792 84.079 62.2022 84.079 61.6017C84.079 61.0011 84.3123 60.4241 84.7297 59.9923C85.1625 59.568 85.7445 59.3303 86.3506 59.3303C86.9568 59.3303 87.5387 59.568 87.9716 59.9923C88.389 60.4241 88.6223 61.0011 88.6223 61.6017C88.6223 62.2022 88.389 62.7792 87.9716 63.211C87.5387 63.6353 86.9568 63.873 86.3506 63.873C85.7445 63.873 85.1625 63.6353 84.7297 63.211ZM76.4165 71.4548C75.9991 71.023 75.7658 70.4459 75.7658 69.8454C75.7658 69.2448 75.9991 68.6678 76.4165 68.236C76.8494 67.8117 77.4313 67.5741 78.0374 67.5741C78.6436 67.5741 79.2255 67.8117 79.6584 68.236C80.0827 68.6689 80.3203 69.2508 80.3203 69.857C80.3203 70.4631 80.0827 71.0451 79.6584 71.4779C79.2225 71.8991 78.6389 72.1326 78.0327 72.1283C77.4266 72.124 76.8463 71.8822 76.4165 71.4548ZM68.1728 79.6985C67.7485 79.2656 67.5108 78.6837 67.5108 78.0775C67.5108 77.4714 67.7485 76.8894 68.1728 76.4566C68.6056 76.0323 69.1876 75.7946 69.7937 75.7946C70.3999 75.7946 70.9818 76.0323 71.4147 76.4566C71.839 76.8894 72.0766 77.4714 72.0766 78.0775C72.0766 78.6837 71.839 79.2656 71.4147 79.6985C70.9865 80.0956 70.424 80.3163 69.84 80.3163C69.256 80.3163 68.6936 80.0956 68.2654 79.6985H68.1728ZM60.0217 87.9422C59.6043 87.5104 59.371 86.9334 59.371 86.3328C59.371 85.7323 59.6043 85.1552 60.0217 84.7234C60.4545 84.2992 61.0365 84.0615 61.6426 84.0615C62.2488 84.0615 62.8307 84.2992 63.2636 84.7234C63.681 85.1552 63.9143 85.7323 63.9143 86.3328C63.9143 86.9334 63.681 87.5104 63.2636 87.9422C62.8307 88.3665 62.2488 88.6042 61.6426 88.6042C61.0365 88.6042 60.4545 88.3665 60.0217 87.9422ZM51.8011 96.1859C51.3768 95.7531 51.1392 95.1711 51.1392 94.565C51.1392 93.9588 51.3768 93.3769 51.8011 92.944C52.234 92.5197 52.8159 92.2821 53.4221 92.2821C54.0282 92.2821 54.6102 92.5197 55.043 92.944C55.4673 93.3769 55.705 93.9588 55.705 94.565C55.705 95.1711 55.4673 95.7531 55.043 96.1859C54.6071 96.6071 54.0235 96.8406 53.4173 96.8363C52.8112 96.832 52.2309 96.5902 51.8011 96.1628V96.1859ZM43.5574 104.383C43.14 103.952 42.9067 103.374 42.9067 102.774C42.9067 102.173 43.14 101.596 43.5574 101.165C43.9902 100.74 44.5722 100.503 45.1783 100.503C45.7845 100.503 46.3664 100.74 46.7993 101.165C47.2167 101.596 47.45 102.173 47.45 102.774C47.45 103.374 47.2167 103.952 46.7993 104.383C46.3664 104.808 45.7845 105.045 45.1783 105.045C44.5722 105.045 43.9902 104.808 43.5574 104.383ZM35.3368 112.627C34.9125 112.194 34.6749 111.612 34.6749 111.006C34.6749 110.4 34.9125 109.818 35.3368 109.385C35.7697 108.961 36.3516 108.723 36.9578 108.723C37.5639 108.723 38.1459 108.961 38.5787 109.385C39.003 109.818 39.2407 110.4 39.2407 111.006C39.2407 111.612 39.003 112.194 38.5787 112.627C38.1459 113.051 37.5639 113.289 36.9578 113.289C36.3516 113.289 35.7697 113.051 35.3368 112.627Z" fill="#2D9CDB"/>
<path d="M120.9 30.2823C120.475 30.7046 119.902 30.9453 119.303 30.9539C118.695 30.9513 118.113 30.7101 117.682 30.2823C117.254 29.851 117.013 29.2688 117.01 28.6614C117.01 28.0472 117.254 27.4582 117.688 27.0239C118.123 26.5897 118.712 26.3457 119.326 26.3457C119.937 26.3609 120.522 26.5998 120.97 27.0172C121.389 27.4523 121.622 28.034 121.618 28.6382C121.614 28.9462 121.548 29.2503 121.425 29.5326C121.302 29.8149 121.123 30.0698 120.9 30.2823Z" fill="#2D9CDB"/>
<path d="M38.4169 128.953C37.9856 129.381 37.4034 129.622 36.7959 129.624C36.1851 129.616 35.6025 129.366 35.175 128.93C34.7472 128.498 34.506 127.916 34.5034 127.309C34.4944 126.923 34.5816 126.542 34.7573 126.199C34.9329 125.856 35.1914 125.562 35.5094 125.344C35.8273 125.126 36.1946 124.991 36.5779 124.951C36.9612 124.911 37.3485 124.967 37.7046 125.115C38.0607 125.262 38.3743 125.496 38.6171 125.796C38.8598 126.095 39.024 126.45 39.0948 126.829C39.1655 127.208 39.1406 127.599 39.0222 127.965C38.9038 128.332 38.6958 128.664 38.4169 128.93V128.953Z" fill="#2D9CDB"/>
<path d="M117.519 46.6075C117.095 46.1746 116.858 45.5926 116.858 44.9865C116.858 44.3804 117.095 43.7984 117.519 43.3656C117.952 42.9413 118.534 42.7036 119.14 42.7036C119.747 42.7036 120.329 42.9413 120.761 43.3656C121.186 43.7984 121.423 44.3804 121.423 44.9865C121.423 45.5926 121.186 46.1746 120.761 46.6075C120.329 47.0318 119.747 47.2694 119.14 47.2694C118.534 47.2694 117.952 47.0318 117.519 46.6075ZM109.276 54.828C108.858 54.3962 108.625 53.8192 108.625 53.2187C108.625 52.6181 108.858 52.0411 109.276 51.6093C109.709 51.185 110.291 50.9473 110.897 50.9473C111.503 50.9473 112.085 51.185 112.518 51.6093C112.935 52.0411 113.168 52.6181 113.168 53.2187C113.168 53.8192 112.935 54.3962 112.518 54.828C112.085 55.2523 111.503 55.49 110.897 55.49C110.291 55.49 109.709 55.2523 109.276 54.828ZM101.055 63.0718C100.631 62.6389 100.393 62.0569 100.393 61.4508C100.393 60.8447 100.631 60.2627 101.055 59.8298C101.488 59.4056 102.07 59.1679 102.676 59.1679C103.282 59.1679 103.864 59.4056 104.297 59.8298C104.721 60.2627 104.959 60.8447 104.959 61.4508C104.959 62.0569 104.721 62.6389 104.297 63.0718C103.864 63.4961 103.282 63.7337 102.676 63.7337C102.07 63.7337 101.488 63.4961 101.055 63.0718ZM92.8114 71.2923C92.3941 70.8605 92.1608 70.2835 92.1608 69.6829C92.1608 69.0824 92.3941 68.5054 92.8114 68.0736C93.2443 67.6493 93.8263 67.4116 94.4324 67.4116C95.0385 67.4116 95.6205 67.6493 96.0533 68.0736C96.4707 68.5054 96.704 69.0824 96.704 69.6829C96.704 70.2835 96.4707 70.8605 96.0533 71.2923C95.6205 71.7166 95.0385 71.9543 94.4324 71.9543C93.8263 71.9543 93.2443 71.7166 92.8114 71.2923ZM84.5677 79.536C84.1434 79.1032 83.9058 78.5212 83.9058 77.9151C83.9058 77.309 84.1434 76.727 84.5677 76.2941C84.9995 75.8768 85.5766 75.6435 86.1771 75.6435C86.7776 75.6435 87.3547 75.8768 87.7865 76.2941C88.2038 76.7259 88.4371 77.303 88.4371 77.9035C88.4371 78.5041 88.2038 79.0811 87.7865 79.5129C87.3577 79.9334 86.7823 80.1708 86.1818 80.1752C85.5812 80.1795 85.0025 79.9503 84.5677 79.536ZM76.4166 87.7798C75.9923 87.3469 75.7547 86.7649 75.7547 86.1588C75.7547 85.5527 75.9923 84.9707 76.4166 84.5379C76.8495 84.1136 77.4314 83.8759 78.0376 83.8759C78.6437 83.8759 79.2257 84.1136 79.6585 84.5379C80.0828 84.9707 80.3205 85.5527 80.3205 86.1588C80.3205 86.7649 80.0828 87.3469 79.6585 87.7798C79.2257 88.2041 78.6437 88.4417 78.0376 88.4417C77.4314 88.4417 76.8495 88.2041 76.4166 87.7798ZM68.1729 96.0003C67.7555 95.5685 67.5222 94.9915 67.5222 94.391C67.5222 93.7904 67.7555 93.2134 68.1729 92.7816C68.6058 92.3573 69.1877 92.1196 69.7938 92.1196C70.4 92.1196 70.9819 92.3573 71.4148 92.7816C71.8322 93.2134 72.0655 93.7904 72.0655 94.391C72.0655 94.9915 71.8322 95.5685 71.4148 96.0003C71.1991 96.2209 70.9416 96.3961 70.6573 96.5158C70.3729 96.6354 70.0676 96.6971 69.7591 96.6971C69.4506 96.6971 69.1453 96.6354 68.861 96.5158C68.5766 96.3961 68.3191 96.2209 68.1034 96.0003H68.1729ZM59.8829 104.151C59.4586 103.719 59.2209 103.137 59.2209 102.53C59.2209 101.924 59.4586 101.342 59.8829 100.91C60.3157 100.485 60.8977 100.248 61.5038 100.248C62.1099 100.248 62.6919 100.485 63.1248 100.91C63.5491 101.342 63.7867 101.924 63.7867 102.53C63.7867 103.137 63.5491 103.719 63.1248 104.151C62.6919 104.576 62.1099 104.813 61.5038 104.813C60.8977 104.813 60.3157 104.576 59.8829 104.151ZM51.6391 112.465C51.2218 112.033 50.9885 111.456 50.9885 110.855C50.9885 110.255 51.2218 109.678 51.6391 109.246C52.072 108.822 52.654 108.584 53.2601 108.584C53.8662 108.584 54.4482 108.822 54.881 109.246C55.2984 109.678 55.5317 110.255 55.5317 110.855C55.5317 111.456 55.2984 112.033 54.881 112.465C54.4482 112.889 53.8662 113.127 53.2601 113.127C52.654 113.127 52.072 112.889 51.6391 112.465ZM43.4186 120.708C43.0012 120.277 42.7679 119.7 42.7679 119.099C42.7679 118.498 43.0012 117.921 43.4186 117.49C43.8514 117.065 44.4334 116.828 45.0395 116.828C45.6456 116.828 46.2276 117.065 46.6605 117.49C47.0848 117.922 47.3224 118.504 47.3224 119.111C47.3224 119.717 47.0848 120.299 46.6605 120.732C46.2246 121.153 45.6409 121.386 45.0348 121.382C44.4287 121.378 43.8484 121.136 43.4186 120.708Z" fill="#2D9CDB"/>
<path d="M128.982 38.3636C128.556 38.7858 127.984 39.0265 127.384 39.0351C126.77 39.0351 126.181 38.7911 125.747 38.3569C125.312 37.9226 125.068 37.3336 125.068 36.7195C125.068 36.1053 125.312 35.5163 125.747 35.082C126.181 34.6478 126.77 34.4038 127.384 34.4038C127.984 34.4124 128.556 34.6531 128.982 35.0753C129.399 35.5071 129.633 36.0842 129.633 36.6847C129.633 37.2853 129.399 37.8623 128.982 38.2941V38.3636Z" fill="#2D9CDB"/>
<path d="M47.3089 137.845C46.8776 138.272 46.2954 138.514 45.688 138.516C45.0805 138.514 44.4983 138.272 44.067 137.845C43.6477 137.41 43.415 136.828 43.4186 136.224C43.4186 135.609 43.6626 135.02 44.0969 134.586C44.5311 134.152 45.1201 133.908 45.7343 133.908C46.3393 133.922 46.9173 134.162 47.3552 134.58C47.783 135.011 48.0242 135.593 48.0268 136.2C48.0225 136.508 47.9568 136.813 47.8335 137.095C47.7103 137.377 47.5319 137.632 47.3089 137.845Z" fill="#2D9CDB"/>
<path d="M126.411 55.523C125.994 55.0912 125.761 54.5142 125.761 53.9137C125.761 53.3131 125.994 52.7361 126.411 52.3043C126.844 51.88 127.426 51.6423 128.032 51.6423C128.638 51.6423 129.22 51.88 129.653 52.3043C130.074 52.7331 130.311 53.3084 130.316 53.909C130.32 54.5095 130.091 55.0883 129.676 55.523C129.243 55.9543 128.656 56.1964 128.044 56.1964C127.432 56.1964 126.845 55.9543 126.411 55.523ZM118.098 63.7436C117.674 63.3107 117.436 62.7288 117.436 62.1226C117.436 61.5165 117.674 60.9346 118.098 60.5017C118.531 60.0774 119.113 59.8397 119.719 59.8397C120.325 59.8397 120.907 60.0774 121.34 60.5017C121.764 60.9346 122.002 61.5165 122.002 62.1226C122.002 62.7288 121.764 63.3107 121.34 63.7436C120.907 64.1679 120.325 64.4056 119.719 64.4056C119.113 64.4056 118.531 64.1679 118.098 63.7436ZM109.947 71.9642C109.53 71.5324 109.296 70.9553 109.296 70.3548C109.296 69.7543 109.53 69.1772 109.947 68.7454C110.38 68.3211 110.962 68.0835 111.568 68.0835C112.174 68.0835 112.756 68.3211 113.189 68.7454C113.606 69.1772 113.84 69.7543 113.84 70.3548C113.84 70.9553 113.606 71.5324 113.189 71.9642C112.756 72.3885 112.174 72.6261 111.568 72.6261C110.962 72.6261 110.38 72.3885 109.947 71.9642ZM101.727 80.2079C101.302 79.775 101.065 79.1931 101.065 78.5869C101.065 77.9808 101.302 77.3988 101.727 76.966C102.159 76.5417 102.741 76.304 103.347 76.304C103.954 76.304 104.536 76.5417 104.968 76.966C105.393 77.3988 105.63 77.9808 105.63 78.5869C105.63 79.1931 105.393 79.775 104.968 80.2079C104.536 80.6322 103.954 80.8698 103.347 80.8698C102.741 80.8698 102.159 80.6322 101.727 80.2079ZM93.4828 88.4516C93.0585 88.0188 92.8209 87.4368 92.8209 86.8307C92.8209 86.2245 93.0585 85.6426 93.4828 85.2097C93.9157 84.7854 94.4976 84.5478 95.1038 84.5478C95.7099 84.5478 96.2919 84.7854 96.7247 85.2097C97.149 85.6426 97.3867 86.2245 97.3867 86.8307C97.3867 87.4368 97.149 88.0188 96.7247 88.4516C96.2919 88.8759 95.7099 89.1136 95.1038 89.1136C94.4976 89.1136 93.9157 88.8759 93.4828 88.4516ZM85.2391 96.6722C84.8217 96.2404 84.5884 95.6633 84.5884 95.0628C84.5884 94.4623 84.8217 93.8852 85.2391 93.4534C85.6719 93.0291 86.2539 92.7915 86.86 92.7915C87.4662 92.7915 88.0481 93.0291 88.481 93.4534C88.8984 93.8852 89.1317 94.4623 89.1317 95.0628C89.1317 95.6633 88.8984 96.2404 88.481 96.6722C88.0481 97.0965 87.4662 97.3341 86.86 97.3341C86.2539 97.3341 85.6719 97.0965 85.2391 96.6722ZM77.0185 104.916C76.5942 104.483 76.3566 103.901 76.3566 103.295C76.3566 102.689 76.5942 102.107 77.0185 101.674C77.4514 101.25 78.0333 101.012 78.6395 101.012C79.2456 101.012 79.8276 101.25 80.2604 101.674C80.6847 102.107 80.9224 102.689 80.9224 103.295C80.9224 103.901 80.6847 104.483 80.2604 104.916C79.8276 105.34 79.2456 105.578 78.6395 105.578C78.0333 105.578 77.4514 105.34 77.0185 104.916ZM68.7748 113.136C68.3574 112.705 68.1241 112.128 68.1241 111.527C68.1241 110.927 68.3574 110.35 68.7748 109.918C69.2077 109.493 69.7896 109.256 70.3957 109.256C71.0019 109.256 71.5838 109.493 72.0167 109.918C72.4341 110.35 72.6674 110.927 72.6674 111.527C72.6674 112.128 72.4341 112.705 72.0167 113.136C71.5838 113.561 71.0019 113.798 70.3957 113.798C69.7896 113.798 69.2077 113.561 68.7748 113.136ZM60.5542 121.38C60.1299 120.947 59.8923 120.365 59.8923 119.759C59.8923 119.153 60.1299 118.571 60.5542 118.138C60.986 117.721 61.5631 117.488 62.1636 117.488C62.7641 117.488 63.3412 117.721 63.773 118.138C64.1973 118.571 64.4349 119.153 64.4349 119.759C64.4349 120.365 64.1973 120.947 63.773 121.38C63.3412 121.798 62.7641 122.031 62.1636 122.031C61.5631 122.031 60.986 121.798 60.5542 121.38ZM52.3105 129.624C51.8931 129.192 51.6598 128.615 51.6598 128.015C51.6598 127.414 51.8931 126.837 52.3105 126.405C52.7434 125.981 53.3253 125.743 53.9315 125.743C54.5376 125.743 55.1195 125.981 55.5524 126.405C55.9729 126.834 56.2104 127.409 56.2147 128.01C56.219 128.61 55.9898 129.189 55.5756 129.624C55.1417 130.055 54.5548 130.297 53.943 130.297C53.3313 130.297 52.7444 130.055 52.3105 129.624Z" fill="#2D9CDB"/>
<path d="M137.897 47.2795C137.462 47.6988 136.88 47.9315 136.276 47.9279C135.662 47.9279 135.073 47.6839 134.639 47.2496C134.204 46.8153 133.96 46.2264 133.96 45.6122C133.971 45.1636 134.112 44.7278 134.365 44.3576C134.619 43.9875 134.975 43.699 135.389 43.5273C135.804 43.3556 136.259 43.3081 136.701 43.3904C137.142 43.4728 137.549 43.6815 137.874 43.9912C138.302 44.4226 138.543 45.0047 138.545 45.6122C138.553 45.9192 138.5 46.2247 138.389 46.511C138.277 46.7972 138.11 47.0585 137.897 47.2795Z" fill="#2D9CDB"/>
<path d="M55.9462 146.482C55.5134 146.906 54.9314 147.144 54.3253 147.144C53.7191 147.144 53.1372 146.906 52.7043 146.482C52.4389 146.283 52.2193 146.029 52.0605 145.738C51.9017 145.446 51.8074 145.124 51.7839 144.793C51.7604 144.462 51.8082 144.13 51.9242 143.819C52.0402 143.509 52.2217 143.226 52.4563 142.992C52.6909 142.757 52.9731 142.576 53.284 142.46C53.5948 142.344 53.9269 142.296 54.2579 142.319C54.5888 142.343 54.9108 142.437 55.2021 142.596C55.4934 142.755 55.7472 142.974 55.9462 143.24C56.374 143.671 56.6152 144.253 56.6178 144.861C56.597 145.464 56.3585 146.04 55.9462 146.482Z" fill="#2D9CDB"/>
<path d="M135.049 64.1373C134.625 63.7044 134.387 63.1224 134.387 62.5163C134.387 61.9102 134.625 61.3282 135.049 60.8953C135.482 60.4711 136.064 60.2334 136.67 60.2334C137.276 60.2334 137.858 60.4711 138.291 60.8953C138.715 61.3282 138.953 61.9102 138.953 62.5163C138.953 63.1224 138.715 63.7044 138.291 64.1373C137.858 64.5615 137.276 64.7992 136.67 64.7992C136.064 64.7992 135.482 64.5615 135.049 64.1373ZM126.828 72.3578C126.411 71.926 126.178 71.349 126.178 70.7484C126.178 70.1479 126.411 69.5709 126.828 69.1391C127.26 68.7217 127.837 68.4884 128.438 68.4884C129.038 68.4884 129.615 68.7217 130.047 69.1391C130.465 69.5709 130.698 70.1479 130.698 70.7484C130.698 71.349 130.465 71.926 130.047 72.3578C129.615 72.7752 129.038 73.0085 128.438 73.0085C127.837 73.0085 127.26 72.7752 126.828 72.3578ZM118.585 80.6016C118.16 80.1687 117.923 79.5867 117.923 78.9806C117.923 78.3745 118.16 77.7925 118.585 77.3596C119.018 76.9353 119.6 76.6977 120.206 76.6977C120.812 76.6977 121.394 76.9353 121.827 77.3596C122.251 77.7925 122.489 78.3745 122.489 78.9806C122.489 79.5867 122.251 80.1687 121.827 80.6016C121.394 81.0258 120.812 81.2635 120.206 81.2635C119.6 81.2635 119.018 81.0258 118.585 80.6016ZM110.341 88.8221C109.924 88.3903 109.69 87.8133 109.69 87.2127C109.69 86.6122 109.924 86.0352 110.341 85.6034C110.774 85.1791 111.356 84.9414 111.962 84.9414C112.568 84.9414 113.15 85.1791 113.583 85.6034C114 86.0352 114.234 86.6122 114.234 87.2127C114.234 87.8133 114 88.3903 113.583 88.8221C113.15 89.2464 112.568 89.4841 111.962 89.4841C111.356 89.4841 110.774 89.2464 110.341 88.8221ZM102.12 97.0658C101.703 96.634 101.47 96.057 101.47 95.4565C101.47 94.8559 101.703 94.2789 102.12 93.8471C102.552 93.4297 103.129 93.1964 103.73 93.1964C104.33 93.1964 104.907 93.4297 105.339 93.8471C105.757 94.2789 105.99 94.8559 105.99 95.4565C105.99 96.057 105.757 96.634 105.339 97.0658C104.907 97.4832 104.33 97.7165 103.73 97.7165C103.129 97.7165 102.552 97.4832 102.12 97.0658ZM93.8768 105.31C93.4525 104.877 93.2148 104.295 93.2148 103.689C93.2148 103.082 93.4525 102.501 93.8768 102.068C94.3096 101.643 94.8916 101.406 95.4977 101.406C96.1038 101.406 96.6858 101.643 97.1187 102.068C97.543 102.501 97.7806 103.082 97.7806 103.689C97.7806 104.295 97.543 104.877 97.1187 105.31C96.6858 105.734 96.1038 105.972 95.4977 105.972C94.8916 105.972 94.3096 105.734 93.8768 105.31ZM85.6793 113.53C85.262 113.098 85.0287 112.521 85.0287 111.921C85.0287 111.32 85.262 110.743 85.6793 110.311C86.1111 109.894 86.6882 109.661 87.2887 109.661C87.8893 109.661 88.4663 109.894 88.8981 110.311C89.3155 110.743 89.5488 111.32 89.5488 111.921C89.5488 112.521 89.3155 113.098 88.8981 113.53C88.4663 113.948 87.8893 114.181 87.2887 114.181C86.6882 114.181 86.1111 113.948 85.6793 113.53ZM77.4356 121.774C77.0113 121.341 76.7737 120.759 76.7737 120.153C76.7737 119.547 77.0113 118.965 77.4356 118.532C77.8685 118.108 78.4505 117.87 79.0566 117.87C79.6627 117.87 80.2447 118.108 80.6775 118.532C81.1018 118.965 81.3395 119.547 81.3395 120.153C81.3395 120.759 81.1018 121.341 80.6775 121.774C80.2437 122.205 79.6568 122.447 79.045 122.447C78.4332 122.447 77.8463 122.205 77.4125 121.774H77.4356ZM69.1919 129.994C68.7745 129.563 68.5412 128.986 68.5412 128.385C68.5412 127.785 68.7745 127.207 69.1919 126.776C69.6248 126.351 70.2067 126.114 70.8129 126.114C71.419 126.114 72.001 126.351 72.4338 126.776C72.8512 127.207 73.0845 127.785 73.0845 128.385C73.0845 128.986 72.8512 129.563 72.4338 129.994C71.9999 130.426 71.413 130.668 70.8013 130.668C70.1895 130.668 69.6026 130.426 69.1687 129.994H69.1919ZM60.9713 138.238C60.547 137.805 60.3094 137.223 60.3094 136.617C60.3094 136.011 60.547 135.429 60.9713 134.996C61.4042 134.572 61.9862 134.334 62.5923 134.334C63.1984 134.334 63.7804 134.572 64.2132 134.996C64.6375 135.429 64.8752 136.011 64.8752 136.617C64.8752 137.223 64.6375 137.805 64.2132 138.238C63.7794 138.669 63.1925 138.912 62.5807 138.912C61.9689 138.912 61.382 138.669 60.9482 138.238H60.9713Z" fill="#2D9CDB"/>
<path d="M146.511 55.8934C146.08 56.3212 145.498 56.5623 144.89 56.5649C144.276 56.5649 143.687 56.3209 143.253 55.8867C142.819 55.4524 142.575 54.8634 142.575 54.2492C142.575 53.6351 142.819 53.0461 143.253 52.6118C143.687 52.1776 144.276 51.9336 144.89 51.9336C145.501 51.9423 146.084 52.192 146.511 52.6283C146.727 52.8344 146.897 53.0826 147.013 53.3575C147.128 53.6323 147.186 53.928 147.183 54.2261C147.188 54.5347 147.131 54.8412 147.015 55.1275C146.9 55.4139 146.729 55.6742 146.511 55.8934Z" fill="#2D9CDB"/>
<path d="M64.8383 155.374C64.4065 155.791 63.8294 156.024 63.2289 156.024C62.6284 156.024 62.0513 155.791 61.6195 155.374C61.1917 154.942 60.9505 154.36 60.948 153.753C60.9353 153.365 61.0201 152.981 61.1946 152.635C61.369 152.289 61.6276 151.992 61.9466 151.772C62.2655 151.551 62.6347 151.415 63.0202 151.374C63.4057 151.333 63.7952 151.39 64.153 151.539C64.5109 151.689 64.8255 151.925 65.0682 152.227C65.3108 152.53 65.4737 152.888 65.5419 153.27C65.6101 153.651 65.5814 154.044 65.4585 154.411C65.3356 154.779 65.1223 155.11 64.8383 155.374Z" fill="#2D9CDB"/>
<path d="M143.941 73.0291C143.517 72.5962 143.279 72.0143 143.279 71.4081C143.279 70.802 143.517 70.2201 143.941 69.7872C144.374 69.3629 144.956 69.1252 145.562 69.1252C146.168 69.1252 146.75 69.3629 147.183 69.7872C147.607 70.2201 147.845 70.802 147.845 71.4081C147.845 72.0143 147.607 72.5962 147.183 73.0291C146.75 73.4534 146.168 73.691 145.562 73.691C144.956 73.691 144.374 73.4534 143.941 73.0291ZM135.72 81.2728C135.296 80.84 135.059 80.258 135.059 79.6519C135.059 79.0457 135.296 78.4638 135.72 78.0309C136.152 77.6135 136.729 77.3802 137.33 77.3802C137.93 77.3802 138.507 77.6135 138.939 78.0309C139.364 78.4638 139.601 79.0457 139.601 79.6519C139.601 80.258 139.364 80.84 138.939 81.2728C138.507 81.6902 137.93 81.9235 137.33 81.9235C136.729 81.9235 136.152 81.6902 135.72 81.2728ZM127.477 89.4934C127.052 89.0605 126.815 88.4786 126.815 87.8724C126.815 87.2663 127.052 86.6843 127.477 86.2515C127.91 85.8272 128.492 85.5895 129.098 85.5895C129.704 85.5895 130.286 85.8272 130.719 86.2515C131.143 86.6843 131.381 87.2663 131.381 87.8724C131.381 88.4786 131.143 89.0605 130.719 89.4934C130.286 89.9177 129.704 90.1553 129.098 90.1553C128.492 90.1553 127.91 89.9177 127.477 89.4934ZM119.256 97.7371C118.832 97.3043 118.594 96.7223 118.594 96.1162C118.594 95.51 118.832 94.9281 119.256 94.4952C119.688 94.0778 120.265 93.8445 120.866 93.8445C121.466 93.8445 122.043 94.0778 122.475 94.4952C122.899 94.9281 123.137 95.51 123.137 96.1162C123.137 96.7223 122.899 97.3043 122.475 97.7371C122.043 98.1545 121.466 98.3878 120.866 98.3878C120.265 98.3878 119.688 98.1545 119.256 97.7371ZM111.012 105.981C110.588 105.548 110.35 104.966 110.35 104.36C110.35 103.754 110.588 103.172 111.012 102.739C111.444 102.322 112.021 102.088 112.622 102.088C113.222 102.088 113.799 102.322 114.231 102.739C114.655 103.172 114.893 103.754 114.893 104.36C114.893 104.966 114.655 105.548 114.231 105.981C113.799 106.398 113.222 106.632 112.622 106.632C112.021 106.632 111.444 106.398 111.012 105.981ZM102.769 114.201C102.344 113.769 102.107 113.187 102.107 112.58C102.107 111.974 102.344 111.392 102.769 110.959C103.202 110.535 103.784 110.298 104.39 110.298C104.996 110.298 105.578 110.535 106.011 110.959C106.435 111.392 106.673 111.974 106.673 112.58C106.673 113.187 106.435 113.769 106.011 114.201C105.578 114.626 104.996 114.863 104.39 114.863C103.784 114.863 103.202 114.626 102.769 114.201ZM94.5482 122.445C94.1239 122.012 93.8862 121.43 93.8862 120.824C93.8862 120.218 94.1239 119.636 94.5482 119.203C94.9799 118.786 95.557 118.553 96.1575 118.553C96.7581 118.553 97.3351 118.786 97.7669 119.203C98.1912 119.636 98.4288 120.218 98.4288 120.824C98.4288 121.43 98.1912 122.012 97.7669 122.445C97.3351 122.863 96.7581 123.096 96.1575 123.096C95.557 123.096 94.9799 122.863 94.5482 122.445ZM86.3044 130.666C85.8801 130.233 85.6425 129.651 85.6425 129.045C85.6425 128.439 85.8801 127.857 86.3044 127.424C86.7373 126.999 87.3193 126.762 87.9254 126.762C88.5315 126.762 89.1135 126.999 89.5463 127.424C89.9706 127.857 90.2083 128.439 90.2083 129.045C90.2083 129.651 89.9706 130.233 89.5463 130.666C89.1135 131.09 88.5315 131.328 87.9254 131.328C87.3193 131.328 86.7373 131.09 86.3044 130.666ZM78.0839 138.886C77.6596 138.453 77.4219 137.871 77.4219 137.265C77.4219 136.659 77.6596 136.077 78.0839 135.644C78.5156 135.227 79.0927 134.994 79.6932 134.994C80.2938 134.994 80.8708 135.227 81.3026 135.644C81.7269 136.077 81.9646 136.659 81.9646 137.265C81.9646 137.871 81.7269 138.453 81.3026 138.886C80.8708 139.304 80.2938 139.537 79.6932 139.537C79.0927 139.537 78.5156 139.304 78.0839 138.886ZM69.8401 147.107C69.4228 146.675 69.1895 146.098 69.1895 145.497C69.1895 144.897 69.4228 144.32 69.8401 143.888C70.273 143.464 70.855 143.226 71.4611 143.226C72.0672 143.226 72.6492 143.464 73.082 143.888C73.4994 144.32 73.7327 144.897 73.7327 145.497C73.7327 146.098 73.4994 146.675 73.082 147.107C72.6522 147.534 72.0719 147.776 71.4658 147.78C70.8597 147.785 70.276 147.551 69.8401 147.13V147.107Z" fill="#2D9CDB"/>
<path d="M155.404 64.7857C154.978 65.208 154.405 65.4487 153.806 65.4573C153.192 65.4573 152.603 65.2133 152.168 64.779C151.734 64.3448 151.49 63.7558 151.49 63.1416C151.49 62.5275 151.734 61.9385 152.168 61.5042C152.603 61.0699 153.192 60.826 153.806 60.826C154.41 60.8223 154.992 61.055 155.427 61.4743C155.841 61.9241 156.079 62.5076 156.098 63.1185C156.1 63.4287 156.04 63.7362 155.92 64.0226C155.801 64.309 155.625 64.5685 155.404 64.7857Z" fill="#2D9CDB"/>
<path d="M74.3094 164.845C73.878 165.273 73.2959 165.514 72.6884 165.517C72.0742 165.517 71.4853 165.273 71.051 164.838C70.6167 164.404 70.3727 163.815 70.3727 163.201C70.3727 162.587 70.6167 161.998 71.051 161.563C71.4853 161.129 72.0742 160.885 72.6884 160.885C73.2935 160.9 73.8714 161.139 74.3094 161.557C74.7372 161.988 74.9783 162.57 74.9809 163.178C74.9857 163.486 74.9288 163.793 74.8135 164.079C74.6982 164.366 74.5268 164.626 74.3094 164.845Z" fill="#2D9CDB"/>
<path d="M153.412 82.5001C152.995 82.0683 152.761 81.4912 152.761 80.8907C152.761 80.2902 152.995 79.7131 153.412 79.2813C153.845 78.857 154.427 78.6194 155.033 78.6194C155.639 78.6194 156.221 78.857 156.654 79.2813C157.071 79.7131 157.305 80.2902 157.305 80.8907C157.305 81.4912 157.071 82.0683 156.654 82.5001C156.221 82.9244 155.639 83.162 155.033 83.162C154.427 83.162 153.845 82.9244 153.412 82.5001ZM145.191 90.7438C144.767 90.3109 144.529 89.729 144.529 89.1228C144.529 88.5167 144.767 87.9348 145.191 87.5019C145.624 87.0776 146.206 86.84 146.812 86.84C147.418 86.84 148 87.0776 148.433 87.5019C148.858 87.9348 149.095 88.5167 149.095 89.1228C149.095 89.729 148.858 90.3109 148.433 90.7438C148 91.1681 147.418 91.4058 146.812 91.4058C146.206 91.4058 145.624 91.1681 145.191 90.7438ZM136.948 98.9644C136.53 98.5326 136.297 97.9555 136.297 97.355C136.297 96.7545 136.53 96.1774 136.948 95.7456C137.381 95.3213 137.963 95.0837 138.569 95.0837C139.175 95.0837 139.757 95.3213 140.19 95.7456C140.607 96.1774 140.84 96.7545 140.84 97.355C140.84 97.9555 140.607 98.5326 140.19 98.9644C139.757 99.3887 139.175 99.6263 138.569 99.6263C137.963 99.6263 137.381 99.3887 136.948 98.9644ZM128.727 107.208C128.303 106.775 128.065 106.193 128.065 105.587C128.065 104.981 128.303 104.399 128.727 103.966C129.16 103.542 129.742 103.304 130.348 103.304C130.954 103.304 131.536 103.542 131.969 103.966C132.393 104.399 132.631 104.981 132.631 105.587C132.631 106.193 132.393 106.775 131.969 107.208C131.536 107.632 130.954 107.87 130.348 107.87C129.742 107.87 129.16 107.632 128.727 107.208ZM120.414 115.429C119.997 114.997 119.763 114.42 119.763 113.819C119.763 113.219 119.997 112.642 120.414 112.21C120.847 111.786 121.429 111.548 122.035 111.548C122.641 111.548 123.223 111.786 123.656 112.21C124.08 112.643 124.318 113.225 124.318 113.831C124.318 114.437 124.08 115.019 123.656 115.452C123.22 115.873 122.636 116.107 122.03 116.102C121.424 116.098 120.844 115.856 120.414 115.429ZM112.17 123.672C111.753 123.241 111.52 122.664 111.52 122.063C111.52 121.462 111.753 120.885 112.17 120.454C112.603 120.029 113.185 119.792 113.791 119.792C114.397 119.792 114.979 120.029 115.412 120.454C115.829 120.885 116.063 121.462 116.063 122.063C116.063 122.664 115.829 123.241 115.412 123.672C114.983 124.076 114.415 124.301 113.826 124.301C113.236 124.301 112.669 124.076 112.24 123.672H112.17ZM104.019 131.939C103.595 131.506 103.357 130.924 103.357 130.318C103.357 129.712 103.595 129.13 104.019 128.697C104.452 128.273 105.034 128.035 105.64 128.035C106.246 128.035 106.828 128.273 107.261 128.697C107.685 129.13 107.923 129.712 107.923 130.318C107.923 130.924 107.685 131.506 107.261 131.939C106.828 132.364 106.246 132.601 105.64 132.601C105.034 132.601 104.452 132.364 104.019 131.939ZM95.7754 140.16C95.358 139.728 95.1247 139.151 95.1247 138.55C95.1247 137.95 95.358 137.373 95.7754 136.941C96.2082 136.517 96.7902 136.279 97.3963 136.279C98.0025 136.279 98.5844 136.517 99.0173 136.941C99.4347 137.373 99.668 137.95 99.668 138.55C99.668 139.151 99.4347 139.728 99.0173 140.16C98.5814 140.581 97.9977 140.815 97.3916 140.81C96.7855 140.806 96.2052 140.564 95.7754 140.137V140.16ZM87.5548 148.38C87.1305 147.948 86.8929 147.366 86.8929 146.759C86.8929 146.153 87.1305 145.571 87.5548 145.138C87.9877 144.714 88.5696 144.477 89.1758 144.477C89.7819 144.477 90.3639 144.714 90.7967 145.138C91.221 145.571 91.4587 146.153 91.4587 146.759C91.4587 147.366 91.221 147.948 90.7967 148.38C90.3639 148.805 89.7819 149.042 89.1758 149.042C88.5696 149.042 87.9877 148.805 87.5548 148.38ZM79.3111 156.601C78.8937 156.169 78.6604 155.592 78.6604 154.992C78.6604 154.391 78.8937 153.814 79.3111 153.382C79.7439 152.958 80.3259 152.72 80.932 152.72C81.5382 152.72 82.1201 152.958 82.553 153.382C82.9704 153.814 83.2037 154.391 83.2037 154.992C83.2037 155.592 82.9704 156.169 82.553 156.601C82.1201 157.025 81.5382 157.263 80.932 157.263C80.3259 157.263 79.7439 157.025 79.3111 156.601Z" fill="#2D9CDB"/>
<path d="M164.898 74.2793C164.463 74.6986 163.881 74.9313 163.277 74.9277C162.663 74.9277 162.074 74.6837 161.639 74.2495C161.205 73.8152 160.961 73.2262 160.961 72.612C160.961 71.9979 161.205 71.4089 161.639 70.9746C162.074 70.5404 162.663 70.2964 163.277 70.2964C163.891 70.2964 164.48 70.5404 164.914 70.9746C165.348 71.4089 165.592 71.9979 165.592 72.612C165.594 72.9223 165.534 73.2298 165.414 73.5162C165.295 73.8026 165.119 74.0621 164.898 74.2793Z" fill="#2D9CDB"/>
<path d="M83.2246 173.76C82.7917 174.185 82.2098 174.422 81.6036 174.422C80.9975 174.422 80.4155 174.185 79.9827 173.76C79.5604 173.335 79.3197 172.762 79.3111 172.163C79.3217 171.714 79.4624 171.278 79.716 170.908C79.9697 170.538 80.3254 170.249 80.74 170.078C81.1546 169.906 81.6101 169.858 82.0512 169.941C82.4923 170.023 82.8999 170.232 83.2246 170.542C83.6524 170.973 83.8936 171.555 83.8961 172.163C83.8699 172.758 83.6317 173.325 83.2246 173.76Z" fill="#2D9CDB"/>
<path d="M162.327 91.4156C161.903 90.9827 161.665 90.4007 161.665 89.7946C161.665 89.1885 161.903 88.6065 162.327 88.1737C162.76 87.7494 163.342 87.5117 163.948 87.5117C164.554 87.5117 165.136 87.7494 165.569 88.1737C165.993 88.6065 166.231 89.1885 166.231 89.7946C166.231 90.4007 165.993 90.9827 165.569 91.4156C165.136 91.8399 164.554 92.0775 163.948 92.0775C163.342 92.0775 162.76 91.8399 162.327 91.4156ZM154.084 99.6361C153.666 99.2043 153.433 98.6273 153.433 98.0268C153.433 97.4262 153.666 96.8492 154.084 96.4174C154.516 95.9931 155.098 95.7554 155.704 95.7554C156.311 95.7554 156.893 95.9931 157.325 96.4174C157.743 96.8492 157.976 97.4262 157.976 98.0268C157.976 98.6273 157.743 99.2043 157.325 99.6361C156.893 100.06 156.311 100.298 155.704 100.298C155.098 100.298 154.516 100.06 154.084 99.6361ZM145.886 107.88C145.462 107.447 145.224 106.865 145.224 106.259C145.224 105.653 145.462 105.071 145.886 104.638C146.318 104.221 146.895 103.987 147.495 103.987C148.096 103.987 148.673 104.221 149.105 104.638C149.529 105.071 149.767 105.653 149.767 106.259C149.767 106.865 149.529 107.447 149.105 107.88C148.673 108.297 148.096 108.531 147.495 108.531C146.895 108.531 146.318 108.297 145.886 107.88ZM137.642 116.1C137.225 115.669 136.992 115.092 136.992 114.491C136.992 113.891 137.225 113.313 137.642 112.882C138.075 112.457 138.657 112.22 139.263 112.22C139.869 112.22 140.451 112.457 140.884 112.882C141.302 113.313 141.535 113.891 141.535 114.491C141.535 115.092 141.302 115.669 140.884 116.1C140.45 116.532 139.864 116.774 139.252 116.774C138.64 116.774 138.053 116.532 137.619 116.1H137.642ZM129.422 124.344C129.004 123.912 128.771 123.335 128.771 122.735C128.771 122.134 129.004 121.557 129.422 121.125C129.855 120.701 130.437 120.463 131.043 120.463C131.649 120.463 132.231 120.701 132.664 121.125C133.081 121.557 133.314 122.134 133.314 122.735C133.314 123.335 133.081 123.912 132.664 124.344C132.23 124.775 131.643 125.018 131.031 125.018C130.419 125.018 129.833 124.775 129.399 124.344H129.422ZM121.178 132.588C120.754 132.155 120.516 131.573 120.516 130.967C120.516 130.361 120.754 129.779 121.178 129.346C121.611 128.922 122.193 128.684 122.799 128.684C123.405 128.684 123.987 128.922 124.42 129.346C124.844 129.779 125.082 130.361 125.082 130.967C125.082 131.573 124.844 132.155 124.42 132.588C123.986 133.019 123.399 133.261 122.787 133.261C122.176 133.261 121.589 133.019 121.155 132.588H121.178ZM112.934 140.808C112.517 140.377 112.284 139.8 112.284 139.199C112.284 138.599 112.517 138.021 112.934 137.59C113.367 137.165 113.949 136.928 114.555 136.928C115.161 136.928 115.743 137.165 116.176 137.59C116.594 138.021 116.827 138.599 116.827 139.199C116.827 139.8 116.594 140.377 116.176 140.808C115.742 141.24 115.155 141.482 114.544 141.482C113.932 141.482 113.345 141.24 112.911 140.808H112.934ZM104.714 149.052C104.289 148.619 104.052 148.037 104.052 147.431C104.052 146.825 104.289 146.243 104.714 145.81C105.147 145.386 105.729 145.148 106.335 145.148C106.941 145.148 107.523 145.386 107.956 145.81C108.38 146.243 108.618 146.825 108.618 147.431C108.618 148.037 108.38 148.619 107.956 149.052C107.522 149.483 106.935 149.726 106.323 149.726C105.711 149.726 105.124 149.483 104.691 149.052H104.714ZM96.4701 157.273C96.0527 156.841 95.8194 156.264 95.8194 155.663C95.8194 155.063 96.0527 154.486 96.4701 154.054C96.9029 153.63 97.4849 153.392 98.091 153.392C98.6971 153.392 99.2791 153.63 99.712 154.054C100.129 154.486 100.363 155.063 100.363 155.663C100.363 156.264 100.129 156.841 99.712 157.273C99.2781 157.704 98.6912 157.946 98.0794 157.946C97.4677 157.946 96.8808 157.704 96.4469 157.273H96.4701ZM88.2263 165.516C87.802 165.084 87.5644 164.502 87.5644 163.896C87.5644 163.289 87.802 162.707 88.2263 162.275C88.6581 161.857 89.2352 161.624 89.8357 161.624C90.4362 161.624 91.0133 161.857 91.4451 162.275C91.8694 162.707 92.107 163.289 92.107 163.896C92.107 164.502 91.8694 165.084 91.4451 165.516C91.0133 165.934 90.4362 166.167 89.8357 166.167C89.2352 166.167 88.6581 165.934 88.2263 165.516Z" fill="#2D9CDB"/>
<path d="M173.79 83.1716C173.358 83.5994 172.776 83.8406 172.169 83.8432C171.561 83.8406 170.979 83.5994 170.548 83.1716C170.13 82.7337 169.891 82.1558 169.876 81.5507C169.887 81.1021 170.028 80.6662 170.281 80.2961C170.535 79.926 170.891 79.6375 171.305 79.4658C171.72 79.2941 172.175 79.2465 172.616 79.3289C173.057 79.4113 173.465 79.62 173.79 79.9297C174.214 80.3626 174.452 80.9446 174.452 81.5507C174.452 82.1568 174.214 82.7388 173.79 83.1716Z" fill="#2D9CDB"/>
<path d="M91.8388 182.374C91.4075 182.802 90.8253 183.043 90.2178 183.046C89.6037 183.046 89.0147 182.802 88.5804 182.368C88.1462 181.933 87.9022 181.344 87.9022 180.73C87.9022 180.116 88.1462 179.527 88.5804 179.093C89.0147 178.659 89.6037 178.415 90.2178 178.415C90.8253 178.417 91.4075 178.658 91.8388 179.086C92.2666 179.517 92.5078 180.1 92.5103 180.707C92.5152 181.016 92.4583 181.322 92.3429 181.609C92.2276 181.895 92.0562 182.155 91.8388 182.374Z" fill="#2D9CDB"/>
<path d="M170.942 100.03C170.517 99.597 170.28 99.015 170.28 98.4089C170.28 97.8028 170.517 97.2208 170.942 96.7879C171.374 96.3636 171.956 96.126 172.562 96.126C173.169 96.126 173.751 96.3636 174.183 96.7879C174.608 97.2208 174.845 97.8028 174.845 98.4089C174.845 99.015 174.608 99.597 174.183 100.03C173.751 100.454 173.169 100.692 172.562 100.692C171.956 100.692 171.374 100.454 170.942 100.03ZM162.721 108.274C162.297 107.841 162.059 107.259 162.059 106.653C162.059 106.046 162.297 105.465 162.721 105.032C163.153 104.614 163.73 104.381 164.33 104.381C164.931 104.381 165.508 104.614 165.94 105.032C166.364 105.465 166.602 106.046 166.602 106.653C166.602 107.259 166.364 107.841 165.94 108.274C165.508 108.691 164.931 108.924 164.33 108.924C163.73 108.924 163.153 108.691 162.721 108.274ZM154.477 116.494C154.053 116.061 153.815 115.479 153.815 114.873C153.815 114.267 154.053 113.685 154.477 113.252C154.91 112.828 155.492 112.59 156.098 112.59C156.704 112.59 157.286 112.828 157.719 113.252C158.143 113.685 158.381 114.267 158.381 114.873C158.381 115.479 158.143 116.061 157.719 116.494C157.286 116.918 156.704 117.156 156.098 117.156C155.492 117.156 154.91 116.918 154.477 116.494ZM146.257 124.738C145.832 124.305 145.595 123.723 145.595 123.117C145.595 122.511 145.832 121.929 146.257 121.496C146.688 121.079 147.266 120.845 147.866 120.845C148.467 120.845 149.044 121.079 149.475 121.496C149.9 121.929 150.137 122.511 150.137 123.117C150.137 123.723 149.9 124.305 149.475 124.738C149.044 125.155 148.467 125.389 147.866 125.389C147.266 125.389 146.688 125.155 146.257 124.738ZM138.013 132.958C137.596 132.527 137.362 131.95 137.362 131.349C137.362 130.749 137.596 130.171 138.013 129.74C138.445 129.322 139.022 129.089 139.622 129.089C140.223 129.089 140.8 129.322 141.232 129.74C141.649 130.171 141.882 130.749 141.882 131.349C141.882 131.95 141.649 132.527 141.232 132.958C140.8 133.376 140.223 133.609 139.622 133.609C139.022 133.609 138.445 133.376 138.013 132.958ZM129.677 141.202C129.252 140.769 129.015 140.187 129.015 139.581C129.015 138.975 129.252 138.393 129.677 137.96C130.109 137.536 130.691 137.298 131.298 137.298C131.904 137.298 132.486 137.536 132.919 137.96C133.343 138.393 133.58 138.975 133.58 139.581C133.58 140.187 133.343 140.769 132.919 141.202C132.486 141.626 131.904 141.864 131.298 141.864C130.691 141.864 130.109 141.626 129.677 141.202ZM121.456 149.446C121.032 149.013 120.794 148.431 120.794 147.825C120.794 147.219 121.032 146.637 121.456 146.204C121.888 145.787 122.465 145.553 123.065 145.553C123.666 145.553 124.243 145.787 124.675 146.204C125.099 146.637 125.337 147.219 125.337 147.825C125.337 148.431 125.099 149.013 124.675 149.446C124.248 149.836 123.69 150.053 123.112 150.053C122.533 150.053 121.976 149.836 121.549 149.446H121.456ZM113.212 157.666C112.788 157.234 112.55 156.652 112.55 156.045C112.55 155.439 112.788 154.857 113.212 154.425C113.645 154 114.227 153.763 114.833 153.763C115.439 153.763 116.021 154 116.454 154.425C116.879 154.857 117.116 155.439 117.116 156.045C117.116 156.652 116.879 157.234 116.454 157.666C116.026 158.064 115.464 158.284 114.88 158.284C114.296 158.284 113.733 158.064 113.305 157.666H113.212ZM104.992 165.91C104.567 165.477 104.33 164.895 104.33 164.289C104.33 163.683 104.567 163.101 104.992 162.668C105.424 162.251 106.001 162.018 106.601 162.018C107.202 162.018 107.779 162.251 108.211 162.668C108.635 163.101 108.872 163.683 108.872 164.289C108.872 164.895 108.635 165.477 108.211 165.91C107.784 166.301 107.226 166.517 106.647 166.517C106.069 166.517 105.511 166.301 105.084 165.91H104.992ZM96.748 174.131C96.3237 173.698 96.0861 173.116 96.0861 172.51C96.0861 171.904 96.3237 171.322 96.748 170.889C97.1809 170.465 97.7629 170.227 98.369 170.227C98.9751 170.227 99.5571 170.465 99.9899 170.889C100.414 171.322 100.652 171.904 100.652 172.51C100.652 173.116 100.414 173.698 99.9899 174.131C99.5617 174.528 98.9993 174.749 98.4153 174.749C97.8313 174.749 97.2689 174.528 96.8407 174.131H96.748Z" fill="#2D9CDB"/>
<path d="M182.404 91.786C181.982 92.2167 181.409 92.466 180.806 92.4807C180.195 92.472 179.613 92.2223 179.185 91.786C178.763 91.3604 178.522 90.7877 178.514 90.1882C178.514 89.5741 178.758 88.9851 179.192 88.5508C179.626 88.1165 180.215 87.8726 180.829 87.8726C181.271 87.8913 181.699 88.0363 182.061 88.2904C182.423 88.5445 182.705 88.8971 182.873 89.3064C183.041 89.7157 183.089 90.1645 183.01 90.5999C182.93 91.0352 182.728 91.4388 182.427 91.7629L182.404 91.786Z" fill="#2D9CDB"/>
</svg>
