<svg width="167" height="114" viewBox="0 0 167 114" fill="none" xmlns="http://www.w3.org/2000/svg">
<path d="M3.00003 5.72991C2.23802 5.71919 1.50865 5.41886 0.960026 4.88991C0.437412 4.35202 0.135223 3.63788 0.113012 2.88823C0.0907998 2.13859 0.350176 1.40781 0.840026 0.839915C1.39477 0.325429 2.12343 0.0395508 2.88003 0.0395508C3.63662 0.0395508 4.36528 0.325429 4.92003 0.839915C5.1909 1.12869 5.40192 1.46822 5.54094 1.83895C5.67996 2.20967 5.74423 2.60424 5.73003 2.99991C5.7199 3.74744 5.43104 4.46424 4.92003 5.00991C4.38446 5.46798 3.70473 5.72288 3.00003 5.72991V5.72991Z" fill="#EDF2F8"/>
<path d="M146.13 3C146.13 2.20435 146.446 1.44129 147.009 0.87868C147.571 0.316071 148.334 0 149.13 0V0C149.926 0 150.689 0.316071 151.251 0.87868C151.814 1.44129 152.13 2.20435 152.13 3C152.13 3.79565 151.814 4.55871 151.251 5.12132C150.689 5.68393 149.926 6 149.13 6C148.334 6 147.571 5.68393 147.009 5.12132C146.446 4.55871 146.13 3.79565 146.13 3V3ZM131.52 3C131.52 2.20435 131.836 1.44129 132.399 0.87868C132.961 0.316071 133.724 0 134.52 0V0C135.316 0 136.079 0.316071 136.641 0.87868C137.204 1.44129 137.52 2.20435 137.52 3C137.52 3.79565 137.204 4.55871 136.641 5.12132C136.079 5.68393 135.316 6 134.52 6C133.724 6 132.961 5.68393 132.399 5.12132C131.836 4.55871 131.52 3.79565 131.52 3V3ZM117 3C117 2.20435 117.316 1.44129 117.879 0.87868C118.441 0.316071 119.204 0 120 0V0C120.796 0 121.559 0.316071 122.121 0.87868C122.684 1.44129 123 2.20435 123 3C123 3.79565 122.684 4.55871 122.121 5.12132C121.559 5.68393 120.796 6 120 6C119.204 6 118.441 5.68393 117.879 5.12132C117.316 4.55871 117 3.79565 117 3V3ZM102.3 3C102.3 2.20435 102.616 1.44129 103.179 0.87868C103.741 0.316071 104.504 0 105.3 0V0C106.096 0 106.859 0.316071 107.421 0.87868C107.984 1.44129 108.3 2.20435 108.3 3C108.3 3.79565 107.984 4.55871 107.421 5.12132C106.859 5.68393 106.096 6 105.3 6C104.504 6 103.741 5.68393 103.179 5.12132C102.616 4.55871 102.3 3.79565 102.3 3V3ZM87.69 3C87.689 2.22967 87.9844 1.48849 88.515 0.929999C89.0455 0.37151 89.7706 0.0385159 90.54 0V0C91.3356 0 92.0987 0.316071 92.6613 0.87868C93.2239 1.44129 93.54 2.20435 93.54 3C93.54 3.79565 93.2239 4.55871 92.6613 5.12132C92.0987 5.68393 91.3356 6 90.54 6C89.7706 5.96148 89.0455 5.62849 88.515 5.07C87.9844 4.51151 87.689 3.77033 87.69 3V3ZM73.08 3C73.079 2.22967 73.3744 1.48849 73.905 0.929999C74.4355 0.37151 75.1606 0.0385159 75.93 0V0C76.7256 0 77.4887 0.316071 78.0513 0.87868C78.6139 1.44129 78.93 2.20435 78.93 3C78.93 3.79565 78.6139 4.55871 78.0513 5.12132C77.4887 5.68393 76.7256 6 75.93 6C75.1606 5.96148 74.4355 5.62849 73.905 5.07C73.3744 4.51151 73.079 3.77033 73.08 3V3ZM58.47 3C58.47 2.20435 58.7861 1.44129 59.3487 0.87868C59.9113 0.316071 60.6743 0 61.47 0V0C62.2656 0 63.0287 0.316071 63.5913 0.87868C64.1539 1.44129 64.47 2.20435 64.47 3C64.47 3.79565 64.1539 4.55871 63.5913 5.12132C63.0287 5.68393 62.2656 6 61.47 6C60.6743 6 59.9113 5.68393 59.3487 5.12132C58.7861 4.55871 58.47 3.79565 58.47 3V3ZM43.86 3C43.86 2.20435 44.1761 1.44129 44.7387 0.87868C45.3013 0.316071 46.0643 0 46.86 0V0C47.6556 0 48.4187 0.316071 48.9813 0.87868C49.5439 1.44129 49.86 2.20435 49.86 3C49.86 3.79565 49.5439 4.55871 48.9813 5.12132C48.4187 5.68393 47.6556 6 46.86 6C46.0643 6 45.3013 5.68393 44.7387 5.12132C44.1761 4.55871 43.86 3.79565 43.86 3V3ZM29.25 3C29.249 2.22967 29.5444 1.48849 30.075 0.929999C30.6055 0.37151 31.3306 0.0385159 32.1 0V0C32.8956 0 33.6587 0.316071 34.2213 0.87868C34.7839 1.44129 35.1 2.20435 35.1 3C35.1 3.79565 34.7839 4.55871 34.2213 5.12132C33.6587 5.68393 32.8956 6 32.1 6C31.3306 5.96148 30.6055 5.62849 30.075 5.07C29.5444 4.51151 29.249 3.77033 29.25 3V3ZM14.61 3C14.61 2.20435 14.9261 1.44129 15.4887 0.87868C16.0513 0.316071 16.8143 0 17.61 0V0C18.4056 0 19.1687 0.316071 19.7313 0.87868C20.2939 1.44129 20.61 2.20435 20.61 3C20.61 3.79565 20.2939 4.55871 19.7313 5.12132C19.1687 5.68393 18.4056 6 17.61 6C16.8143 6 16.0513 5.68393 15.4887 5.12132C14.9261 4.55871 14.61 3.79565 14.61 3V3Z" fill="#EDF2F8"/>
<path d="M163.62 5.73003C162.858 5.7193 162.128 5.41898 161.58 4.89003C161.085 4.37952 160.787 3.70968 160.74 3.00003C160.75 2.23802 161.051 1.50866 161.58 0.960032C162.134 0.445546 162.863 0.159668 163.62 0.159668C164.376 0.159668 165.105 0.445546 165.66 0.960032C166.189 1.50866 166.489 2.23802 166.5 3.00003C166.481 3.75162 166.182 4.46895 165.66 5.01003C165.093 5.49539 164.366 5.75209 163.62 5.73003V5.73003Z" fill="#EDF2F8"/>
<path d="M3 21.54C2.60225 21.5502 2.20644 21.4812 1.83561 21.337C1.46478 21.1928 1.12634 20.9762 0.84 20.7C0.311055 20.1513 0.0107277 19.422 0 18.66C0.0101262 17.9125 0.298989 17.1956 0.81 16.65C1.36475 16.1355 2.0934 15.8496 2.85 15.8496C3.6066 15.8496 4.33525 16.1355 4.89 16.65C5.40101 17.1956 5.68987 17.9125 5.7 18.66C5.69738 19.4179 5.408 20.1467 4.89 20.7C4.37949 21.1952 3.70965 21.4929 3 21.54V21.54Z" fill="#EDF2F8"/>
<path d="M146.13 18.66C146.13 17.8644 146.446 17.1013 147.009 16.5387C147.571 15.9761 148.334 15.66 149.13 15.66C149.926 15.66 150.689 15.9761 151.251 16.5387C151.814 17.1013 152.13 17.8644 152.13 18.66C152.13 19.4557 151.814 20.2187 151.251 20.7813C150.689 21.344 149.926 21.66 149.13 21.66C148.334 21.66 147.571 21.344 147.009 20.7813C146.446 20.2187 146.13 19.4557 146.13 18.66ZM131.52 18.66C131.52 17.8644 131.836 17.1013 132.399 16.5387C132.961 15.9761 133.724 15.66 134.52 15.66C135.316 15.66 136.079 15.9761 136.641 16.5387C137.204 17.1013 137.52 17.8644 137.52 18.66C137.52 19.4557 137.204 20.2187 136.641 20.7813C136.079 21.344 135.316 21.66 134.52 21.66C133.724 21.66 132.961 21.344 132.399 20.7813C131.836 20.2187 131.52 19.4557 131.52 18.66ZM117 18.66C117 17.8644 117.316 17.1013 117.879 16.5387C118.441 15.9761 119.204 15.66 120 15.66C120.796 15.66 121.559 15.9761 122.121 16.5387C122.684 17.1013 123 17.8644 123 18.66C123 19.4557 122.684 20.2187 122.121 20.7813C121.559 21.344 120.796 21.66 120 21.66C119.204 21.66 118.441 21.344 117.879 20.7813C117.316 20.2187 117 19.4557 117 18.66ZM102.39 18.66C102.39 17.8644 102.706 17.1013 103.269 16.5387C103.831 15.9761 104.594 15.66 105.39 15.66C106.186 15.66 106.949 15.9761 107.511 16.5387C108.074 17.1013 108.39 17.8644 108.39 18.66C108.39 19.4557 108.074 20.2187 107.511 20.7813C106.949 21.344 106.186 21.66 105.39 21.66C104.989 21.6721 104.589 21.6034 104.214 21.458C103.84 21.3127 103.498 21.0936 103.21 20.8138C102.922 20.534 102.693 20.1992 102.537 19.8292C102.38 19.4593 102.3 19.0617 102.3 18.66H102.39ZM87.78 18.66C87.779 17.8897 88.0744 17.1485 88.605 16.59C89.1356 16.0315 89.8606 15.6985 90.63 15.66C91.4256 15.66 92.1887 15.9761 92.7513 16.5387C93.3139 17.1013 93.63 17.8644 93.63 18.66C93.63 19.4557 93.3139 20.2187 92.7513 20.7813C92.1887 21.344 91.4256 21.66 90.63 21.66C89.8448 21.6443 89.097 21.3213 88.5473 20.7604C87.9977 20.1995 87.6898 19.4454 87.69 18.66H87.78ZM73.17 18.66C73.169 17.8897 73.4644 17.1485 73.995 16.59C74.5256 16.0315 75.2506 15.6985 76.02 15.66V15.66C76.8156 15.66 77.5787 15.9761 78.1413 16.5387C78.7039 17.1013 79.02 17.8644 79.02 18.66C79.02 19.4557 78.7039 20.2187 78.1413 20.7813C77.5787 21.344 76.8156 21.66 76.02 21.66C75.2348 21.6443 74.487 21.3213 73.9373 20.7604C73.3876 20.1995 73.0798 19.4454 73.08 18.66H73.17ZM58.56 18.66C58.56 17.8644 58.8761 17.1013 59.4387 16.5387C60.0013 15.9761 60.7643 15.66 61.56 15.66C62.3556 15.66 63.1187 15.9761 63.6813 16.5387C64.2439 17.1013 64.56 17.8644 64.56 18.66C64.56 19.4557 64.2439 20.2187 63.6813 20.7813C63.1187 21.344 62.3556 21.66 61.56 21.66C61.1585 21.6721 60.7587 21.6034 60.3843 21.458C60.0098 21.3127 59.6684 21.0936 59.3802 20.8138C59.0921 20.534 58.863 20.1992 58.7066 19.8292C58.5503 19.4593 58.4698 19.0617 58.47 18.66H58.56ZM43.95 18.66C43.9235 18.2592 43.9829 17.8573 44.1243 17.4813C44.2657 17.1053 44.4857 16.7639 44.7698 16.4798C45.0538 16.1958 45.3953 15.9757 45.7713 15.8343C46.1473 15.6929 46.5492 15.6335 46.95 15.66V15.66C47.7456 15.66 48.5087 15.9761 49.0713 16.5387C49.6339 17.1013 49.95 17.8644 49.95 18.66C49.95 19.4557 49.6339 20.2187 49.0713 20.7813C48.5087 21.344 47.7456 21.66 46.95 21.66C46.5485 21.6721 46.1487 21.6034 45.7743 21.458C45.3998 21.3127 45.0584 21.0936 44.7702 20.8138C44.4821 20.534 44.253 20.1992 44.0966 19.8292C43.9403 19.4593 43.8598 19.0617 43.86 18.66H43.95ZM29.34 18.66C29.3152 18.2723 29.3707 17.8836 29.5032 17.5184C29.6356 17.1531 29.8421 16.8192 30.1097 16.5375C30.3773 16.2558 30.7002 16.0325 31.0582 15.8815C31.4162 15.7305 31.8015 15.6551 32.19 15.66V15.66C32.9856 15.66 33.7487 15.9761 34.3113 16.5387C34.8739 17.1013 35.19 17.8644 35.19 18.66C35.19 19.4557 34.8739 20.2187 34.3113 20.7813C33.7487 21.344 32.9856 21.66 32.19 21.66C31.4048 21.6443 30.657 21.3213 30.1073 20.7604C29.5577 20.1995 29.2498 19.4454 29.25 18.66H29.34ZM14.7 18.66C14.7 17.8644 15.0161 17.1013 15.5787 16.5387C16.1413 15.9761 16.9043 15.66 17.7 15.66C18.4956 15.66 19.2587 15.9761 19.8213 16.5387C20.3839 17.1013 20.7 17.8644 20.7 18.66C20.7 19.4557 20.3839 20.2187 19.8213 20.7813C19.2587 21.344 18.4956 21.66 17.7 21.66C17.2985 21.6721 16.8987 21.6034 16.5243 21.458C16.1498 21.3127 15.8084 21.0936 15.5202 20.8138C15.2321 20.534 15.003 20.1992 14.8466 19.8292C14.6903 19.4593 14.6098 19.0617 14.61 18.66H14.7Z" fill="#EDF2F8"/>
<path d="M163.62 21.5401C162.858 21.5293 162.128 21.229 161.58 20.7001C161.051 20.1514 160.75 19.4221 160.74 18.6601C160.792 18.115 160.991 17.5946 161.318 17.1551C161.644 16.7156 162.085 16.3738 162.592 16.1667C163.099 15.9597 163.652 15.8953 164.193 15.9805C164.734 16.0657 165.241 16.2972 165.66 16.6501C166.182 17.1911 166.481 17.9085 166.5 18.6601C166.5 19.4557 166.184 20.2188 165.621 20.7814C165.058 21.344 164.295 21.6601 163.5 21.6601L163.62 21.5401Z" fill="#EDF2F8"/>
<path d="M3 36.8401C2.60225 36.8503 2.20644 36.7813 1.83561 36.6371C1.46478 36.4929 1.12634 36.2763 0.84 36.0001C0.311055 35.4515 0.0107277 34.7221 0 33.9601C0.0182537 33.2085 0.318036 32.4912 0.84 31.9501C1.39475 31.4356 2.1234 31.1497 2.88 31.1497C3.6366 31.1497 4.36525 31.4356 4.92 31.9501C5.43101 32.4958 5.71987 33.2126 5.73 33.9601C5.72738 34.718 5.438 35.4468 4.92 36.0001C4.40179 36.5018 3.72017 36.8 3 36.8401V36.8401Z" fill="#EDF2F8"/>
<path d="M146.13 33.96C146.13 33.1644 146.446 32.4013 147.009 31.8387C147.571 31.2761 148.334 30.96 149.13 30.96C149.926 30.96 150.689 31.2761 151.251 31.8387C151.814 32.4013 152.13 33.1644 152.13 33.96C152.13 34.7557 151.814 35.5187 151.251 36.0813C150.689 36.644 149.926 36.96 149.13 36.96C148.334 36.96 147.571 36.644 147.009 36.0813C146.446 35.5187 146.13 34.7557 146.13 33.96ZM131.52 33.96C131.52 33.1644 131.836 32.4013 132.399 31.8387C132.961 31.2761 133.724 30.96 134.52 30.96C135.316 30.96 136.079 31.2761 136.641 31.8387C137.204 32.4013 137.52 33.1644 137.52 33.96C137.52 34.7557 137.204 35.5187 136.641 36.0813C136.079 36.644 135.316 36.96 134.52 36.96C133.724 36.96 132.961 36.644 132.399 36.0813C131.836 35.5187 131.52 34.7557 131.52 33.96ZM116.91 33.96C116.91 33.1644 117.226 32.4013 117.789 31.8387C118.351 31.2761 119.114 30.96 119.91 30.96C120.706 30.96 121.469 31.2761 122.031 31.8387C122.594 32.4013 122.91 33.1644 122.91 33.96C122.91 34.7557 122.594 35.5187 122.031 36.0813C121.469 36.644 120.706 36.96 119.91 36.96C119.13 36.9366 118.39 36.6102 117.847 36.0501C117.303 35.4901 117 34.7403 117 33.96H116.91ZM102.3 33.96C102.3 33.1644 102.616 32.4013 103.179 31.8387C103.741 31.2761 104.504 30.96 105.3 30.96C106.096 30.96 106.859 31.2761 107.421 31.8387C107.984 32.4013 108.3 33.1644 108.3 33.96C108.3 34.7557 107.984 35.5187 107.421 36.0813C106.859 36.644 106.096 36.96 105.3 36.96C104.504 36.96 103.741 36.644 103.179 36.0813C102.616 35.5187 102.3 34.7557 102.3 33.96ZM87.69 33.96C87.689 33.1897 87.9844 32.4485 88.515 31.89C89.0455 31.3315 89.7706 30.9985 90.54 30.96C91.3356 30.96 92.0987 31.2761 92.6613 31.8387C93.2239 32.4013 93.54 33.1644 93.54 33.96C93.54 34.7557 93.2239 35.5187 92.6613 36.0813C92.0987 36.644 91.3356 36.96 90.54 36.96C89.7706 36.9215 89.0455 36.5885 88.515 36.03C87.9844 35.4715 87.689 34.7304 87.69 33.96V33.96ZM73.08 33.96C73.079 33.1897 73.3744 32.4485 73.905 31.89C74.4355 31.3315 75.1606 30.9985 75.93 30.96V30.96C76.7256 30.96 77.4887 31.2761 78.0513 31.8387C78.6139 32.4013 78.93 33.1644 78.93 33.96C78.93 34.7557 78.6139 35.5187 78.0513 36.0813C77.4887 36.644 76.7256 36.96 75.93 36.96C75.1606 36.9215 74.4355 36.5885 73.905 36.03C73.3744 35.4715 73.079 34.7304 73.08 33.96V33.96ZM58.47 33.96C58.47 33.1644 58.7861 32.4013 59.3487 31.8387C59.9113 31.2761 60.6743 30.96 61.47 30.96C62.2656 30.96 63.0287 31.2761 63.5913 31.8387C64.1539 32.4013 64.47 33.1644 64.47 33.96C64.47 34.7557 64.1539 35.5187 63.5913 36.0813C63.0287 36.644 62.2656 36.96 61.47 36.96C61.076 36.96 60.6859 36.8824 60.3219 36.7317C59.958 36.5809 59.6272 36.3599 59.3487 36.0813C59.0701 35.8028 58.8491 35.4721 58.6983 35.1081C58.5476 34.7441 58.47 34.354 58.47 33.96V33.96ZM43.86 33.96C43.86 33.1644 44.1761 32.4013 44.7387 31.8387C45.3013 31.2761 46.0643 30.96 46.86 30.96V30.96C47.6556 30.96 48.4187 31.2761 48.9813 31.8387C49.5439 32.4013 49.86 33.1644 49.86 33.96C49.86 34.7557 49.5439 35.5187 48.9813 36.0813C48.4187 36.644 47.6556 36.96 46.86 36.96C46.466 36.96 46.0759 36.8824 45.7119 36.7317C45.348 36.5809 45.0172 36.3599 44.7387 36.0813C44.4601 35.8028 44.2391 35.4721 44.0883 35.1081C43.9376 34.7441 43.86 34.354 43.86 33.96V33.96ZM29.25 33.96C29.249 33.1897 29.5444 32.4485 30.075 31.89C30.6055 31.3315 31.3306 30.9985 32.1 30.96V30.96C32.8956 30.96 33.6587 31.2761 34.2213 31.8387C34.7839 32.4013 35.1 33.1644 35.1 33.96C35.1 34.7557 34.7839 35.5187 34.2213 36.0813C33.6587 36.644 32.8956 36.96 32.1 36.96C31.3306 36.9215 30.6055 36.5885 30.075 36.03C29.5444 35.4715 29.249 34.7304 29.25 33.96V33.96ZM14.61 33.96C14.61 33.1644 14.9261 32.4013 15.4887 31.8387C16.0513 31.2761 16.8143 30.96 17.61 30.96C18.4056 30.96 19.1687 31.2761 19.7313 31.8387C20.2939 32.4013 20.61 33.1644 20.61 33.96C20.61 34.7557 20.2939 35.5187 19.7313 36.0813C19.1687 36.644 18.4056 36.96 17.61 36.96C17.216 36.96 16.8259 36.8824 16.4619 36.7317C16.098 36.5809 15.7672 36.3599 15.4887 36.0813C15.2101 35.8028 14.9891 35.4721 14.8383 35.1081C14.6876 34.7441 14.61 34.354 14.61 33.96V33.96Z" fill="#EDF2F8"/>
<path d="M163.62 36.84C162.858 36.8293 162.128 36.5289 161.58 36C161.051 35.4514 160.75 34.722 160.74 33.96C160.792 33.415 160.991 32.8945 161.318 32.455C161.644 32.0155 162.085 31.6737 162.592 31.4667C163.099 31.2596 163.652 31.1952 164.193 31.2804C164.734 31.3656 165.241 31.5971 165.66 31.95C166.182 32.4911 166.481 33.2084 166.5 33.96C166.504 34.339 166.432 34.715 166.288 35.0655C166.143 35.416 165.93 35.7339 165.66 36C165.111 36.5289 164.382 36.8293 163.62 36.84V36.84Z" fill="#EDF2F8"/>
<path d="M3.00003 52.6499C2.23802 52.6392 1.50866 52.3389 0.960032 51.8099C0.445546 51.2552 0.159668 50.5265 0.159668 49.7699C0.159668 49.0133 0.445546 48.2847 0.960032 47.7299C1.51478 47.2154 2.24343 46.9296 3.00003 46.9296C3.75663 46.9296 4.48529 47.2154 5.04003 47.7299C5.55452 48.2847 5.84039 49.0133 5.84039 49.7699C5.84039 50.5265 5.55452 51.2552 5.04003 51.8099C4.49141 52.3389 3.76204 52.6392 3.00003 52.6499Z" fill="#EDF2F8"/>
<path d="M146.13 49.7701C146.13 48.9744 146.446 48.2114 147.009 47.6488C147.571 47.0862 148.334 46.7701 149.13 46.7701C149.926 46.7701 150.689 47.0862 151.251 47.6488C151.814 48.2114 152.13 48.9744 152.13 49.7701C152.13 50.5657 151.814 51.3288 151.251 51.8914C150.689 52.454 149.926 52.7701 149.13 52.7701C148.334 52.7701 147.571 52.454 147.009 51.8914C146.446 51.3288 146.13 50.5657 146.13 49.7701ZM131.52 49.7701C131.52 48.9744 131.836 48.2114 132.399 47.6488C132.961 47.0862 133.724 46.7701 134.52 46.7701C135.316 46.7701 136.079 47.0862 136.641 47.6488C137.204 48.2114 137.52 48.9744 137.52 49.7701C137.52 50.5657 137.204 51.3288 136.641 51.8914C136.079 52.454 135.316 52.7701 134.52 52.7701C133.724 52.7701 132.961 52.454 132.399 51.8914C131.836 51.3288 131.52 50.5657 131.52 49.7701ZM116.91 49.7701C116.91 48.9744 117.226 48.2114 117.789 47.6488C118.351 47.0862 119.114 46.7701 119.91 46.7701C120.706 46.7701 121.469 47.0862 122.031 47.6488C122.594 48.2114 122.91 48.9744 122.91 49.7701C122.91 50.5657 122.594 51.3288 122.031 51.8914C121.469 52.454 120.706 52.7701 119.91 52.7701C119.13 52.7467 118.39 52.4203 117.847 51.8602C117.303 51.3001 117 50.5504 117 49.7701H116.91ZM102.3 49.7701C102.3 48.9744 102.616 48.2114 103.179 47.6488C103.741 47.0862 104.504 46.7701 105.3 46.7701C106.096 46.7701 106.859 47.0862 107.421 47.6488C107.984 48.2114 108.3 48.9744 108.3 49.7701C108.3 50.5657 107.984 51.3288 107.421 51.8914C106.859 52.454 106.096 52.7701 105.3 52.7701C104.504 52.7701 103.741 52.454 103.179 51.8914C102.616 51.3288 102.3 50.5657 102.3 49.7701ZM87.69 49.7701C87.689 48.9998 87.9844 48.2586 88.515 47.7001C89.0455 47.1416 89.7706 46.8086 90.54 46.7701V46.7701C91.3356 46.7701 92.0987 47.0862 92.6613 47.6488C93.2239 48.2114 93.54 48.9744 93.54 49.7701C93.54 50.5657 93.2239 51.3288 92.6613 51.8914C92.0987 52.454 91.3356 52.7701 90.54 52.7701C89.7706 52.7316 89.0455 52.3986 88.515 51.8401C87.9844 51.2816 87.689 50.5404 87.69 49.7701V49.7701ZM73.08 49.7701C73.079 48.9998 73.3744 48.2586 73.905 47.7001C74.4355 47.1416 75.1606 46.8086 75.93 46.7701C76.7256 46.7701 77.4887 47.0862 78.0513 47.6488C78.6139 48.2114 78.93 48.9744 78.93 49.7701C78.93 50.5657 78.6139 51.3288 78.0513 51.8914C77.4887 52.454 76.7256 52.7701 75.93 52.7701C75.1606 52.7316 74.4355 52.3986 73.905 51.8401C73.3744 51.2816 73.079 50.5404 73.08 49.7701V49.7701ZM58.47 49.7701C58.47 48.9744 58.7861 48.2114 59.3487 47.6488C59.9113 47.0862 60.6743 46.7701 61.47 46.7701C62.2656 46.7701 63.0287 47.0862 63.5913 47.6488C64.1539 48.2114 64.47 48.9744 64.47 49.7701C64.47 50.5657 64.1539 51.3288 63.5913 51.8914C63.0287 52.454 62.2656 52.7701 61.47 52.7701C61.076 52.7701 60.6859 52.6925 60.3219 52.5417C59.958 52.391 59.6272 52.17 59.3487 51.8914C59.0701 51.6128 58.8491 51.2821 58.6983 50.9181C58.5476 50.5542 58.47 50.164 58.47 49.7701V49.7701ZM43.86 49.7701C43.86 48.9744 44.1761 48.2114 44.7387 47.6488C45.3013 47.0862 46.0643 46.7701 46.86 46.7701V46.7701C47.6556 46.7701 48.4187 47.0862 48.9813 47.6488C49.5439 48.2114 49.86 48.9744 49.86 49.7701C49.86 50.5657 49.5439 51.3288 48.9813 51.8914C48.4187 52.454 47.6556 52.7701 46.86 52.7701C46.466 52.7701 46.0759 52.6925 45.7119 52.5417C45.348 52.391 45.0172 52.17 44.7387 51.8914C44.4601 51.6128 44.2391 51.2821 44.0883 50.9181C43.9376 50.5542 43.86 50.164 43.86 49.7701V49.7701ZM29.25 49.7701C29.249 48.9998 29.5444 48.2586 30.075 47.7001C30.6055 47.1416 31.3306 46.8086 32.1 46.7701C32.8956 46.7701 33.6587 47.0862 34.2213 47.6488C34.7839 48.2114 35.1 48.9744 35.1 49.7701C35.1 50.5657 34.7839 51.3288 34.2213 51.8914C33.6587 52.454 32.8956 52.7701 32.1 52.7701C31.3306 52.7316 30.6055 52.3986 30.075 51.8401C29.5444 51.2816 29.249 50.5404 29.25 49.7701V49.7701ZM14.61 49.7701C14.61 48.9744 14.9261 48.2114 15.4887 47.6488C16.0513 47.0862 16.8143 46.7701 17.61 46.7701C18.4056 46.7701 19.1687 47.0862 19.7313 47.6488C20.2939 48.2114 20.61 48.9744 20.61 49.7701C20.61 50.5657 20.2939 51.3288 19.7313 51.8914C19.1687 52.454 18.4056 52.7701 17.61 52.7701C17.216 52.7701 16.8259 52.6925 16.4619 52.5417C16.098 52.391 15.7672 52.17 15.4887 51.8914C15.2101 51.6128 14.9891 51.2821 14.8383 50.9181C14.6876 50.5542 14.61 50.164 14.61 49.7701V49.7701Z" fill="#EDF2F8"/>
<path d="M163.62 52.65C162.858 52.6392 162.128 52.3389 161.58 51.81C161.051 51.2613 160.75 50.532 160.74 49.77C160.758 49.0184 161.058 48.301 161.58 47.76C162.134 47.2455 162.863 46.9596 163.62 46.9596C164.376 46.9596 165.105 47.2455 165.66 47.76C166.013 48.1806 166.245 48.6902 166.329 49.2334C166.412 49.7765 166.345 50.3323 166.135 50.8399C165.924 51.3476 165.579 51.7877 165.135 52.1122C164.691 52.4367 164.167 52.6331 163.62 52.68V52.65Z" fill="#EDF2F8"/>
<path d="M3 66.99C2.23799 66.9793 1.50863 66.679 0.96 66.15C0.386932 65.6207 0.0425884 64.889 0 64.11C0.0101262 63.3625 0.298989 62.6457 0.81 62.1C1.36475 61.5856 2.0934 61.2997 2.85 61.2997C3.6066 61.2997 4.33525 61.5856 4.89 62.1C5.40101 62.6457 5.68987 63.3625 5.7 64.11C5.69738 64.868 5.408 65.5968 4.89 66.15C4.37949 66.6452 3.70965 66.9429 3 66.99V66.99Z" fill="#EDF2F8"/>
<path d="M146.13 64.11C146.13 63.3143 146.446 62.5513 147.009 61.9887C147.571 61.4261 148.334 61.11 149.13 61.11C149.926 61.11 150.689 61.4261 151.251 61.9887C151.814 62.5513 152.13 63.3143 152.13 64.11C152.13 64.9056 151.814 65.6687 151.251 66.2313C150.689 66.7939 149.926 67.11 149.13 67.11C148.334 67.11 147.571 66.7939 147.009 66.2313C146.446 65.6687 146.13 64.9056 146.13 64.11ZM131.52 64.11C131.52 63.3143 131.836 62.5513 132.399 61.9887C132.961 61.4261 133.724 61.11 134.52 61.11C135.316 61.11 136.079 61.4261 136.641 61.9887C137.204 62.5513 137.52 63.3143 137.52 64.11C137.52 64.9056 137.204 65.6687 136.641 66.2313C136.079 66.7939 135.316 67.11 134.52 67.11C133.724 67.11 132.961 66.7939 132.399 66.2313C131.836 65.6687 131.52 64.9056 131.52 64.11ZM116.91 64.11C116.91 63.3143 117.226 62.5513 117.789 61.9887C118.351 61.4261 119.114 61.11 119.91 61.11C120.706 61.11 121.469 61.4261 122.031 61.9887C122.594 62.5513 122.91 63.3143 122.91 64.11C122.91 64.9056 122.594 65.6687 122.031 66.2313C121.469 66.7939 120.706 67.11 119.91 67.11C119.13 67.0866 118.39 66.7602 117.847 66.2001C117.303 65.64 117 64.8903 117 64.11H116.91ZM102.3 64.11C102.3 63.3143 102.616 62.5513 103.179 61.9887C103.741 61.4261 104.504 61.11 105.3 61.11C106.096 61.11 106.859 61.4261 107.421 61.9887C107.984 62.5513 108.3 63.3143 108.3 64.11C108.3 64.9056 107.984 65.6687 107.421 66.2313C106.859 66.7939 106.096 67.11 105.3 67.11C104.504 67.11 103.741 66.7939 103.179 66.2313C102.616 65.6687 102.3 64.9056 102.3 64.11ZM87.69 64.11C87.69 63.3143 88.0061 62.5513 88.5687 61.9887C89.1313 61.4261 89.8943 61.11 90.69 61.11C91.4594 61.1485 92.1844 61.4815 92.715 62.04C93.2455 62.5985 93.541 63.3397 93.54 64.11C93.541 64.8803 93.2455 65.6215 92.715 66.18C92.1844 66.7385 91.4594 67.0715 90.69 67.11V67.11C90.296 67.11 89.9059 67.0324 89.5419 66.8816C89.178 66.7309 88.8472 66.5099 88.5687 66.2313C88.2901 65.9527 88.0691 65.622 87.9183 65.258C87.7676 64.8941 87.69 64.504 87.69 64.11V64.11ZM73.08 64.11C73.079 63.3397 73.3744 62.5985 73.905 62.04C74.4355 61.4815 75.1606 61.1485 75.93 61.11V61.11C76.7256 61.11 77.4887 61.4261 78.0513 61.9887C78.6139 62.5513 78.93 63.3143 78.93 64.11C78.93 64.9056 78.6139 65.6687 78.0513 66.2313C77.4887 66.7939 76.7256 67.11 75.93 67.11C75.1606 67.0715 74.4355 66.7385 73.905 66.18C73.3744 65.6215 73.079 64.8803 73.08 64.11V64.11ZM58.47 64.11C58.47 63.3143 58.7861 62.5513 59.3487 61.9887C59.9113 61.4261 60.6743 61.11 61.47 61.11C62.2656 61.11 63.0287 61.4261 63.5913 61.9887C64.1539 62.5513 64.47 63.3143 64.47 64.11C64.47 64.9056 64.1539 65.6687 63.5913 66.2313C63.0287 66.7939 62.2656 67.11 61.47 67.11C61.076 67.11 60.6859 67.0324 60.3219 66.8816C59.958 66.7309 59.6272 66.5099 59.3487 66.2313C59.0701 65.9527 58.8491 65.622 58.6983 65.258C58.5476 64.8941 58.47 64.504 58.47 64.11V64.11ZM43.86 64.11C43.86 63.3143 44.1761 62.5513 44.7387 61.9887C45.3013 61.4261 46.0643 61.11 46.86 61.11V61.11C47.6556 61.11 48.4187 61.4261 48.9813 61.9887C49.5439 62.5513 49.86 63.3143 49.86 64.11C49.86 64.9056 49.5439 65.6687 48.9813 66.2313C48.4187 66.7939 47.6556 67.11 46.86 67.11C46.466 67.11 46.0759 67.0324 45.7119 66.8816C45.348 66.7309 45.0172 66.5099 44.7387 66.2313C44.4601 65.9527 44.2391 65.622 44.0883 65.258C43.9376 64.8941 43.86 64.504 43.86 64.11V64.11ZM29.25 64.11C29.249 63.3397 29.5444 62.5985 30.075 62.04C30.6055 61.4815 31.3306 61.1485 32.1 61.11V61.11C32.8956 61.11 33.6587 61.4261 34.2213 61.9887C34.7839 62.5513 35.1 63.3143 35.1 64.11C35.1 64.9056 34.7839 65.6687 34.2213 66.2313C33.6587 66.7939 32.8956 67.11 32.1 67.11C31.3306 67.0715 30.6055 66.7385 30.075 66.18C29.5444 65.6215 29.249 64.8803 29.25 64.11V64.11ZM14.61 64.11C14.61 63.3143 14.9261 62.5513 15.4887 61.9887C16.0513 61.4261 16.8143 61.11 17.61 61.11C18.4056 61.11 19.1687 61.4261 19.7313 61.9887C20.2939 62.5513 20.61 63.3143 20.61 64.11C20.61 64.9056 20.2939 65.6687 19.7313 66.2313C19.1687 66.7939 18.4056 67.11 17.61 67.11C17.216 67.11 16.8259 67.0324 16.4619 66.8816C16.098 66.7309 15.7672 66.5099 15.4887 66.2313C15.2101 65.9527 14.9891 65.622 14.8383 65.258C14.6876 64.8941 14.61 64.504 14.61 64.11V64.11Z" fill="#EDF2F8"/>
<path d="M163.62 66.99C162.858 66.9793 162.128 66.679 161.58 66.15C161.051 65.6014 160.75 64.8721 160.74 64.11C160.758 63.3585 161.058 62.6411 161.58 62.1C162.134 61.5856 162.863 61.2997 163.62 61.2997C164.376 61.2997 165.105 61.5856 165.66 62.1C165.927 62.3616 166.14 62.6744 166.284 63.0197C166.428 63.365 166.502 63.7358 166.5 64.11C166.5 64.9057 166.184 65.6688 165.621 66.2314C165.058 66.794 164.295 67.11 163.5 67.11L163.62 66.99Z" fill="#EDF2F8"/>
<path d="M3 82.77C2.23799 82.7593 1.50863 82.459 0.96 81.93C0.393905 81.408 0.0501881 80.6884 0 79.92C0.0400846 79.1998 0.338293 78.5182 0.84 78C1.39475 77.4855 2.1234 77.1996 2.88 77.1996C3.6366 77.1996 4.36525 77.4855 4.92 78C5.44895 78.5486 5.74927 79.278 5.76 80.04C5.74175 80.7916 5.44196 81.5089 4.92 82.05C4.38444 82.5081 3.7047 82.763 3 82.77V82.77Z" fill="#EDF2F8"/>
<path d="M146.13 79.92C146.13 79.1244 146.446 78.3613 147.009 77.7987C147.571 77.2361 148.334 76.92 149.13 76.92C149.926 76.92 150.689 77.2361 151.251 77.7987C151.814 78.3613 152.13 79.1244 152.13 79.92C152.091 80.6894 151.758 81.4145 151.2 81.945C150.642 82.4756 149.9 82.771 149.13 82.77V82.77C148.36 82.771 147.618 82.4756 147.06 81.945C146.502 81.4145 146.169 80.6894 146.13 79.92ZM131.52 79.92C131.52 79.1244 131.836 78.3613 132.399 77.7987C132.961 77.2361 133.724 76.92 134.52 76.92C135.316 76.92 136.079 77.2361 136.641 77.7987C137.204 78.3613 137.52 79.1244 137.52 79.92C137.481 80.6894 137.148 81.4145 136.59 81.945C136.031 82.4756 135.29 82.771 134.52 82.77V82.77C133.75 82.771 133.008 82.4756 132.45 81.945C131.892 81.4145 131.559 80.6894 131.52 79.92ZM116.91 79.92C116.91 79.1244 117.226 78.3613 117.789 77.7987C118.351 77.2361 119.114 76.92 119.91 76.92C120.706 76.92 121.469 77.2361 122.031 77.7987C122.594 78.3613 122.91 79.1244 122.91 79.92C122.871 80.6894 122.538 81.4145 121.98 81.945C121.421 82.4756 120.68 82.771 119.91 82.77V82.77C119.155 82.7483 118.437 82.4429 117.897 81.9146C117.358 81.3863 117.037 80.6741 117 79.92H116.91ZM102.3 79.92C102.3 79.1244 102.616 78.3613 103.179 77.7987C103.741 77.2361 104.504 76.92 105.3 76.92C106.096 76.92 106.859 77.2361 107.421 77.7987C107.984 78.3613 108.3 79.1244 108.3 79.92C108.261 80.6894 107.928 81.4145 107.37 81.945C106.812 82.4756 106.07 82.771 105.3 82.77V82.77C104.53 82.771 103.788 82.4756 103.23 81.945C102.671 81.4145 102.338 80.6894 102.3 79.92ZM87.69 79.92C87.689 79.1497 87.9844 78.4085 88.515 77.85C89.0455 77.2916 89.7706 76.9586 90.54 76.92V76.92C91.3356 76.92 92.0987 77.2361 92.6613 77.7987C93.2239 78.3613 93.54 79.1244 93.54 79.92C93.5015 80.6894 93.1685 81.4145 92.61 81.945C92.0515 82.4756 91.3103 82.771 90.54 82.77V82.77C89.7959 82.7337 89.0919 82.4217 88.5651 81.8949C88.0383 81.3681 87.7263 80.6642 87.69 79.92V79.92ZM73.08 79.92C73.079 79.1497 73.3744 78.4085 73.905 77.85C74.4355 77.2916 75.1606 76.9586 75.93 76.92V76.92C76.7256 76.92 77.4887 77.2361 78.0513 77.7987C78.6139 78.3613 78.93 79.1244 78.93 79.92C78.8915 80.6894 78.5585 81.4145 78 81.945C77.4415 82.4756 76.7003 82.771 75.93 82.77V82.77C75.1859 82.7337 74.4819 82.4217 73.9551 81.8949C73.4283 81.3681 73.1164 80.6642 73.08 79.92V79.92ZM58.47 79.92C58.47 79.1244 58.7861 78.3613 59.3487 77.7987C59.9113 77.2361 60.6743 76.92 61.47 76.92C62.2656 76.92 63.0287 77.2361 63.5913 77.7987C64.1539 78.3613 64.47 79.1244 64.47 79.92C64.4315 80.6894 64.0985 81.4145 63.54 81.945C62.9815 82.4756 62.2403 82.771 61.47 82.77V82.77C60.6997 82.771 59.9585 82.4756 59.4 81.945C58.8415 81.4145 58.5085 80.6894 58.47 79.92V79.92ZM43.86 79.92C43.86 79.1244 44.1761 78.3613 44.7387 77.7987C45.3013 77.2361 46.0643 76.92 46.86 76.92V76.92C47.6556 76.92 48.4187 77.2361 48.9813 77.7987C49.5439 78.3613 49.86 79.1244 49.86 79.92C49.8215 80.6894 49.4885 81.4145 48.93 81.945C48.3715 82.4756 47.6303 82.771 46.86 82.77V82.77C46.0897 82.771 45.3485 82.4756 44.79 81.945C44.2315 81.4145 43.8985 80.6894 43.86 79.92V79.92ZM29.25 79.92C29.249 79.1497 29.5444 78.4085 30.075 77.85C30.6055 77.2916 31.3306 76.9586 32.1 76.92V76.92C32.8956 76.92 33.6587 77.2361 34.2213 77.7987C34.7839 78.3613 35.1 79.1244 35.1 79.92C35.0615 80.6894 34.7285 81.4145 34.17 81.945C33.6115 82.4756 32.8703 82.771 32.1 82.77V82.77C31.3559 82.7337 30.6519 82.4217 30.1251 81.8949C29.5983 81.3681 29.2863 80.6642 29.25 79.92V79.92ZM14.61 79.92C14.61 79.1244 14.9261 78.3613 15.4887 77.7987C16.0513 77.2361 16.8143 76.92 17.61 76.92C18.4056 76.92 19.1687 77.2361 19.7313 77.7987C20.2939 78.3613 20.61 79.1244 20.61 79.92C20.5715 80.6894 20.2385 81.4145 19.68 81.945C19.1215 82.4756 18.3803 82.771 17.61 82.77V82.77C16.8397 82.771 16.0985 82.4756 15.54 81.945C14.9815 81.4145 14.6485 80.6894 14.61 79.92V79.92Z" fill="#EDF2F8"/>
<path d="M163.62 82.77C163.245 82.774 162.872 82.703 162.525 82.5612C162.177 82.4194 161.861 82.2096 161.596 81.9442C161.33 81.6787 161.121 81.3629 160.979 81.0153C160.837 80.6677 160.766 80.2953 160.77 79.92C160.84 79.388 161.051 78.8844 161.381 78.4617C161.711 78.039 162.149 77.7126 162.648 77.5165C163.148 77.3204 163.691 77.2619 164.22 77.3469C164.75 77.4319 165.247 77.6574 165.66 78C166.189 78.5486 166.489 79.2779 166.5 80.04C166.502 80.4142 166.429 80.785 166.284 81.1303C166.14 81.4756 165.928 81.7884 165.66 82.05C165.093 82.5353 164.366 82.792 163.62 82.77Z" fill="#EDF2F8"/>
<path d="M3.00003 98.1C2.23802 98.0893 1.50866 97.7889 0.960032 97.26C0.445546 96.7052 0.159668 95.9766 0.159668 95.22C0.159668 94.4634 0.445546 93.7347 0.960032 93.18C1.51478 92.6655 2.24343 92.3796 3.00003 92.3796C3.75663 92.3796 4.48529 92.6655 5.04003 93.18C5.55452 93.7347 5.84039 94.4634 5.84039 95.22C5.84039 95.9766 5.55452 96.7052 5.04003 97.26C4.49141 97.7889 3.76204 98.0893 3.00003 98.1Z" fill="#EDF2F8"/>
<path d="M146.13 95.22C146.169 94.4507 146.502 93.7256 147.06 93.195C147.618 92.6645 148.36 92.3691 149.13 92.37C149.9 92.3691 150.642 92.6645 151.2 93.195C151.758 93.7256 152.091 94.4507 152.13 95.22C152.13 96.0157 151.814 96.7787 151.251 97.3413C150.689 97.9039 149.926 98.22 149.13 98.22C148.334 98.22 147.571 97.9039 147.009 97.3413C146.446 96.7787 146.13 96.0157 146.13 95.22V95.22ZM131.52 95.22C131.559 94.4507 131.892 93.7256 132.45 93.195C133.008 92.6645 133.75 92.3691 134.52 92.37C135.29 92.3691 136.031 92.6645 136.59 93.195C137.148 93.7256 137.481 94.4507 137.52 95.22C137.52 96.0157 137.204 96.7787 136.641 97.3413C136.079 97.9039 135.316 98.22 134.52 98.22C133.724 98.22 132.961 97.9039 132.399 97.3413C131.836 96.7787 131.52 96.0157 131.52 95.22ZM116.91 95.22C116.949 94.4507 117.281 93.7256 117.84 93.195C118.398 92.6645 119.14 92.3691 119.91 92.37C120.68 92.3691 121.421 92.6645 121.98 93.195C122.538 93.7256 122.871 94.4507 122.91 95.22C122.91 96.0157 122.594 96.7787 122.031 97.3413C121.469 97.9039 120.706 98.22 119.91 98.22C119.13 98.1966 118.39 97.8702 117.847 97.3101C117.303 96.75 117 96.0003 117 95.22H116.91ZM102.3 95.22C102.338 94.4507 102.671 93.7256 103.23 93.195C103.788 92.6645 104.53 92.3691 105.3 92.37C106.07 92.3691 106.812 92.6645 107.37 93.195C107.928 93.7256 108.261 94.4507 108.3 95.22C108.3 96.0157 107.984 96.7787 107.421 97.3413C106.859 97.9039 106.096 98.22 105.3 98.22C104.504 98.22 103.741 97.9039 103.179 97.3413C102.616 96.7787 102.3 96.0157 102.3 95.22ZM87.69 95.22C87.7263 94.4759 88.0383 93.7719 88.5651 93.2451C89.0919 92.7183 89.7959 92.4064 90.54 92.37V92.37C91.3103 92.3691 92.0515 92.6645 92.61 93.195C93.1685 93.7256 93.5015 94.4507 93.54 95.22V95.22C93.54 96.0157 93.2239 96.7787 92.6613 97.3413C92.0987 97.9039 91.3356 98.22 90.54 98.22C89.7706 98.1815 89.0455 97.8485 88.515 97.29C87.9844 96.7315 87.689 95.9903 87.69 95.22V95.22ZM73.08 95.22C73.1164 94.4759 73.4283 93.7719 73.9551 93.2451C74.4819 92.7183 75.1859 92.4064 75.93 92.37C76.7003 92.3691 77.4415 92.6645 78 93.195C78.5585 93.7256 78.8915 94.4507 78.93 95.22V95.22C78.93 96.0157 78.6139 96.7787 78.0513 97.3413C77.4887 97.9039 76.7256 98.22 75.93 98.22C75.1606 98.1815 74.4355 97.8485 73.905 97.29C73.3744 96.7315 73.079 95.9903 73.08 95.22V95.22ZM58.47 95.22C58.5085 94.4507 58.8415 93.7256 59.4 93.195C59.9585 92.6645 60.6997 92.3691 61.47 92.37C62.2403 92.3691 62.9815 92.6645 63.54 93.195C64.0985 93.7256 64.4315 94.4507 64.47 95.22V95.22C64.47 96.0157 64.1539 96.7787 63.5913 97.3413C63.0287 97.9039 62.2656 98.22 61.47 98.22C61.076 98.22 60.6859 98.1424 60.3219 97.9917C59.958 97.8409 59.6272 97.6199 59.3487 97.3413C59.0701 97.0628 58.8491 96.7321 58.6983 96.3681C58.5476 96.0041 58.47 95.614 58.47 95.22V95.22ZM43.86 95.22C43.8551 94.8315 43.9305 94.4462 44.0815 94.0882C44.2325 93.7303 44.4558 93.4074 44.7375 93.1398C45.0192 92.8722 45.3531 92.6657 45.7183 92.5332C46.0836 92.4007 46.4723 92.3452 46.86 92.37V92.37C47.6303 92.3691 48.3715 92.6645 48.93 93.195C49.4885 93.7256 49.8215 94.4507 49.86 95.22C49.86 96.0157 49.5439 96.7787 48.9813 97.3413C48.4187 97.9039 47.6556 98.22 46.86 98.22C46.466 98.22 46.0759 98.1424 45.7119 97.9917C45.348 97.8409 45.0172 97.6199 44.7387 97.3413C44.4601 97.0628 44.2391 96.7321 44.0883 96.3681C43.9376 96.0041 43.86 95.614 43.86 95.22V95.22ZM29.25 95.22C29.246 94.8446 29.3169 94.4722 29.4587 94.1246C29.6006 93.7771 29.8103 93.4613 30.0758 93.1958C30.3412 92.9304 30.657 92.7206 31.0046 92.5788C31.3522 92.437 31.7246 92.366 32.1 92.37V92.37C32.8703 92.3691 33.6115 92.6645 34.17 93.195C34.7285 93.7256 35.0615 94.4507 35.1 95.22V95.22C35.1 96.0157 34.7839 96.7787 34.2213 97.3413C33.6587 97.9039 32.8956 98.22 32.1 98.22C31.3306 98.1815 30.6055 97.8485 30.075 97.29C29.5444 96.7315 29.249 95.9903 29.25 95.22V95.22ZM14.61 95.22C14.6485 94.4507 14.9815 93.7256 15.54 93.195C16.0985 92.6645 16.8397 92.3691 17.61 92.37C18.3803 92.3691 19.1215 92.6645 19.68 93.195C20.2385 93.7256 20.5715 94.4507 20.61 95.22V95.22C20.61 96.0157 20.2939 96.7787 19.7313 97.3413C19.1687 97.9039 18.4056 98.22 17.61 98.22C16.8143 98.22 16.0513 97.9039 15.4887 97.3413C14.9261 96.7787 14.61 96.0157 14.61 95.22V95.22Z" fill="#EDF2F8"/>
<path d="M163.62 98.1C162.858 98.0893 162.128 97.7889 161.58 97.26C161.051 96.7114 160.75 95.982 160.74 95.22C160.75 94.458 161.051 93.7286 161.58 93.18C162.134 92.6655 162.863 92.3796 163.62 92.3796C164.376 92.3796 165.105 92.6655 165.66 93.18C166.189 93.7286 166.489 94.458 166.5 95.22C166.489 95.982 166.189 96.7114 165.66 97.26C165.111 97.7889 164.382 98.0893 163.62 98.1Z" fill="#EDF2F8"/>
<path d="M3 114C2.23799 113.989 1.50863 113.689 0.96 113.16C0.662049 112.884 0.423322 112.55 0.2583 112.179C0.0932785 111.807 0.00540163 111.406 0 111C0.0101262 110.253 0.298989 109.536 0.81 108.99C1.36475 108.476 2.0934 108.19 2.85 108.19C3.6066 108.19 4.33525 108.476 4.89 108.99C5.40101 109.536 5.68987 110.253 5.7 111C5.69738 111.758 5.408 112.487 4.89 113.04C4.39782 113.579 3.72583 113.921 3 114V114Z" fill="#EDF2F8"/>
<path d="M146.13 111C146.13 110.204 146.446 109.441 147.009 108.879C147.571 108.316 148.334 108 149.13 108C149.926 108 150.689 108.316 151.251 108.879C151.814 109.441 152.13 110.204 152.13 111C152.13 111.796 151.814 112.559 151.251 113.121C150.689 113.684 149.926 114 149.13 114C148.334 114 147.571 113.684 147.009 113.121C146.446 112.559 146.13 111.796 146.13 111ZM131.52 111C131.52 110.204 131.836 109.441 132.399 108.879C132.961 108.316 133.724 108 134.52 108C135.316 108 136.079 108.316 136.641 108.879C137.204 109.441 137.52 110.204 137.52 111C137.52 111.796 137.204 112.559 136.641 113.121C136.079 113.684 135.316 114 134.52 114C133.724 114 132.961 113.684 132.399 113.121C131.836 112.559 131.52 111.796 131.52 111ZM117 111C117 110.204 117.316 109.441 117.879 108.879C118.441 108.316 119.204 108 120 108C120.796 108 121.559 108.316 122.121 108.879C122.684 109.441 123 110.204 123 111C123 111.796 122.684 112.559 122.121 113.121C121.559 113.684 120.796 114 120 114C119.204 114 118.441 113.684 117.879 113.121C117.316 112.559 117 111.796 117 111ZM102.3 111C102.3 110.204 102.616 109.441 103.179 108.879C103.741 108.316 104.504 108 105.3 108C106.096 108 106.859 108.316 107.421 108.879C107.984 109.441 108.3 110.204 108.3 111C108.3 111.796 107.984 112.559 107.421 113.121C106.859 113.684 106.096 114 105.3 114C104.504 114 103.741 113.684 103.179 113.121C102.616 112.559 102.3 111.796 102.3 111ZM87.69 111C87.689 110.23 87.9844 109.488 88.515 108.93C89.0455 108.372 89.7706 108.039 90.54 108C91.3356 108 92.0987 108.316 92.6613 108.879C93.2239 109.441 93.54 110.204 93.54 111C93.54 111.796 93.2239 112.559 92.6613 113.121C92.0987 113.684 91.3356 114 90.54 114C89.7706 113.961 89.0455 113.628 88.515 113.07C87.9844 112.512 87.689 111.77 87.69 111V111ZM73.08 111C73.079 110.23 73.3744 109.488 73.905 108.93C74.4355 108.372 75.1606 108.039 75.93 108C76.7256 108 77.4887 108.316 78.0513 108.879C78.6139 109.441 78.93 110.204 78.93 111C78.93 111.796 78.6139 112.559 78.0513 113.121C77.4887 113.684 76.7256 114 75.93 114C75.1606 113.961 74.4355 113.628 73.905 113.07C73.3744 112.512 73.079 111.77 73.08 111ZM58.47 111C58.47 110.204 58.7861 109.441 59.3487 108.879C59.9113 108.316 60.6743 108 61.47 108C62.2656 108 63.0287 108.316 63.5913 108.879C64.1539 109.441 64.47 110.204 64.47 111C64.47 111.796 64.1539 112.559 63.5913 113.121C63.0287 113.684 62.2656 114 61.47 114C60.6743 114 59.9113 113.684 59.3487 113.121C58.7861 112.559 58.47 111.796 58.47 111ZM43.86 111C43.86 110.204 44.1761 109.441 44.7387 108.879C45.3013 108.316 46.0643 108 46.86 108V108C47.6556 108 48.4187 108.316 48.9813 108.879C49.5439 109.441 49.86 110.204 49.86 111C49.86 111.796 49.5439 112.559 48.9813 113.121C48.4187 113.684 47.6556 114 46.86 114C46.0643 114 45.3013 113.684 44.7387 113.121C44.1761 112.559 43.86 111.796 43.86 111ZM29.25 111C29.249 110.23 29.5444 109.488 30.075 108.93C30.6055 108.372 31.3306 108.039 32.1 108C32.8956 108 33.6587 108.316 34.2213 108.879C34.7839 109.441 35.1 110.204 35.1 111C35.1 111.796 34.7839 112.559 34.2213 113.121C33.6587 113.684 32.8956 114 32.1 114C31.3306 113.961 30.6055 113.628 30.075 113.07C29.5444 112.512 29.249 111.77 29.25 111ZM14.61 111C14.61 110.204 14.9261 109.441 15.4887 108.879C16.0513 108.316 16.8143 108 17.61 108C18.4056 108 19.1687 108.316 19.7313 108.879C20.2939 109.441 20.61 110.204 20.61 111C20.61 111.796 20.2939 112.559 19.7313 113.121C19.1687 113.684 18.4056 114 17.61 114C16.8143 114 16.0513 113.684 15.4887 113.121C14.9261 112.559 14.61 111.796 14.61 111Z" fill="#EDF2F8"/>
<path d="M163.62 114C162.858 113.989 162.128 113.689 161.58 113.16C161.051 112.611 160.75 111.882 160.74 111.12C160.792 110.575 160.991 110.055 161.318 109.615C161.644 109.176 162.085 108.834 162.592 108.627C163.099 108.42 163.652 108.355 164.193 108.44C164.734 108.526 165.241 108.757 165.66 109.11C166.182 109.651 166.481 110.369 166.5 111.12C166.489 111.882 166.189 112.611 165.66 113.16C165.111 113.689 164.382 113.989 163.62 114V114Z" fill="#EDF2F8"/>
</svg>
