<svg width="205" height="36" viewBox="0 0 205 36" fill="none" xmlns="http://www.w3.org/2000/svg">
<path d="M194.8 4.79663C194.8 3.52906 195.302 2.31302 196.196 1.41432C197.09 0.515622 198.303 0.00735314 199.571 0.000610715C200.838 0.000592783 202.054 0.502383 202.953 1.3963C203.852 2.29022 204.36 3.50356 204.367 4.77112C204.367 6.04311 203.861 7.26299 202.962 8.16242C202.063 9.06185 200.843 9.56715 199.571 9.56715C198.306 9.56715 197.092 9.06454 196.197 8.16989C195.303 7.27525 194.8 6.06185 194.8 4.79663ZM170.463 4.79663C170.46 4.16802 170.581 3.54494 170.819 2.9632C171.057 2.38147 171.408 1.85256 171.851 1.40687C172.294 0.96118 172.822 0.607504 173.402 0.366169C173.982 0.124835 174.605 0.000601727 175.233 0.000610715C176.501 0.00735314 177.714 0.515622 178.608 1.41432C179.502 2.31302 180.004 3.52906 180.004 4.79663C180.004 6.06185 179.501 7.27525 178.607 8.16989C177.712 9.06454 176.499 9.56715 175.233 9.56715C174.606 9.57053 173.984 9.44944 173.404 9.2109C172.824 8.97236 172.296 8.62109 171.853 8.17744C171.409 7.73378 171.058 7.20654 170.819 6.62622C170.581 6.04591 170.46 5.42405 170.463 4.79663ZM146.1 4.79663C146.1 3.52465 146.605 2.30476 147.505 1.40533C148.404 0.505904 149.624 0.000610715 150.896 0.000610715C152.155 0.0206985 153.355 0.534847 154.238 1.43211C155.121 2.32937 155.616 3.5378 155.616 4.79663C155.616 6.06185 155.113 7.27525 154.218 8.16989C153.324 9.06454 152.11 9.56715 150.845 9.56715C149.584 9.5604 148.378 9.05482 147.488 8.16091C146.599 7.26699 146.1 6.05744 146.1 4.79663ZM121.763 4.79663C121.76 4.17016 121.88 3.54916 122.116 2.96909C122.353 2.38901 122.701 1.86123 123.142 1.41588C123.583 0.970527 124.107 0.616321 124.684 0.373489C125.262 0.130656 125.881 0.00395189 126.508 0.000610715C127.782 0.000592878 129.005 0.505071 129.908 1.40377C130.812 2.30248 131.323 3.52231 131.329 4.79663C131.326 5.42646 131.199 6.04946 130.955 6.63006C130.711 7.21066 130.354 7.7375 129.907 8.18048C129.459 8.62347 128.928 8.97393 128.345 9.21185C127.762 9.44978 127.138 9.5705 126.508 9.56715C125.247 9.5604 124.04 9.05482 123.151 8.16091C122.262 7.26699 121.763 6.05744 121.763 4.79663ZM97.3746 4.79663C97.3746 4.16681 97.4987 3.54316 97.7397 2.96127C97.9807 2.37939 98.334 1.85069 98.7794 1.40533C99.2247 0.959981 99.7534 0.606709 100.335 0.365686C100.917 0.124664 101.541 0.000610715 102.171 0.000610715C102.799 0.000601727 103.422 0.124835 104.002 0.366169C104.583 0.607504 105.11 0.96118 105.553 1.40687C105.996 1.85256 106.347 2.38147 106.585 2.9632C106.824 3.54494 106.945 4.16802 106.941 4.79663C106.941 6.06185 106.439 7.27525 105.544 8.16989C104.649 9.06454 103.436 9.56715 102.171 9.56715C100.903 9.56716 99.687 9.06537 98.7883 8.17145C97.8896 7.27754 97.3814 6.06419 97.3746 4.79663ZM73.0374 4.79663C73.0374 3.52906 73.5391 2.31302 74.4331 1.41432C75.327 0.515622 76.5403 0.00735314 77.8079 0.000610715C78.4387 -0.00277149 79.0638 0.118972 79.6472 0.358797C80.2306 0.598622 80.7607 0.951766 81.2067 1.39779C81.6528 1.84382 82.0059 2.37387 82.2457 2.95728C82.4855 3.54069 82.6073 4.16586 82.6039 4.79663C82.6039 5.42526 82.4797 6.04769 82.2383 6.62814C81.997 7.20859 81.6433 7.73563 81.1976 8.17895C80.752 8.62226 80.223 8.97312 79.6413 9.21136C79.0596 9.4496 78.4365 9.57051 77.8079 9.56715C76.5427 9.56715 75.3293 9.06454 74.4346 8.16989C73.54 7.27525 73.0374 6.06185 73.0374 4.79663ZM48.7001 4.79663C48.7 4.16032 48.8266 3.53035 49.0724 2.94342C49.3182 2.3565 49.6783 1.82435 50.1318 1.37799C50.5853 0.931619 51.1231 0.579956 51.7138 0.343484C52.3045 0.107011 52.9364 -0.00954325 53.5727 0.000610715C54.8446 0.000610715 56.0645 0.505904 56.964 1.40533C57.8634 2.30476 58.3687 3.52465 58.3687 4.79663C58.3619 6.06419 57.8537 7.27754 56.955 8.17145C56.0563 9.06537 54.8402 9.56716 53.5727 9.56715C52.9377 9.58073 52.3063 9.46737 51.7157 9.23372C51.1251 9.00007 50.5871 8.65083 50.1332 8.20649C49.6794 7.76215 49.3188 7.23165 49.0728 6.64611C48.8267 6.06057 48.7 5.43179 48.7001 4.79663ZM24.3373 4.79663C24.3373 4.16681 24.4614 3.54316 24.7024 2.96127C24.9434 2.37939 25.2967 1.85069 25.7421 1.40533C26.1874 0.959981 26.7161 0.606709 27.298 0.365686C27.8799 0.124664 28.5035 0.000610715 29.1334 0.000610715C30.4009 0.00735314 31.6143 0.515622 32.5082 1.41432C33.4021 2.31302 33.9039 3.52906 33.9039 4.79663C33.9039 5.42311 33.7805 6.04344 33.5407 6.62223C33.301 7.20101 32.9496 7.72691 32.5066 8.16989C32.0636 8.61288 31.5377 8.96427 30.959 9.20401C30.3802 9.44375 29.7598 9.56715 29.1334 9.56715C27.8658 9.56716 26.6497 9.06537 25.751 8.17145C24.8523 7.27754 24.3441 6.06419 24.3373 4.79663ZM6.85843e-05 4.79663C-0.00331362 4.16586 0.11843 3.54069 0.358255 2.95728C0.59808 2.37387 0.951224 1.84382 1.39725 1.39779C1.84328 0.951766 2.37333 0.598622 2.95674 0.358797C3.54015 0.118972 4.16532 -0.00277149 4.79609 0.000610715C6.06365 0.00735314 7.27699 0.515622 8.17091 1.41432C9.06483 2.31302 9.56662 3.52906 9.5666 4.79663C9.55986 6.06419 9.05159 7.27754 8.15289 8.17145C7.25419 9.06537 6.03816 9.56716 4.77058 9.56715C3.50536 9.56715 2.29196 9.06454 1.39732 8.16989C0.502675 7.27525 6.85843e-05 6.06185 6.85843e-05 4.79663Z" fill="#F39C12"/>
<path d="M194.8 31.1238C194.8 29.8562 195.302 28.6402 196.196 27.7415C197.09 26.8428 198.303 26.3345 199.571 26.3278C200.843 26.3278 202.063 26.833 202.962 27.7325C203.861 28.6319 204.367 29.8518 204.367 31.1238C204.36 32.3913 203.852 33.6047 202.953 34.4986C202.054 35.3925 200.838 35.8943 199.571 35.8943C198.306 35.8943 197.092 35.3917 196.197 34.497C195.303 33.6024 194.8 32.389 194.8 31.1238ZM170.463 31.1238C170.456 30.4954 170.575 29.872 170.812 29.2901C171.05 28.7083 171.401 28.1796 171.845 27.7353C172.289 27.2909 172.818 26.9398 173.4 26.7025C173.982 26.4652 174.605 26.3464 175.233 26.3533C175.861 26.3499 176.483 26.471 177.063 26.7095C177.643 26.9481 178.171 27.2993 178.614 27.743C179.058 28.1866 179.409 28.7139 179.648 29.2942C179.886 29.8745 180.007 30.4964 180.004 31.1238C180.004 32.389 179.501 33.6024 178.607 34.497C177.712 35.3917 176.499 35.8943 175.233 35.8943C174.607 35.8943 173.987 35.7709 173.408 35.5312C172.829 35.2914 172.303 34.94 171.86 34.497C171.417 34.0541 171.066 33.5282 170.826 32.9494C170.586 32.3706 170.463 31.7502 170.463 31.1238ZM146.1 31.1238C146.1 29.8518 146.605 28.6319 147.505 27.7325C148.404 26.833 149.624 26.3278 150.896 26.3278C152.155 26.3478 153.355 26.862 154.238 27.7592C155.121 28.6565 155.616 29.8649 155.616 31.1238C155.616 32.389 155.113 33.6024 154.218 34.497C153.324 35.3917 152.11 35.8943 150.845 35.8943C149.586 35.8809 148.383 35.3732 147.496 34.4807C146.608 33.5883 146.107 32.3825 146.1 31.1238ZM121.763 31.1238C121.756 30.4976 121.874 29.8763 122.11 29.2961C122.346 28.7159 122.694 28.1885 123.136 27.7445C123.578 27.3005 124.103 26.9488 124.682 26.7099C125.261 26.4711 125.882 26.3498 126.508 26.3533C127.138 26.343 127.765 26.4592 128.349 26.695C128.934 26.9308 129.466 27.2814 129.913 27.7261C130.36 28.1708 130.714 28.7005 130.952 29.2841C131.191 29.8677 131.311 30.4932 131.304 31.1238C131.297 32.3913 130.789 33.6047 129.89 34.4986C128.992 35.3925 127.775 35.8943 126.508 35.8943C125.247 35.8875 124.04 35.382 123.151 34.4881C122.262 33.5941 121.763 32.3846 121.763 31.1238ZM97.3746 31.1238C97.3814 29.8562 97.8896 28.6429 98.7883 27.749C99.687 26.855 100.903 26.3532 102.171 26.3533C102.799 26.3464 103.422 26.4652 104.004 26.7025C104.586 26.9398 105.115 27.2909 105.559 27.7353C106.003 28.1796 106.355 28.7083 106.592 29.2901C106.829 29.872 106.948 30.4954 106.941 31.1238C106.941 32.389 106.439 33.6024 105.544 34.497C104.649 35.3917 103.436 35.8943 102.171 35.8943C100.903 35.8943 99.687 35.3925 98.7883 34.4986C97.8896 33.6047 97.3814 32.3913 97.3746 31.1238ZM73.0374 31.1238C73.0374 29.8562 73.5391 28.6402 74.4331 27.7415C75.327 26.8428 76.5403 26.3345 77.8079 26.3278C79.0799 26.3278 80.2998 26.833 81.1992 27.7325C82.0986 28.6319 82.6039 29.8518 82.6039 31.1238C82.5972 32.3937 82.0898 33.6097 81.1918 34.5077C80.2938 35.4057 79.0778 35.9131 77.8079 35.9198C76.5424 35.9064 75.3329 35.396 74.4404 34.4988C73.5479 33.6015 73.044 32.3893 73.0374 31.1238ZM48.7001 31.1238C48.6966 30.4865 48.8207 29.8549 49.0653 29.2664C49.3099 28.6779 49.6699 28.1444 50.1241 27.6973C50.5783 27.2503 51.1175 26.8987 51.7098 26.6635C52.3021 26.4283 52.9355 26.3141 53.5727 26.3278C54.8446 26.3278 56.0645 26.833 56.964 27.7325C57.8634 28.6319 58.3687 29.8518 58.3687 31.1238C58.3619 32.3913 57.8537 33.6047 56.955 34.4986C56.0563 35.3925 54.8402 35.8943 53.5727 35.8943C52.9377 35.9079 52.3063 35.7945 51.7157 35.5609C51.1251 35.3272 50.5871 34.978 50.1332 34.5336C49.6794 34.0893 49.3188 33.5588 49.0728 32.9733C48.8267 32.3877 48.7 31.7589 48.7001 31.1238ZM24.3373 31.1238C24.334 30.493 24.4557 29.8678 24.6955 29.2844C24.9353 28.701 25.2885 28.171 25.7345 27.7249C26.1805 27.2789 26.7106 26.9258 27.294 26.6859C27.8774 26.4461 28.5026 26.3244 29.1334 26.3278C30.4009 26.3345 31.6143 26.8428 32.5082 27.7415C33.4021 28.6402 33.9039 29.8562 33.9039 31.1238C33.9039 31.7502 33.7805 32.3706 33.5407 32.9494C33.301 33.5282 32.9496 34.0541 32.5066 34.497C32.0636 34.94 31.5377 35.2914 30.959 35.5312C30.3802 35.7709 29.7598 35.8943 29.1334 35.8943C28.5047 35.8977 27.8817 35.7767 27.2999 35.5385C26.7182 35.3003 26.1893 34.9494 25.7436 34.5061C25.2979 34.0628 24.9442 33.5357 24.7029 32.9553C24.4616 32.3748 24.3373 31.7524 24.3373 31.1238ZM6.82169e-05 31.1238C-0.00329341 30.4952 0.117618 29.8721 0.355854 29.2903C0.594089 28.7086 0.944949 28.1797 1.38827 27.734C1.83159 27.2883 2.35862 26.9346 2.93907 26.6933C3.51953 26.452 4.14196 26.3277 4.77058 26.3278C6.04256 26.3278 7.26245 26.833 8.16188 27.7325C9.06131 28.6319 9.5666 29.8518 9.5666 31.1238C9.56661 31.7524 9.44238 32.3748 9.20104 32.9553C8.95971 33.5357 8.60603 34.0628 8.16035 34.5061C7.71466 34.9494 7.18574 35.3003 6.60401 35.5385C6.02228 35.7767 5.3992 35.8977 4.77058 35.8943C3.50536 35.8943 2.29196 35.3917 1.39732 34.497C0.502674 33.6024 6.82169e-05 32.389 6.82169e-05 31.1238Z" fill="#F39C12"/>
</svg>
