<svg width="157" height="132" viewBox="0 0 157 132" fill="none" xmlns="http://www.w3.org/2000/svg">
<path d="M65.6883 90.3915C65.5267 91.1001 65.0726 91.6969 64.4259 92.0506C63.7792 92.4043 62.9928 92.4859 62.2398 92.2775C61.4868 92.0691 60.8287 91.5877 60.4105 90.9393C59.9923 90.2909 59.8481 89.5285 60.0096 88.8199C60.1712 88.1113 60.6253 87.5145 61.272 87.1608C61.9187 86.8071 62.7051 86.7255 63.4581 86.934C64.2111 87.1424 64.8692 87.6237 65.2874 88.2721C65.7056 88.9206 65.8498 89.6829 65.6883 90.3915ZM80.5664 94.5092C80.4048 95.2178 79.9508 95.8146 79.304 96.1683C78.6573 96.522 77.8709 96.6036 77.1179 96.3952C76.3649 96.1867 75.7069 95.7054 75.2886 95.057C74.8704 94.4085 74.7262 93.6462 74.8877 92.9376C75.0493 92.229 75.5034 91.6322 76.1501 91.2785C76.7968 90.9248 77.5832 90.8432 78.3362 91.0516C78.7218 91.143 79.09 91.3071 79.4185 91.5339C79.7471 91.7607 80.0293 92.0456 80.2482 92.3714C80.4671 92.6973 80.6182 93.0575 80.6924 93.4302C80.7666 93.803 80.7624 94.1807 80.68 94.5406L80.5664 94.5092Z" fill="#F39C12"/>
<path d="M55.2869 70.5932C55.1295 71.3029 54.6816 71.9031 54.0418 72.2616C53.402 72.6201 52.6227 72.7077 51.8752 72.5049C51.1278 72.3022 50.4735 71.8258 50.0563 71.1806C49.6391 70.5354 49.4931 69.7741 49.6505 69.0644C49.8079 68.3546 50.2558 67.7544 50.8956 67.3959C51.5354 67.0374 52.3148 66.9499 53.0622 67.1526C53.8096 67.3553 54.4639 67.8317 54.8811 68.4769C55.2984 69.1222 55.4443 69.8834 55.2869 70.5932ZM70.0824 74.6063C69.925 75.316 69.4772 75.9162 68.8374 76.2747C68.1975 76.6333 67.4182 76.7208 66.6708 76.518C65.9233 76.3153 65.269 75.8389 64.8518 75.1937C64.4346 74.5485 64.2887 73.7872 64.4461 73.0775C64.6035 72.3677 65.0513 71.7675 65.6911 71.409C66.331 71.0505 67.1103 70.963 67.8577 71.1657C68.5793 71.3907 69.2023 71.8715 69.596 72.5072C69.9898 73.143 70.1237 73.8843 69.9697 74.5757L70.0824 74.6063ZM84.8498 78.6117C84.6924 79.3215 84.2445 79.9217 83.6047 80.2802C82.9649 80.6387 82.1855 80.7262 81.4381 80.5235C80.6907 80.3208 80.0364 79.8444 79.6192 79.1992C79.202 78.5539 79.056 77.7927 79.2134 77.0829C79.3708 76.3732 79.8187 75.773 80.4585 75.4145C81.0983 75.056 81.8777 74.9684 82.6251 75.1712C83.3725 75.3739 84.0268 75.8503 84.444 76.4955C84.8612 77.1407 85.0072 77.902 84.8498 78.6117ZM99.6453 82.6249C99.4879 83.3346 99.04 83.9348 98.4002 84.2933C97.7604 84.6518 96.9811 84.7394 96.2336 84.5366C95.4862 84.3339 94.8319 83.8575 94.4147 83.2123C93.9975 82.567 93.8515 81.8058 94.0089 81.096C94.1663 80.3863 94.6142 79.7861 95.254 79.4276C95.8938 79.0691 96.6732 78.9815 97.4206 79.1843C98.168 79.387 98.8223 79.8634 99.2395 80.5086C99.6568 81.1539 99.8027 81.9151 99.6453 82.6249Z" fill="#F39C12"/>
<path d="M44.7137 51.2874C44.5579 52.0007 44.1122 52.605 43.4747 52.9672C42.8371 53.3294 42.06 53.4199 41.3142 53.2188C40.5684 53.0177 39.915 52.5415 39.4978 51.8949C39.0806 51.2483 38.9338 50.4843 39.0896 49.7709C39.2454 49.0576 39.6911 48.4534 40.3287 48.0912C40.9662 47.7289 41.7434 47.6384 42.4892 47.8395C43.235 48.0406 43.8883 48.5169 44.3055 49.1635C44.7227 49.8101 44.8695 50.5741 44.7137 51.2874ZM59.4489 55.2606C59.2931 55.9739 58.8473 56.5782 58.2098 56.9404C57.5723 57.3026 56.7951 57.3931 56.0493 57.192C55.3035 56.9909 54.6501 56.5146 54.233 55.868C53.8158 55.2214 53.6689 54.4574 53.8248 53.7441C53.9806 53.0308 54.4263 52.4265 55.0638 52.0643C55.7014 51.7021 56.4785 51.6116 57.2243 51.8127C57.9701 52.0138 58.6235 52.4901 59.0407 53.1367C59.4579 53.7833 59.6047 54.5473 59.4489 55.2606ZM74.2121 59.2414C74.0563 59.9547 73.6106 60.5589 72.9731 60.9211C72.3355 61.2833 71.5584 61.3739 70.8126 61.1728C70.0668 60.9717 69.4134 60.4954 68.9962 59.8488C68.5791 59.2022 68.4322 58.4382 68.588 57.7249C68.7439 57.0116 69.1896 56.4073 69.8271 56.0451C70.4646 55.6829 71.2418 55.5924 71.9876 55.7935C72.7077 56.0171 73.3298 56.4979 73.7235 57.135C74.1173 57.7721 74.2521 58.5161 74.0997 59.211L74.2121 59.2414ZM88.9473 63.2146C88.7915 63.9279 88.3458 64.5321 87.7082 64.8943C87.0707 65.2565 86.2935 65.347 85.5477 65.1459C84.8019 64.9448 84.1486 64.4686 83.7314 63.822C83.3142 63.1754 83.1674 62.4114 83.3232 61.6981C83.479 60.9847 83.9247 60.3805 84.5623 60.0183C85.1998 59.6561 85.977 59.5656 86.7228 59.7667C87.4686 59.9678 88.1219 60.444 88.5391 61.0906C88.9563 61.7372 89.1031 62.5012 88.9473 63.2146ZM103.711 67.1953C103.555 67.9087 103.109 68.5129 102.472 68.8751C101.834 69.2373 101.057 69.3278 100.311 69.1267C99.5652 68.9256 98.9118 68.4494 98.4947 67.8028C98.0775 67.1562 97.9306 66.3922 98.0865 65.6789C98.2423 64.9655 98.688 64.3613 99.3255 63.9991C99.9631 63.6369 100.74 63.5464 101.486 63.7475C102.232 63.9486 102.885 64.4248 103.302 65.0714C103.72 65.718 103.866 66.482 103.711 67.1953ZM118.446 71.1685C118.29 71.8819 117.844 72.4861 117.207 72.8483C116.569 73.2105 115.792 73.301 115.046 73.0999C114.3 72.8988 113.647 72.4226 113.23 71.776C112.813 71.1294 112.666 70.3654 112.822 69.6521C112.977 68.9387 113.423 68.3345 114.061 67.9723C114.698 67.6101 115.475 67.5196 116.221 67.7207C116.967 67.9218 117.62 68.398 118.038 69.0446C118.455 69.6912 118.602 70.4552 118.446 71.1685Z" fill="#F39C12"/>
<path d="M34.2847 31.4816C34.1297 32.1977 33.6852 32.8048 33.0488 33.1695C32.4124 33.5341 31.6363 33.6264 30.8913 33.426C30.1463 33.2256 29.4933 32.749 29.0761 32.1009C28.6589 31.4529 28.5116 30.6865 28.6665 29.9705C28.8215 29.2544 29.2661 28.6473 29.9025 28.2826C30.5389 27.918 31.3149 27.8257 32.0599 28.0261C32.805 28.2265 33.4579 28.7031 33.8751 29.3512C34.2923 29.9992 34.4397 30.7655 34.2847 31.4816ZM49.0043 35.4409C48.8494 36.1569 48.4048 36.7641 47.7684 37.1287C47.132 37.4934 46.3559 37.5856 45.6109 37.3852C44.8659 37.1848 44.213 36.7082 43.7957 36.0602C43.3785 35.4121 43.2312 34.6458 43.3862 33.9297C43.5411 33.2136 43.9857 32.6065 44.6221 32.2419C45.2585 31.8772 46.0345 31.7849 46.7796 31.9853C47.5246 32.1857 48.1775 32.6624 48.5947 33.3104C49.012 33.9584 49.1593 34.7248 49.0043 35.4409ZM63.724 39.4001C63.569 40.1162 63.1244 40.7233 62.488 41.088C61.8516 41.4526 61.0756 41.5449 60.3305 41.3445C59.5855 41.1441 58.9326 40.6674 58.5154 40.0194C58.0981 39.3714 57.9508 38.605 58.1058 37.8889C58.2607 37.1729 58.7053 36.5657 59.3417 36.2011C59.9781 35.8365 60.7542 35.7442 61.4992 35.9446C62.2442 36.145 62.8971 36.6216 63.3144 37.2697C63.7316 37.9177 63.8789 38.684 63.724 39.4001ZM78.4717 43.3669C78.3167 44.083 77.8721 44.6901 77.2357 45.0548C76.5993 45.4194 75.8233 45.5117 75.0783 45.3113C74.3332 45.1109 73.6803 44.6342 73.2631 43.9862C72.8458 43.3382 72.6985 42.5718 72.8535 41.8557C73.0085 41.1397 73.453 40.5325 74.0894 40.1679C74.7258 39.8033 75.5019 39.711 76.2469 39.9114C76.9662 40.1344 77.588 40.6156 77.9818 41.2542C78.3756 41.8928 78.5109 42.6391 78.3593 43.3367L78.4717 43.3669ZM93.2194 47.3337C93.0644 48.0498 92.6198 48.6569 91.9834 49.0216C91.347 49.3862 90.571 49.4785 89.826 49.2781C89.081 49.0777 88.428 48.601 88.0108 47.953C87.5936 47.305 87.4462 46.5386 87.6012 45.8225C87.7562 45.1065 88.2008 44.4993 88.8371 44.1347C89.4735 43.7701 90.2496 43.6778 90.9946 43.8782C91.7396 44.0786 92.3926 44.5552 92.8098 45.2033C93.227 45.8513 93.3743 46.6176 93.2194 47.3337ZM107.939 51.293C107.784 52.009 107.339 52.6162 106.703 52.9808C106.067 53.3454 105.291 53.4377 104.546 53.2373C103.801 53.0369 103.148 52.5603 102.73 51.9122C102.313 51.2642 102.166 50.4979 102.321 49.7818C102.476 49.0657 102.92 48.4586 103.557 48.0939C104.193 47.7293 104.969 47.637 105.714 47.8374C106.459 48.0378 107.112 48.5145 107.529 49.1625C107.947 49.8105 108.094 50.5769 107.939 51.293ZM122.659 55.2522C122.504 55.9683 122.059 56.5754 121.423 56.94C120.786 57.3047 120.01 57.397 119.265 57.1966C118.52 56.9962 117.867 56.5195 117.45 55.8715C117.033 55.2235 116.885 54.4571 117.04 53.741C117.195 53.025 117.64 52.4178 118.276 52.0532C118.913 51.6885 119.689 51.5963 120.434 51.7967C121.179 51.9971 121.832 52.4737 122.249 53.1217C122.666 53.7698 122.814 54.5361 122.659 55.2522ZM137.406 59.219C137.251 59.9351 136.807 60.5422 136.17 60.9068C135.534 61.2715 134.758 61.3638 134.013 61.1634C133.268 60.963 132.615 60.4863 132.198 59.8383C131.781 59.1903 131.633 58.4239 131.788 57.7078C131.943 56.9918 132.388 56.3846 133.024 56.02C133.66 55.6553 134.437 55.5631 135.182 55.7635C135.914 55.9754 136.551 56.4544 136.956 57.0976C137.362 57.7409 137.503 58.4971 137.35 59.2039L137.406 59.219Z" fill="#F39C12"/>
<path d="M23.4638 13.04C23.3093 13.7581 22.8654 14.3673 22.2297 14.7337C21.5941 15.1 20.8186 15.1934 20.0741 14.9934L19.9057 14.9482C19.1611 14.7481 18.5084 14.2711 18.0911 13.6219C17.6739 12.9726 17.5262 12.2045 17.6807 11.4864C17.8351 10.7683 18.279 10.1591 18.9147 9.79273C19.5504 9.42639 20.3258 9.33296 21.0703 9.53298C21.4577 9.61357 21.8294 9.77014 22.1626 9.99304C22.4957 10.2159 22.7833 10.5004 23.0075 10.829C23.2318 11.1575 23.3879 11.5232 23.4664 11.9035C23.5449 12.2837 23.544 12.6705 23.4638 13.04ZM38.2023 16.9994C38.0478 17.7175 37.604 18.3267 36.9683 18.6931C36.3326 19.0594 35.5572 19.1528 34.8126 18.9528C34.0681 18.7528 33.4154 18.2757 32.9981 17.6265C32.5808 16.9773 32.4332 16.2092 32.5876 15.4911C32.7421 14.773 33.186 14.1637 33.8216 13.7974C34.4573 13.431 35.2327 13.3376 35.9773 13.5376C36.7218 13.7376 37.3745 14.2147 37.7918 14.8639C38.2091 15.5132 38.3567 16.2813 38.2023 16.9994ZM52.9127 20.9513C52.7583 21.6694 52.3144 22.2786 51.6787 22.6449C51.043 23.0113 50.2676 23.1047 49.5231 22.9047C48.7785 22.7047 48.1258 22.2276 47.7085 21.5784C47.2913 20.9292 47.1436 20.161 47.2981 19.4429C47.4525 18.7248 47.8964 18.1156 48.5321 17.7492C49.1678 17.3829 49.9432 17.2895 50.6877 17.4895C51.4323 17.6895 52.085 18.1666 52.5023 18.8158C52.9195 19.465 53.0672 20.2332 52.9127 20.9513ZM67.6232 24.9031C67.4688 25.6212 67.0249 26.2304 66.3892 26.5968C65.7535 26.9631 64.9781 27.0566 64.2335 26.8565C63.489 26.6565 62.8363 26.1794 62.419 25.5302C62.0017 24.881 61.8541 24.1129 62.0085 23.3948C62.163 22.6767 62.6069 22.0674 63.2425 21.7011C63.8782 21.3348 64.6536 21.2413 65.3982 21.4413C66.1428 21.6414 66.7955 22.1185 67.2127 22.7677C67.63 23.4169 67.7776 24.185 67.6232 24.9031ZM82.2494 28.8323C82.095 29.5504 81.6511 30.1597 81.0154 30.526C80.3797 30.8924 79.6043 30.9858 78.8598 30.7858C78.1152 30.5858 77.4625 30.1087 77.0452 29.4595C76.628 28.8102 76.4803 28.0421 76.6348 27.324C76.7892 26.6059 77.2331 25.9967 77.8688 25.6303C78.5045 25.264 79.2799 25.1706 80.0244 25.3706C80.769 25.5706 81.4217 26.0477 81.839 26.6969C82.2562 27.3461 82.4039 28.1142 82.2494 28.8323ZM96.9599 32.7842C96.8054 33.5023 96.3615 34.1115 95.7259 34.4779C95.0902 34.8442 94.3148 34.9376 93.5702 34.7376C92.8257 34.5376 92.173 34.0605 91.7557 33.4113C91.3384 32.7621 91.1908 31.994 91.3452 31.2759C91.4997 30.5578 91.9435 29.9485 92.5792 29.5822C93.2149 29.2159 93.9903 29.1224 94.7349 29.3224C95.116 29.4094 95.4805 29.57 95.8063 29.7945C96.1321 30.019 96.4126 30.3029 96.6309 30.629C96.8492 30.9552 97.0008 31.3169 97.0766 31.6924C97.1525 32.068 97.151 32.4496 97.0722 32.8144L96.9599 32.7842ZM111.698 36.7436C111.544 37.4617 111.1 38.0709 110.464 38.4373C109.829 38.8036 109.053 38.897 108.309 38.697C107.564 38.497 106.911 38.0199 106.494 37.3707C106.077 36.7215 105.929 35.9534 106.084 35.2353C106.238 34.5172 106.682 33.9079 107.318 33.5416C107.953 33.1753 108.729 33.0818 109.473 33.2818C109.855 33.3688 110.219 33.5294 110.545 33.7539C110.871 33.9784 111.151 34.2623 111.369 34.5884C111.588 34.9146 111.739 35.2763 111.815 35.6518C111.891 36.0274 111.889 36.409 111.811 36.7738L111.698 36.7436ZM126.409 40.6955C126.254 41.4136 125.811 42.0228 125.175 42.3891C124.539 42.7555 123.764 42.8489 123.019 42.6489C122.275 42.4489 121.622 41.9718 121.205 41.3226C120.787 40.6734 120.64 39.9052 120.794 39.1871C120.949 38.469 121.393 37.8598 122.028 37.4934C122.664 37.1271 123.439 37.0337 124.184 37.2337C124.565 37.3206 124.929 37.4812 125.255 37.7057C125.581 37.9303 125.862 38.2141 126.08 38.5403C126.298 38.8664 126.45 39.2281 126.526 39.6037C126.601 39.9792 126.6 40.3608 126.521 40.7256L126.409 40.6955ZM141.204 44.6699C141.049 45.388 140.605 45.9973 139.97 46.3636C139.334 46.73 138.558 46.8234 137.814 46.6234C137.069 46.4234 136.417 45.9463 135.999 45.2971C135.582 44.6478 135.434 43.8797 135.589 43.1616C135.743 42.4435 136.187 41.8343 136.823 41.4679C137.459 41.1016 138.234 41.0082 138.979 41.2082C139.723 41.4082 140.376 41.8853 140.793 42.5345C141.21 43.1837 141.358 43.9518 141.204 44.6699ZM155.914 48.6218C155.76 49.3399 155.316 49.9491 154.68 50.3155C154.044 50.6818 153.269 50.7752 152.524 50.5752C151.78 50.3752 151.127 49.8981 150.71 49.2489C150.293 48.5997 150.145 47.8316 150.299 47.1135C150.454 46.3954 150.898 45.7861 151.533 45.4198C152.169 45.0535 152.944 44.96 153.689 45.16C154.064 45.2531 154.421 45.4175 154.74 45.6436C155.058 45.8697 155.332 46.1529 155.544 46.4767C155.757 46.8005 155.904 47.1583 155.977 47.5293C156.05 47.9002 156.048 48.2767 155.97 48.6369L155.914 48.6218Z" fill="#F39C12"/>
<path d="M69.7354 105.878C69.5665 106.601 69.0975 107.208 68.4316 107.565C67.7657 107.922 66.9574 108 66.1845 107.781C65.4117 107.562 64.7376 107.066 64.3106 106.4C63.8835 105.734 63.7385 104.953 63.9074 104.23C64.0763 103.507 64.5453 102.9 65.2113 102.543C65.8772 102.186 66.6855 102.108 67.4583 102.327C68.2312 102.545 68.9053 103.042 69.3323 103.708C69.7593 104.374 69.9044 105.155 69.7354 105.878Z" fill="#F39C12"/>
</svg>
