<svg width="188" height="110" viewBox="0 0 188 110" fill="none" xmlns="http://www.w3.org/2000/svg">
<g opacity="0.3">
<path d="M99.6958 21.9059C99.6958 20.899 100.096 19.9334 100.808 19.2214C101.52 18.5094 102.485 18.1094 103.492 18.1094C104.499 18.1094 105.465 18.5094 106.177 19.2214C106.889 19.9334 107.289 20.899 107.289 21.9059C107.289 22.9128 106.889 23.8785 106.177 24.5904C105.465 25.3024 104.499 25.7024 103.492 25.7024C102.485 25.7024 101.52 25.3024 100.808 24.5904C100.096 23.8785 99.6958 22.9128 99.6958 21.9059ZM79.8022 21.9059C79.8022 20.899 80.2022 19.9334 80.9142 19.2214C81.6262 18.5094 82.5918 18.1094 83.5987 18.1094C84.6056 18.1094 85.5713 18.5094 86.2832 19.2214C86.9952 19.9334 87.3952 20.899 87.3952 21.9059C87.3952 22.9128 86.9952 23.8785 86.2832 24.5904C85.5713 25.3024 84.6056 25.7024 83.5987 25.7024C83.0875 25.7229 82.5775 25.6398 82.0992 25.4582C81.6209 25.2766 81.1843 25.0002 80.8155 24.6456C80.4467 24.291 80.1534 23.8655 79.9532 23.3947C79.753 22.9239 79.65 22.4175 79.6504 21.9059L79.8022 21.9059Z" fill="#2D9CDB"/>
<path d="M119.475 43.3939C119.475 42.387 119.875 41.4214 120.587 40.7094C121.299 39.9974 122.265 39.5974 123.272 39.5974C124.279 39.5974 125.244 39.9974 125.956 40.7094C126.668 41.4214 127.068 42.387 127.068 43.3939C127.068 44.4008 126.668 45.3665 125.956 46.0785C125.244 46.7904 124.279 47.1904 123.272 47.1904C122.265 47.1904 121.299 46.7904 120.587 46.0785C119.875 45.3665 119.475 44.4008 119.475 43.3939ZM99.5438 43.3939C99.5438 42.387 99.9438 41.4214 100.656 40.7094C101.368 39.9974 102.333 39.5974 103.34 39.5974C104.347 39.5974 105.313 39.9974 106.025 40.7094C106.737 41.4214 107.137 42.387 107.137 43.3939C107.137 44.4008 106.737 45.3665 106.025 46.0785C105.313 46.7904 104.347 47.1904 103.34 47.1904C102.36 47.1512 101.433 46.7339 100.753 46.0262C100.074 45.3184 99.6949 44.3751 99.6957 43.3939L99.5438 43.3939ZM79.6502 43.3939C79.6502 42.387 80.0502 41.4214 80.7622 40.7094C81.4741 39.9974 82.4398 39.5974 83.4467 39.5974C84.4536 39.5974 85.4192 39.9974 86.1312 40.7094C86.8432 41.4214 87.2432 42.387 87.2432 43.3939C87.2432 44.4008 86.8432 45.3665 86.1312 46.0785C85.4192 46.7904 84.4536 47.1904 83.4467 47.1904C82.4398 47.1904 81.4741 46.7904 80.7622 46.0785C80.0502 45.3665 79.6502 44.4008 79.6502 43.3939ZM59.7186 43.3939C59.7186 42.387 60.1186 41.4214 60.8306 40.7094C61.5426 39.9974 62.5082 39.5974 63.5151 39.5974C64.522 39.5974 65.4877 39.9974 66.1996 40.7094C66.9116 41.4214 67.3116 42.387 67.3116 43.3939C67.3116 44.4008 66.9116 45.3665 66.1996 46.0785C65.4877 46.7904 64.522 47.1904 63.5151 47.1904C62.5082 47.1904 61.5426 46.7904 60.8306 46.0785C60.1186 45.3665 59.7186 44.4008 59.7186 43.3939Z" fill="#2D9CDB"/>
<path d="M139.369 64.2367C139.369 63.2298 139.769 62.2642 140.481 61.5522C141.193 60.8402 142.159 60.4402 143.165 60.4402C144.172 60.4402 145.138 60.8402 145.85 61.5522C146.562 62.2642 146.962 63.2298 146.962 64.2367C146.962 65.2436 146.562 66.2093 145.85 66.9212C145.138 67.6332 144.172 68.0332 143.165 68.0332C142.159 68.0332 141.193 67.6332 140.481 66.9212C139.769 66.2093 139.369 65.2436 139.369 64.2367ZM119.475 64.2367C119.475 63.2298 119.875 62.2642 120.587 61.5522C121.299 60.8402 122.265 60.4402 123.272 60.4402C124.279 60.4402 125.244 60.8402 125.956 61.5522C126.668 62.2642 127.068 63.2298 127.068 64.2367C127.068 65.2436 126.668 66.2093 125.956 66.9212C125.244 67.6332 124.279 68.0332 123.272 68.0332C122.265 68.0332 121.299 67.6332 120.587 66.9212C119.875 66.2093 119.475 65.2436 119.475 64.2367ZM99.5438 64.2367C99.5438 63.2298 99.9437 62.2642 100.656 61.5522C101.368 60.8402 102.333 60.4402 103.34 60.4402C104.347 60.4402 105.313 60.8402 106.025 61.5522C106.737 62.2642 107.137 63.2298 107.137 64.2367C107.137 65.2436 106.737 66.2093 106.025 66.9212C105.313 67.6332 104.347 68.0332 103.34 68.0332C102.36 67.994 101.433 67.5767 100.753 66.8689C100.074 66.1612 99.6948 65.2178 99.6956 64.2367L99.5438 64.2367ZM79.6502 64.2367C79.6502 63.2298 80.0501 62.2642 80.7621 61.5522C81.4741 60.8402 82.4398 60.4402 83.4466 60.4402C84.4535 60.4402 85.4192 60.8402 86.1312 61.5522C86.8432 62.2642 87.2431 63.2298 87.2431 64.2367C87.2431 65.2436 86.8432 66.2093 86.1312 66.9212C85.4192 67.6332 84.4535 68.0332 83.4466 68.0332C82.4398 68.0332 81.4741 67.6332 80.7621 66.9212C80.0501 66.2092 79.6502 65.2436 79.6502 64.2367ZM59.7186 64.2367C59.7186 63.2298 60.1186 62.2642 60.8305 61.5522C61.5425 60.8402 62.5082 60.4402 63.5151 60.4402C64.522 60.4402 65.4876 60.8402 66.1996 61.5522C66.9116 62.2642 67.3116 63.2298 67.3116 64.2367C67.3116 65.2436 66.9116 66.2092 66.1996 66.9212C65.4876 67.6332 64.522 68.0332 63.5151 68.0332C62.5082 68.0332 61.5425 67.6332 60.8305 66.9212C60.1186 66.2092 59.7186 65.2436 59.7186 64.2367ZM39.825 64.2367C39.825 63.2298 40.225 62.2642 40.9369 61.5522C41.6489 60.8402 42.6146 60.4402 43.6215 60.4402C44.6283 60.4402 45.594 60.8402 46.306 61.5522C47.018 62.2642 47.4179 63.2298 47.4179 64.2367C47.4179 65.2436 47.018 66.2092 46.306 66.9212C45.594 67.6332 44.6283 68.0332 43.6215 68.0332C42.6146 68.0332 41.6489 67.6332 40.9369 66.9212C40.225 66.2092 39.825 65.2436 39.825 64.2367Z" fill="#2D9CDB"/>
<path d="M159.262 85.7627C159.262 84.7558 159.662 83.7902 160.374 83.0782C161.086 82.3662 162.052 81.9662 163.059 81.9662C164.066 81.9662 165.032 82.3662 165.744 83.0782C166.455 83.7902 166.855 84.7558 166.855 85.7627C166.855 86.7696 166.455 87.7353 165.744 88.4472C165.032 89.1592 164.066 89.5592 163.059 89.5592C162.052 89.5592 161.086 89.1592 160.374 88.4472C159.662 87.7353 159.262 86.7696 159.262 85.7627ZM139.369 85.7627C139.369 84.7558 139.769 83.7902 140.481 83.0782C141.193 82.3662 142.158 81.9662 143.165 81.9662C144.172 81.9662 145.138 82.3662 145.85 83.0782C146.562 83.7902 146.962 84.7558 146.962 85.7627C146.962 86.7696 146.562 87.7353 145.85 88.4472C145.138 89.1592 144.172 89.5592 143.165 89.5592C142.158 89.5592 141.193 89.1592 140.481 88.4472C139.769 87.7353 139.369 86.7696 139.369 85.7627ZM119.475 85.7627C119.475 84.7558 119.875 83.7902 120.587 83.0782C121.299 82.3662 122.265 81.9662 123.272 81.9662C124.279 81.9662 125.244 82.3662 125.956 83.0782C126.668 83.7902 127.068 84.7558 127.068 85.7627C127.068 86.7696 126.668 87.7353 125.956 88.4472C125.244 89.1592 124.279 89.5592 123.272 89.5592C122.265 89.5592 121.299 89.1592 120.587 88.4472C119.875 87.7352 119.475 86.7696 119.475 85.7627ZM99.5437 85.7627C99.5437 84.7558 99.9437 83.7902 100.656 83.0782C101.368 82.3662 102.333 81.9662 103.34 81.9662C104.347 81.9662 105.313 82.3662 106.025 83.0782C106.737 83.7902 107.137 84.7558 107.137 85.7627C107.137 86.7696 106.737 87.7352 106.025 88.4472C105.313 89.1592 104.347 89.5592 103.34 89.5592C102.36 89.5199 101.433 89.1027 100.753 88.3949C100.074 87.6872 99.6948 86.7438 99.6956 85.7627L99.5437 85.7627ZM79.6121 85.7627C79.6121 84.7558 80.0121 83.7902 80.7241 83.0782C81.4361 82.3662 82.4017 81.9662 83.4086 81.9662C84.4155 81.9662 85.3812 82.3662 86.0931 83.0782C86.8051 83.7902 87.2051 84.7558 87.2051 85.7627C87.2051 86.7696 86.8051 87.7352 86.0931 88.4472C85.3812 89.1592 84.4155 89.5592 83.4086 89.5592C82.4017 89.5592 81.4361 89.1592 80.7241 88.4472C80.0121 87.7352 79.6121 86.7696 79.6121 85.7627ZM59.7185 85.7627C59.7185 84.7558 60.1185 83.7902 60.8305 83.0782C61.5425 82.3662 62.5081 81.9662 63.515 81.9662C64.5219 81.9662 65.4875 82.3662 66.1995 83.0782C66.9115 83.7902 67.3115 84.7558 67.3115 85.7627C67.3115 86.7696 66.9115 87.7352 66.1995 88.4472C65.4875 89.1592 64.5219 89.5592 63.515 89.5592C62.5081 89.5592 61.5425 89.1592 60.8305 88.4472C60.1185 87.7352 59.7185 86.7696 59.7185 85.7627ZM39.8249 85.7627C39.8249 84.7558 40.2249 83.7901 40.9369 83.0782C41.6489 82.3662 42.6145 81.9662 43.6214 81.9662C44.6283 81.9662 45.5939 82.3662 46.3059 83.0782C47.0179 83.7901 47.4179 84.7558 47.4179 85.7627C47.4179 86.7696 47.0179 87.7352 46.3059 88.4472C45.5939 89.1592 44.6283 89.5592 43.6214 89.5592C42.6145 89.5592 41.6489 89.1592 40.9369 88.4472C40.2249 87.7352 39.8249 86.7696 39.8249 85.7627ZM19.8933 85.7627C19.8933 84.7558 20.2933 83.7901 21.0053 83.0782C21.7173 82.3662 22.6829 81.9662 23.6898 81.9662C24.6967 81.9662 25.6624 82.3662 26.3744 83.0782C27.0863 83.7901 27.4863 84.7558 27.4863 85.7627C27.4863 86.7696 27.0863 87.7352 26.3744 88.4472C25.6624 89.1592 24.6967 89.5592 23.6898 89.5592C22.6962 89.5393 21.7499 89.1306 21.0542 88.4207C20.3586 87.7109 19.9691 86.7566 19.9693 85.7627L19.8933 85.7627Z" fill="#2D9CDB"/>
<path d="M179.194 105.429C179.194 104.422 179.594 103.456 180.306 102.744C181.018 102.032 181.984 101.632 182.991 101.632L183.219 101.632C184.226 101.632 185.191 102.032 185.903 102.744C186.615 103.456 187.015 104.422 187.015 105.429C187.015 106.435 186.615 107.401 185.903 108.113C185.191 108.825 184.226 109.225 183.219 109.225C182.701 109.256 182.183 109.181 181.696 109.004C181.209 108.827 180.763 108.553 180.386 108.197C180.009 107.841 179.708 107.412 179.504 106.936C179.299 106.46 179.193 105.947 179.194 105.429ZM159.263 105.429C159.263 104.422 159.663 103.456 160.375 102.744C161.087 102.032 162.052 101.632 163.059 101.632C164.066 101.632 165.032 102.032 165.744 102.744C166.456 103.456 166.856 104.422 166.856 105.429C166.856 106.435 166.456 107.401 165.744 108.113C165.032 108.825 164.066 109.225 163.059 109.225C162.052 109.225 161.087 108.825 160.375 108.113C159.663 107.401 159.263 106.435 159.263 105.429ZM139.369 105.429C139.369 104.422 139.769 103.456 140.481 102.744C141.193 102.032 142.159 101.632 143.166 101.632C144.173 101.632 145.138 102.032 145.85 102.744C146.562 103.456 146.962 104.422 146.962 105.429C146.962 106.435 146.562 107.401 145.85 108.113C145.138 108.825 144.173 109.225 143.166 109.225C142.159 109.225 141.193 108.825 140.481 108.113C139.769 107.401 139.369 106.435 139.369 105.429ZM119.476 105.429C119.476 104.422 119.876 103.456 120.588 102.744C121.3 102.032 122.265 101.632 123.272 101.632C124.279 101.632 125.245 102.032 125.957 102.744C126.669 103.456 127.069 104.422 127.069 105.429C127.069 106.435 126.669 107.401 125.957 108.113C125.245 108.825 124.279 109.225 123.272 109.225C122.265 109.225 121.3 108.825 120.588 108.113C119.876 107.401 119.476 106.435 119.476 105.429ZM99.6959 105.429C99.6959 104.422 100.096 103.456 100.808 102.744C101.52 102.032 102.485 101.632 103.492 101.632C104.499 101.632 105.465 102.032 106.177 102.744C106.889 103.456 107.289 104.422 107.289 105.429C107.289 106.435 106.889 107.401 106.177 108.113C105.465 108.825 104.499 109.225 103.492 109.225C102.485 109.225 101.52 108.825 100.808 108.113C100.096 107.401 99.6959 106.435 99.6959 105.429ZM79.8023 105.429C79.8023 104.422 80.2022 103.456 80.9142 102.744C81.6262 102.032 82.5919 101.632 83.5988 101.632C84.6056 101.632 85.5713 102.032 86.2833 102.744C86.9952 103.456 87.3952 104.422 87.3952 105.429C87.3952 106.435 86.9952 107.401 86.2833 108.113C85.5713 108.825 84.6056 109.225 83.5988 109.225C83.0876 109.246 82.5775 109.162 82.0992 108.981C81.6209 108.799 81.1843 108.523 80.8155 108.168C80.4467 107.814 80.1534 107.388 79.9532 106.917C79.753 106.447 79.65 105.94 79.6504 105.429L79.8023 105.429ZM59.8707 105.429C59.8707 104.422 60.2707 103.456 60.9827 102.744C61.6946 102.032 62.6603 101.632 63.6672 101.632C64.6741 101.632 65.6397 102.032 66.3517 102.744C67.0637 103.456 67.4637 104.422 67.4637 105.429C67.4637 106.435 67.0637 107.401 66.3517 108.113C65.6397 108.825 64.6741 109.225 63.6672 109.225C63.156 109.246 62.6459 109.162 62.1676 108.981C61.6894 108.799 61.2527 108.523 60.8839 108.168C60.5152 107.814 60.2218 107.388 60.0216 106.917C59.8214 106.447 59.7184 105.94 59.7188 105.429L59.8707 105.429ZM39.9771 105.429C39.9771 104.422 40.3771 103.456 41.0891 102.744C41.801 102.032 42.7667 101.632 43.7736 101.632C44.7805 101.632 45.7461 102.032 46.4581 102.744C47.1701 103.456 47.5701 104.422 47.5701 105.429C47.5701 106.435 47.1701 107.401 46.4581 108.113C45.7461 108.825 44.7805 109.225 43.7736 109.225C43.2624 109.246 42.7523 109.162 42.274 108.981C41.7958 108.799 41.3591 108.523 40.9903 108.168C40.6216 107.814 40.3282 107.388 40.128 106.917C39.9278 106.447 39.8248 105.94 39.8252 105.429L39.9771 105.429ZM19.9696 105.429C19.9696 104.422 20.3696 103.456 21.0815 102.744C21.7935 102.032 22.7592 101.632 23.7661 101.632C24.773 101.632 25.7386 102.032 26.4506 102.744C27.1626 103.456 27.5626 104.422 27.5626 105.429C27.5626 106.435 27.1626 107.401 26.4506 108.113C25.7386 108.825 24.773 109.225 23.7661 109.225C22.7592 109.225 21.7935 108.825 21.0815 108.113C20.3696 107.401 19.9696 106.435 19.9696 105.429ZM0.0759584 105.429C0.0759585 104.422 0.475968 103.456 1.18794 102.744C1.89992 102.032 2.86557 101.632 3.87245 101.632C4.87935 101.632 5.845 102.032 6.55698 102.744C7.26897 103.456 7.66895 104.422 7.66895 105.429C7.66895 106.435 7.26897 107.401 6.55698 108.113C5.845 108.825 4.87935 109.225 3.87245 109.225C3.36754 109.235 2.86568 109.144 2.39627 108.958C1.92686 108.772 1.49933 108.494 1.13872 108.14C0.778091 107.787 0.491654 107.365 0.296127 106.899C0.100601 106.434 -4.56205e-05 105.934 4.59561e-05 105.429L0.0759584 105.429Z" fill="#2D9CDB"/>
<path d="M89.597 3.79665C89.597 2.78976 89.9969 1.82411 90.7089 1.11213C91.4209 0.400149 92.3866 0.000158963 93.3935 0.000159126C94.4003 0.000159289 95.366 0.40015 96.078 1.11213C96.79 1.82411 97.1899 2.78976 97.1899 3.79665C97.1899 4.80354 96.79 5.7692 96.078 6.48118C95.366 7.19316 94.4003 7.59314 93.3935 7.59314C92.3866 7.59314 91.4209 7.19316 90.7089 6.48118C89.9969 5.7692 89.597 4.80354 89.597 3.79665Z" fill="#2D9CDB"/>
</g>
</svg>
