<svg width="108" height="28" viewBox="0 0 108 28" fill="none" xmlns="http://www.w3.org/2000/svg">
<path opacity="0.3" d="M0.52 0.799998V26H18.7V19.34H8.44V0.799998H0.52ZM27.0852 13.4C27.0852 12.464 27.2052 11.624 27.4452 10.88C27.7092 10.112 28.0812 9.464 28.5612 8.936C29.0652 8.384 29.6652 7.964 30.3612 7.676C31.0572 7.364 31.8492 7.208 32.7372 7.208C33.6732 7.208 34.4892 7.364 35.1852 7.676C35.8812 7.964 36.4692 8.384 36.9492 8.936C37.4292 9.464 37.7892 10.112 38.0292 10.88C38.2692 11.624 38.3892 12.464 38.3892 13.4C38.3892 14.336 38.2572 15.188 37.9932 15.956C37.7532 16.7 37.3812 17.348 36.8772 17.9C36.3972 18.428 35.8092 18.848 35.1132 19.16C34.4172 19.448 33.6252 19.592 32.7372 19.592C31.8492 19.592 31.0572 19.448 30.3612 19.16C29.6652 18.848 29.0652 18.428 28.5612 17.9C28.0812 17.348 27.7092 16.7 27.4452 15.956C27.2052 15.188 27.0852 14.336 27.0852 13.4ZM18.6972 13.4C18.6972 15.416 19.0332 17.264 19.7052 18.944C20.4012 20.6 21.3732 22.04 22.6212 23.264C23.8692 24.488 25.3452 25.424 27.0492 26.072C28.7772 26.744 30.6732 27.08 32.7372 27.08C34.8012 27.08 36.6852 26.744 38.3892 26.072C40.1172 25.424 41.6052 24.488 42.8532 23.264C44.1012 22.04 45.0612 20.6 45.7332 18.944C46.4292 17.264 46.7772 15.416 46.7772 13.4C46.7772 11.384 46.4292 9.56 45.7332 7.928C45.0372 6.296 44.0532 4.892 42.7812 3.716C41.5092 2.54 40.0212 1.64 38.3172 1.016C36.6132 0.391999 34.7532 0.079999 32.7372 0.079999C30.7692 0.079999 28.9332 0.391999 27.2292 1.016C25.5252 1.64 24.0372 2.54 22.7652 3.716C21.4932 4.892 20.4972 6.296 19.7772 7.928C19.0572 9.56 18.6972 11.384 18.6972 13.4ZM63.3316 17.36H69.0196C68.8036 17.816 68.5396 18.236 68.2276 18.62C67.9156 19.004 67.5436 19.328 67.1116 19.592C66.6796 19.856 66.1756 20.06 65.5996 20.204C65.0476 20.348 64.4116 20.42 63.6916 20.42C62.7316 20.42 61.8436 20.264 61.0276 19.952C60.2356 19.64 59.5516 19.184 58.9756 18.584C58.4236 17.96 57.9916 17.216 57.6796 16.352C57.3676 15.488 57.2116 14.504 57.2116 13.4C57.2116 12.296 57.3796 11.336 57.7156 10.52C58.0516 9.68 58.5196 8.984 59.1196 8.432C59.7196 7.856 60.4036 7.436 61.1716 7.172C61.9636 6.884 62.8036 6.74 63.6916 6.74C64.8916 6.74 65.8396 7.04 66.5356 7.64C67.2316 8.24 67.7956 8.936 68.2276 9.728L75.6076 6.416C74.7676 5.24 73.7836 4.184 72.6556 3.248C71.5516 2.288 70.2556 1.52 68.7676 0.943999C67.3036 0.367999 65.6116 0.079999 63.6916 0.079999C61.5796 0.079999 59.6236 0.391999 57.8236 1.016C56.0476 1.616 54.4876 2.492 53.1436 3.644C51.8236 4.796 50.7916 6.2 50.0476 7.856C49.3036 9.488 48.9316 11.336 48.9316 13.4C48.9316 15.464 49.2796 17.336 49.9756 19.016C50.6956 20.696 51.6916 22.136 52.9636 23.336C54.2596 24.536 55.7836 25.46 57.5356 26.108C59.2876 26.756 61.2196 27.08 63.3316 27.08C65.6116 27.08 67.6276 26.684 69.3796 25.892C71.1316 25.1 72.5836 23.996 73.7356 22.58C74.8876 21.164 75.7156 19.52 76.2196 17.648C76.7476 15.776 76.9156 13.76 76.7236 11.6H63.3316V17.36ZM87.4836 13.4C87.4836 12.464 87.6036 11.624 87.8436 10.88C88.1076 10.112 88.4796 9.464 88.9596 8.936C89.4636 8.384 90.0636 7.964 90.7596 7.676C91.4556 7.364 92.2476 7.208 93.1356 7.208C94.0716 7.208 94.8876 7.364 95.5836 7.676C96.2796 7.964 96.8676 8.384 97.3476 8.936C97.8276 9.464 98.1876 10.112 98.4276 10.88C98.6676 11.624 98.7876 12.464 98.7876 13.4C98.7876 14.336 98.6556 15.188 98.3916 15.956C98.1516 16.7 97.7796 17.348 97.2756 17.9C96.7956 18.428 96.2076 18.848 95.5116 19.16C94.8156 19.448 94.0236 19.592 93.1356 19.592C92.2476 19.592 91.4556 19.448 90.7596 19.16C90.0636 18.848 89.4636 18.428 88.9596 17.9C88.4796 17.348 88.1076 16.7 87.8436 15.956C87.6036 15.188 87.4836 14.336 87.4836 13.4ZM79.0956 13.4C79.0956 15.416 79.4316 17.264 80.1036 18.944C80.7996 20.6 81.7716 22.04 83.0196 23.264C84.2676 24.488 85.7436 25.424 87.4476 26.072C89.1756 26.744 91.0716 27.08 93.1356 27.08C95.1996 27.08 97.0836 26.744 98.7876 26.072C100.516 25.424 102.004 24.488 103.252 23.264C104.5 22.04 105.46 20.6 106.132 18.944C106.828 17.264 107.176 15.416 107.176 13.4C107.176 11.384 106.828 9.56 106.132 7.928C105.436 6.296 104.452 4.892 103.18 3.716C101.908 2.54 100.42 1.64 98.7156 1.016C97.0116 0.391999 95.1516 0.079999 93.1356 0.079999C91.1676 0.079999 89.3316 0.391999 87.6276 1.016C85.9236 1.64 84.4356 2.54 83.1636 3.716C81.8916 4.892 80.8956 6.296 80.1756 7.928C79.4556 9.56 79.0956 11.384 79.0956 13.4Z" fill="#2D2D2D"/>
</svg>
