<svg width="48" height="53" viewBox="0 0 48 53" fill="none" xmlns="http://www.w3.org/2000/svg">
<path d="M32.491 38.9451H11.9348L1.58302 21.1599L11.9348 3.37291H32.491V2.01389H11.1433L0 21.1599L11.1433 40.3058H32.491V38.9451Z" fill="#2D9CDB"/>
<path d="M32.3668 5.01358C33.7625 5.01358 34.8939 3.89126 34.8939 2.50679C34.8939 1.12233 33.7625 0 32.3668 0C30.971 0 29.8396 1.12233 29.8396 2.50679C29.8396 3.89126 30.971 5.01358 32.3668 5.01358Z" fill="#F39C12"/>
<path d="M32.2125 42.1807C33.6082 42.1807 34.7396 41.0583 34.7396 39.6739C34.7396 38.2894 33.6082 37.1671 32.2125 37.1671C30.8167 37.1671 29.6853 38.2894 29.6853 39.6739C29.6853 41.0583 30.8167 42.1807 32.2125 42.1807Z" fill="#F39C12"/>
<path d="M15.509 43.9833H36.0653L46.417 26.1963L36.0653 8.41113H15.509V7.05035H36.855L48 26.1963L36.855 45.3423H15.509V43.9833Z" fill="#2D9CDB"/>
<path d="M15.6331 10.0518C17.0288 10.0518 18.1603 8.92949 18.1603 7.54503C18.1603 6.16057 17.0288 5.03824 15.6331 5.03824C14.2374 5.03824 13.106 6.16057 13.106 7.54503C13.106 8.92949 14.2374 10.0518 15.6331 10.0518Z" fill="#F39C12"/>
<path d="M15.7859 47.2189C17.1817 47.2189 18.3131 46.0966 18.3131 44.7121C18.3131 43.3276 17.1817 42.2053 15.7859 42.2053C14.3902 42.2053 13.2588 43.3276 13.2588 44.7121C13.2588 46.0966 14.3902 47.2189 15.7859 47.2189Z" fill="#F39C12"/>
<path d="M45.0708 52.0284L36.8286 43.8527L35.8485 44.8249L44.0907 53.0006L45.0708 52.0284Z" fill="#2D9CDB"/>
<path d="M8.69604 18.5193H11.9508C13.4605 18.5193 14.5513 18.737 15.2233 19.1724C15.8954 19.6078 16.2308 20.2967 16.2296 21.2391C16.2515 21.8075 16.0775 22.3663 15.7362 22.8234C15.3822 23.2581 14.8745 23.5426 14.3165 23.6191V23.6931C15.0855 23.8374 15.6511 24.1208 16.0131 24.5433C16.3751 24.9658 16.5561 25.5397 16.5561 26.265C16.5561 27.2426 16.2124 28.0054 15.525 28.5535C14.8377 29.1016 13.8823 29.3773 12.6589 29.3809H8.69604V18.5193ZM10.4867 23.0083H12.2099C12.9588 23.0083 13.5072 22.8921 13.8515 22.6562C14.1958 22.4203 14.375 22.0207 14.375 21.4556C14.375 20.9451 14.1893 20.576 13.8178 20.3483C13.4463 20.1206 12.8547 20.0033 12.0431 19.9962H10.4903L10.4867 23.0083ZM10.4867 24.4518V27.8933H12.3927C13.144 27.8933 13.7101 27.7507 14.0911 27.4656C14.4727 27.1804 14.6643 26.7315 14.6643 26.1153C14.6643 25.552 14.4697 25.1336 14.0804 24.8602C13.6912 24.5867 13.0996 24.4506 12.3058 24.4518H10.4867Z" fill="#2D9CDB"/>
<path d="M26.088 21.8042C26.088 22.939 25.7135 23.8086 24.9646 24.413C24.2157 25.0174 23.1509 25.3202 21.7702 25.3214H20.622V29.3861H18.8313V18.5193H21.9867C23.3544 18.5193 24.3796 18.7968 25.0622 19.3519C25.7449 19.907 26.0868 20.7245 26.088 21.8042ZM20.622 23.8268H21.5732C22.4925 23.8268 23.1669 23.6684 23.5963 23.3515C24.0258 23.0347 24.2411 22.5388 24.2423 21.864C24.2423 21.2391 24.0489 20.7743 23.6638 20.4663C23.2787 20.1582 22.6806 20.005 21.866 20.005H20.6237L20.622 23.8268Z" fill="#2D9CDB"/>
<path d="M33.0091 29.3861L29.8324 20.3113H29.7721C29.8573 21.6586 29.8999 22.922 29.8999 24.1015V29.3826H28.2725V18.5193H30.7996L33.8414 27.1645H33.8858L37.0181 18.5193H39.5524V29.3861H37.8274V24.0117C37.8274 23.473 37.8416 22.7688 37.87 21.8992C37.8966 21.0331 37.9197 20.5067 37.941 20.3149H37.8806L34.5904 29.3756L33.0091 29.3861Z" fill="#2D9CDB"/>
</svg>
