<svg width="226" height="73" viewBox="0 0 226 73" fill="none" xmlns="http://www.w3.org/2000/svg">
<path d="M44.7783 53.6413H16.4482L2.18168 29.1447L16.4482 4.64569H44.7783V2.77383H15.3574L0 29.1447L15.3574 55.5156H44.7783V53.6413Z" fill="#2D9CDB"/>
<path d="M44.6071 6.9055C46.5307 6.9055 48.09 5.35965 48.09 3.45275C48.09 1.54585 46.5307 0 44.6071 0C42.6836 0 41.1243 1.54585 41.1243 3.45275C41.1243 5.35965 42.6836 6.9055 44.6071 6.9055Z" fill="#F39C12"/>
<path d="M44.3943 58.0979C46.3179 58.0979 47.8772 56.552 47.8772 54.6451C47.8772 52.7382 46.3179 51.1924 44.3943 51.1924C42.4708 51.1924 40.9115 52.7382 40.9115 54.6451C40.9115 56.552 42.4708 58.0979 44.3943 58.0979Z" fill="#F39C12"/>
<path d="M21.3741 60.5808H49.7042L63.9708 36.0817L49.7042 11.5851H21.3741V9.71086H50.7926L66.1525 36.0817L50.7926 62.4526H21.3741V60.5808Z" fill="#2D9CDB"/>
<path d="M21.5454 13.845C23.4689 13.845 25.0282 12.2991 25.0282 10.3922C25.0282 8.4853 23.4689 6.93945 21.5454 6.93945C19.6218 6.93945 18.0625 8.4853 18.0625 10.3922C18.0625 12.2991 19.6218 13.845 21.5454 13.845Z" fill="#F39C12"/>
<path d="M21.7557 65.0373C23.6792 65.0373 25.2386 63.4915 25.2386 61.5846C25.2386 59.6777 23.6792 58.1318 21.7557 58.1318C19.8322 58.1318 18.2728 59.6777 18.2728 61.5846C18.2728 63.4915 19.8322 65.0373 21.7557 65.0373Z" fill="#F39C12"/>
<path d="M62.1155 71.6618L50.7563 60.4009L49.4056 61.7399L60.7648 73.0008L62.1155 71.6618Z" fill="#2D9CDB"/>
<path d="M92.6727 39.5733C93.289 38.2801 93.5964 36.6976 93.5948 34.8258V31.019C93.5719 28.1498 92.7958 25.9328 91.2663 24.3681C89.7368 22.8034 87.5813 22.0202 84.7995 22.0186C82.0406 22.0186 79.8907 22.8211 78.3499 24.4263C76.809 26.0314 76.0394 28.2678 76.041 31.1354V35.0149C76.0752 37.834 76.8718 40.0219 78.4306 41.5785C79.9894 43.1352 82.1246 43.9135 84.8362 43.9135C85.5683 43.9111 86.2989 43.8479 87.0203 43.7244L91.7188 47.2208L93.9421 45.4507L90.0532 42.5969C91.2005 41.8586 92.1097 40.8091 92.6727 39.5733ZM84.846 41.5276C83.0181 41.5276 81.6419 40.957 80.7174 39.8158C79.7929 38.6745 79.3298 37.0112 79.3282 34.8258V31.019C79.3396 28.853 79.8084 27.2139 80.7345 26.1017C81.6607 24.9896 83.019 24.4336 84.8093 24.4336C86.6861 24.4336 88.0721 24.9823 88.9672 26.0799C89.8624 27.1775 90.3133 28.8529 90.3198 31.1063V35.1919C90.2741 37.3482 89.8021 38.9429 88.9036 39.9758C88.0052 41.0087 86.6494 41.526 84.8362 41.5276H84.846Z" fill="#2D9CDB"/>
<path d="M111.06 37.3401C111.06 38.7723 110.688 39.8424 109.943 40.5504C109.198 41.2584 107.988 41.6124 106.316 41.6124C104.654 41.6124 103.451 41.2584 102.705 40.5504C101.96 39.8424 101.587 38.7723 101.585 37.3401V22.3071H98.3225V37.4565C98.347 39.5256 99.04 41.1186 100.401 42.2356C101.763 43.3526 103.734 43.911 106.313 43.911C108.832 43.911 110.796 43.3404 112.205 42.1992C113.614 41.058 114.331 39.4771 114.355 37.4565V22.3071H111.06V37.3401Z" fill="#2D9CDB"/>
<path d="M125.376 22.3071L116.972 43.6201H120.335L122.36 38.0433H131.165L133.225 43.6201H136.593L128.186 22.3071H125.376ZM123.226 35.7447L126.772 26.046L130.336 35.7447H123.226Z" fill="#2D9CDB"/>
<path d="M153.929 38.8047L143.451 22.312H140.154V43.6225H143.451V27.2001L153.894 43.6225H157.189V22.312H153.929V38.8047Z" fill="#2D9CDB"/>
<path d="M160.611 24.6081H167.454V43.6225H170.731V24.6081H177.594V22.312H160.611V24.6081Z" fill="#2D9CDB"/>
<path d="M193.71 37.3401C193.71 38.7723 193.337 39.8424 192.59 40.5504C191.843 41.2584 190.634 41.6124 188.963 41.6124C187.303 41.6124 186.099 41.2584 185.353 40.5504C184.606 39.8424 184.229 38.7723 184.223 37.3401V22.3071H180.962V37.4565C180.985 39.5256 181.677 41.1186 183.039 42.2356C184.4 43.3526 186.371 43.911 188.95 43.911C191.47 43.911 193.435 43.3404 194.845 42.1992C196.255 41.058 196.972 39.4771 196.995 37.4565V22.3071H193.71V37.3401Z" fill="#2D9CDB"/>
<path d="M224.117 22.312H219.888L213.081 39.6994L206.274 22.312H202.045V43.6225H205.325V35.3228L205.02 27.0668L211.809 43.6225H214.316L221.143 27.0086L220.837 35.3228L220.832 49.9024H224.112L224.117 22.312Z" fill="#2D9CDB"/>
<path d="M222.515 55.6926C224.438 55.6926 225.998 54.1467 225.998 52.2398C225.998 50.3329 224.438 48.7871 222.515 48.7871C220.591 48.7871 219.032 50.3329 219.032 52.2398C219.032 54.1467 220.591 55.6926 222.515 55.6926Z" fill="#F39C12"/>
<path d="M11.9846 25.5077H16.4702C18.5508 25.5077 20.0542 25.8075 20.9804 26.4073C21.9065 27.007 22.3688 27.9558 22.3672 29.2538C22.3974 30.0367 22.1575 30.8064 21.6872 31.436C21.1993 32.0348 20.4996 32.4267 19.7305 32.532V32.6338C20.7904 32.8327 21.5698 33.223 22.0688 33.805C22.5677 34.3869 22.8172 35.1773 22.8172 36.1763C22.8172 37.5228 22.3435 38.5735 21.3962 39.3284C20.4488 40.0833 19.1321 40.4631 17.4461 40.468H11.9846V25.5077ZM14.4524 31.6906H16.8273C17.8595 31.6906 18.6152 31.5306 19.0897 31.2057C19.5642 30.8808 19.8113 30.3304 19.8113 29.5521C19.8113 28.8489 19.5553 28.3405 19.0433 28.0269C18.5313 27.7133 17.716 27.5517 16.5974 27.542H14.4573L14.4524 31.6906ZM14.4524 33.6789V38.4191H17.0793C18.1147 38.4191 18.8949 38.2227 19.4199 37.8299C19.9458 37.4371 20.2099 36.8188 20.2099 35.9702C20.2099 35.1943 19.9417 34.618 19.4052 34.2414C18.8688 33.8648 18.0535 33.6773 16.9594 33.6789H14.4524Z" fill="#2D9CDB"/>
<path d="M35.9538 30.0322C35.9538 31.5953 35.4377 32.7931 34.4055 33.6255C33.3734 34.458 31.9059 34.8751 30.003 34.8767H28.4206V40.4753H25.9527V25.5077H30.3014C32.1864 25.5077 33.5992 25.89 34.5401 26.6546C35.4809 27.4192 35.9521 28.545 35.9538 30.0322ZM28.4206 32.8181H29.7316C30.9985 32.8181 31.9279 32.5999 32.5198 32.1634C33.1117 31.727 33.4085 31.0441 33.4101 30.1146C33.4101 29.2538 33.1435 28.6137 32.6128 28.1894C32.082 27.7651 31.2578 27.5541 30.1351 27.5541H28.423L28.4206 32.8181Z" fill="#2D9CDB"/>
<path d="M45.4925 40.4753L41.1145 27.976H41.0313C41.1487 29.8317 41.2074 31.5718 41.2074 33.1964V40.4704H38.9646V25.5077H42.4475L46.6396 37.4153H46.7008L51.0177 25.5077H54.5103V40.4753H52.133V33.0727C52.133 32.3308 52.1525 31.3609 52.1917 30.1631C52.2283 28.9701 52.2601 28.2452 52.2895 27.9809H52.2063L47.6718 40.4607L45.4925 40.4753Z" fill="#2D9CDB"/>
</svg>
