<svg width="100" height="100" viewBox="0 0 100 100" fill="none" xmlns="http://www.w3.org/2000/svg">
<g clip-path="url(#clip0_12_139)">
<path d="M95.7305 34.885L87.3578 33.2107C86.8033 31.4438 86.0922 29.7275 85.2354 28.0881L89.9721 20.983C91.3715 18.8838 91.0926 16.0658 89.3084 14.2814L85.7186 10.6916C83.9346 8.90742 81.1164 8.62793 79.017 10.0279L71.9119 14.7646C70.2723 13.9078 68.5559 13.1967 66.7893 12.6422L65.1147 4.26953C64.6199 1.79551 62.4299 0 59.9071 0H54.8299C52.3073 0 50.1168 1.79551 49.6221 4.26953L47.9475 12.6422C46.1807 13.1967 44.4643 13.9078 42.8248 14.7646L35.7197 10.0279C33.6205 8.62852 30.802 8.90723 29.0182 10.6912L25.4281 14.2814C23.6444 16.0654 23.3655 18.8836 24.7649 20.9826L29.5016 28.0877C28.6448 29.7273 27.9336 31.4436 27.3791 33.2104L19.0065 34.8848C16.5326 35.3797 14.7369 37.5697 14.7369 40.0928V45.1695C14.7369 47.6924 16.5324 49.8828 19.0065 50.3775L24.4274 51.4615C25.2826 51.6322 26.1143 51.0779 26.2852 50.2229C26.4561 49.3678 25.9016 48.5359 25.0465 48.365L19.6256 47.2811C18.6229 47.0809 17.8949 46.1926 17.8949 45.1699V40.0932C17.8949 39.0705 18.6229 38.1822 19.6256 37.9818L28.9313 36.1207C29.5141 36.0041 29.9821 35.5701 30.1422 34.9977C30.7487 32.8297 31.6158 30.7375 32.719 28.7789C33.0108 28.2609 32.9867 27.6229 32.6571 27.1281L27.3924 19.2311C26.825 18.3801 26.9383 17.2373 27.6615 16.5145L31.2516 12.9242C31.9748 12.201 33.1172 12.0881 33.9682 12.6555L41.8653 17.9199C42.3598 18.2498 42.9979 18.2736 43.516 17.982C45.4748 16.8787 47.567 16.0119 49.7348 15.4055C50.3073 15.2453 50.741 14.7775 50.8578 14.1945L52.719 4.88887C52.9196 3.88594 53.8074 3.15801 54.8301 3.15801H59.9073C60.9299 3.15801 61.818 3.88594 62.0184 4.88887L63.8795 14.1945C63.9961 14.7775 64.4301 15.2453 65.0026 15.4055C67.1701 16.0119 69.2625 16.8787 71.2213 17.982C71.7395 18.2736 72.3774 18.2498 72.8721 17.9199L80.7694 12.6553C81.6203 12.0879 82.7629 12.2008 83.486 12.9244L87.0758 16.5143C87.7992 17.2377 87.9121 18.3801 87.3449 19.2311L82.0803 27.1281C81.7504 27.6229 81.7264 28.2609 82.0184 28.7789C83.1215 30.7375 83.9885 32.8297 84.5951 34.9977C84.7553 35.5701 85.2233 36.0039 85.8061 36.1207L95.1117 37.9818C96.1147 38.1822 96.8424 39.0705 96.8424 40.0932V45.1699C96.8424 46.1926 96.1145 47.0809 95.1117 47.2812L85.8061 49.1424C85.2233 49.259 84.7553 49.693 84.5951 50.2652C83.9887 52.4328 83.1217 54.525 82.0184 56.484C81.7266 57.0021 81.7506 57.64 82.0803 58.1348L87.3449 66.0318C87.9123 66.8828 87.799 68.0256 87.0758 68.7484L83.4858 72.3387C82.7625 73.0619 81.6203 73.1748 80.7692 72.6074L72.8721 67.343C72.1467 66.8592 71.1662 67.0551 70.6826 67.7809C70.1988 68.5062 70.3951 69.4867 71.1205 69.9703L79.0176 75.235C79.9125 75.8316 80.9377 76.1232 81.9584 76.1232C83.3315 76.1232 84.6957 75.5951 85.719 74.5717L89.309 70.9814C91.0928 69.1975 91.3717 66.3793 89.9723 64.2803L85.2356 57.1752C86.0924 55.5354 86.8035 53.8191 87.358 52.0525L95.7307 50.3783C98.2045 49.8834 100 47.6932 100 45.1703V40.0936C100 37.5701 98.2045 35.3801 95.7305 34.885Z" fill="#2D9CDB"/>
<path d="M62.6316 54.7369H47.8947C47.0227 54.7369 46.3158 55.4436 46.3158 56.3158C46.3158 57.1881 47.0229 57.8947 47.8947 57.8947H62.6316C64.0828 57.8947 65.2633 59.0752 65.2633 60.5264V62.6316C65.2633 64.0828 64.0828 65.2633 62.6316 65.2633H47.8947C47.0227 65.2633 46.3158 65.9701 46.3158 66.8422C46.3158 67.7145 47.0229 68.4211 47.8947 68.4211H62.6316C64.0828 68.4211 65.2633 69.6016 65.2633 71.0527V73.158C65.2633 74.6092 64.0828 75.7896 62.6316 75.7896H47.8947C47.0227 75.7896 46.3158 76.4963 46.3158 77.3686C46.3158 78.2408 47.0229 78.9475 47.8947 78.9475H62.6316C64.0828 78.9475 65.2633 80.1279 65.2633 81.5791V83.6844C65.2633 85.1355 64.0828 86.316 62.6316 86.316H47.8947C47.0227 86.316 46.3158 87.0227 46.3158 87.8949C46.3158 88.7672 47.0229 89.4738 47.8947 89.4738H62.6316C64.0828 89.4738 65.2633 90.6543 65.2633 92.1055V94.2107C65.2633 95.6619 64.0828 96.8424 62.6316 96.8424H34.0301C32.5371 96.8424 31.132 96.2623 30.0738 95.2096C28.4033 93.5475 26.1982 92.6318 23.8648 92.6318H20V75.2635C20 74.3912 19.293 73.6846 18.4211 73.6846C17.5492 73.6846 16.8422 74.3912 16.8422 75.2635V96.316C16.8422 96.6063 16.6061 96.8424 16.3158 96.8424H11.5789V75.2631C11.5789 74.3908 10.8719 73.6842 10 73.6842C9.12813 73.6842 8.42109 74.3908 8.42109 75.2631V96.842H3.68418C3.39414 96.842 3.15781 96.6061 3.15781 96.3156V60.5264C3.15781 60.2361 3.39395 60 3.68418 60H16.3158C16.6059 60 16.8422 60.2359 16.8422 60.5264V68.9475C16.8422 69.8197 17.5492 70.5264 18.4211 70.5264C19.293 70.5264 20 69.8197 20 68.9475V64.2105H23.807C26.3027 64.2105 28.51 62.6195 29.2994 60.2519L29.8871 58.4879C31.7082 53.026 32.6314 47.3369 32.6314 41.5789C32.6314 40.1277 33.8119 38.9473 35.2631 38.9473C36.5285 38.9473 37.718 39.44 38.6127 40.3348C39.5074 41.2295 40 42.4189 40 43.6844V60.526C40 61.398 40.707 62.1049 41.5789 62.1049C42.451 62.1049 43.1578 61.3982 43.1578 60.526V43.6844C43.1578 41.5756 42.3367 39.5928 40.8455 38.1016C39.3543 36.6104 37.3717 35.7891 35.2627 35.7891C32.0703 35.7891 29.4732 38.3863 29.4732 41.5785C29.4732 46.9965 28.6045 52.3494 26.891 57.4889L26.3029 59.2529C25.9441 60.3291 24.941 61.0523 23.8064 61.0523H20V60.526C20 58.4945 18.3471 56.8418 16.3158 56.8418H3.68418C1.65293 56.8422 0 58.4949 0 60.5264V96.3158C0 98.3471 1.65293 100 3.68418 100H16.3158C18.3473 100 20 98.3471 20 96.3158V95.7894H23.8646C25.3576 95.7894 26.7717 96.3785 27.8463 97.4478C29.5004 99.0936 31.6965 100 34.0299 100H62.6316C65.824 100 68.4211 97.4027 68.4211 94.2105V92.1053C68.4211 90.448 67.7211 88.9512 66.6014 87.8947C67.7211 86.8383 68.4211 85.3414 68.4211 83.6842V81.5789C68.4211 79.9217 67.7211 78.4248 66.6014 77.3684C67.7211 76.3119 68.4211 74.815 68.4211 73.1578V71.0525C68.4211 69.3953 67.7211 67.8984 66.6014 66.842C67.7211 65.7855 68.4211 64.2887 68.4211 62.6314V60.5262C68.4211 57.3342 65.824 54.7369 62.6316 54.7369Z" fill="#2D9CDB"/>
<path d="M57.3635 50.7373C57.7774 50.7373 58.1965 50.7054 58.618 50.6396C63.0336 49.9502 66.0651 45.7972 65.3758 41.382C64.6868 36.9664 60.5329 33.9341 56.1184 34.6238C51.7028 35.3132 48.6713 39.4662 49.3606 43.8814C49.984 47.8754 53.4414 50.7371 57.3635 50.7373ZM56.6055 37.7437C59.3008 37.3252 61.8354 39.1736 62.2561 41.8685C62.6768 44.5636 60.8264 47.0984 58.1315 47.5193C55.4366 47.94 52.9016 46.0894 52.4809 43.3945C52.0602 40.6994 53.9106 38.1646 56.6055 37.7437Z" fill="#2D9CDB"/>
<path d="M71.6463 57.8947C72.0621 57.8947 72.477 57.7317 72.7871 57.4076C77.4321 52.5541 79.5024 45.9682 78.4676 39.3385C77.9418 35.9705 76.6692 32.8711 74.6842 30.127C74.1733 29.4207 73.1864 29.2617 72.4793 29.7729C71.7729 30.284 71.6143 31.2709 72.1252 31.9777C73.8151 34.3145 74.8993 36.9549 75.3473 39.8254C76.2289 45.4748 74.4643 51.0875 70.5055 55.2244C69.9026 55.8543 69.9245 56.8539 70.5545 57.4568C70.8608 57.7494 71.2539 57.8947 71.6463 57.8947Z" fill="#2D9CDB"/>
<path d="M70.536 27.7927C71.061 27.0964 70.9221 26.1064 70.2256 25.5816C65.5697 22.0714 59.8338 20.6323 54.075 21.5327C47.4668 22.564 41.8348 26.5251 38.6229 32.4007C38.2045 33.1659 38.4857 34.1251 39.2508 34.5437C39.4912 34.6751 39.7508 34.7376 40.0068 34.7374C40.5654 34.7374 41.1068 34.4403 41.3936 33.9157C44.1313 28.9079 48.9309 25.5317 54.5619 24.653C59.4694 23.8864 64.3571 25.1124 68.3244 28.1034C69.0211 28.6278 70.0112 28.4892 70.536 27.7927Z" fill="#2D9CDB"/>
</g>
<defs>
<clipPath id="clip0_12_139">
<rect width="100" height="100" fill="white"/>
</clipPath>
</defs>
</svg>
