<svg width="802" height="689" viewBox="0 0 802 689" fill="none" xmlns="http://www.w3.org/2000/svg">
<path d="M303.17 187.894L233.969 133.296L200.396 175.57C200.067 175.994 199.866 176.503 199.816 177.037C199.765 177.571 199.867 178.108 200.11 178.586L216.297 219.353C217.06 220.843 218.165 222.131 219.522 223.112C220.879 224.093 222.45 224.738 224.105 224.994L265.954 231.13C266.59 231.294 267.255 231.302 267.894 231.152C268.534 231.003 269.127 230.701 269.624 230.272L303.17 187.894Z" fill="url(#paint0_linear_12_210)"/>
<path d="M249.844 177.001L233.656 136.235C232.615 133.635 234.411 131.841 237.638 132.309L279.513 138.444C281.164 138.715 282.728 139.366 284.084 140.345C285.439 141.324 286.547 142.605 287.321 144.086L303.509 184.853C304.55 187.453 302.78 189.247 299.527 188.779L257.652 182.643C256.001 182.374 254.435 181.724 253.08 180.745C251.724 179.765 250.616 178.483 249.844 177.001Z" fill="url(#paint1_linear_12_210)"/>
<path d="M300.516 187.504L258.641 181.342C256.986 181.083 255.416 180.438 254.06 179.457C252.703 178.476 251.597 177.189 250.833 175.7L234.671 134.934C234.38 134.243 234.325 133.475 234.515 132.75C233.952 133.109 233.548 133.672 233.388 134.32C233.228 134.969 233.324 135.654 233.656 136.234L249.844 177C250.616 178.483 251.724 179.765 253.08 180.744C254.435 181.724 256.001 182.374 257.652 182.642L299.527 188.778C301.739 189.09 303.249 188.362 303.665 187.036C302.703 187.557 301.588 187.722 300.516 187.504Z" fill="white"/>
<path opacity="0.3" d="M750.444 481.709C750.444 480.615 750.131 479.544 749.54 478.622C748.95 477.7 748.107 476.967 747.112 476.51L379.035 262.798C375.97 261.396 372.618 260.734 369.25 260.865C365.882 260.996 362.592 261.916 359.646 263.552L327.79 281.751L91.4794 417.102C90.2093 417.632 89.1022 418.489 88.2704 419.585C87.4386 420.681 86.9116 421.977 86.7428 423.342V430.179C86.759 431.25 87.0812 432.293 87.6714 433.187C88.2617 434.081 89.0953 434.787 90.0741 435.223L458.048 649.065C461.112 650.467 464.464 651.129 467.832 650.998C471.2 650.867 474.49 649.946 477.437 648.311L713.748 512.986L745.603 494.787C746.887 494.248 748.004 493.375 748.836 492.26C749.669 491.144 750.188 489.826 750.339 488.443V481.761L750.444 481.709Z" fill="url(#paint2_linear_12_210)"/>
<path d="M793.073 406L785.109 409.718L373.907 170.891C368.312 167.641 358.526 168.005 352.046 171.723L316.105 192.392L751.719 441.385L787.686 420.794C789.129 420.169 790.383 419.178 791.324 417.919C792.264 416.66 792.859 415.177 793.047 413.618L793.073 406Z" fill="url(#paint3_linear_12_210)"/>
<path d="M725.225 429.946L316.105 192.393L55.3041 341.653L44.1132 340.197V347.997C44.1503 349.186 44.5215 350.34 45.1841 351.329C45.8468 352.317 46.7743 353.1 47.8608 353.586L463.253 594.857C468.848 598.107 478.634 597.717 485.114 594.025L751.771 441.307V433.507L725.225 429.946Z" fill="url(#paint4_linear_12_210)"/>
<path d="M463.253 586.979L47.8868 345.786C42.2914 342.536 42.994 336.894 49.4744 333.176L316.131 180.406L751.745 433.429L485.088 586.147C478.608 589.865 468.822 590.177 463.253 586.979Z" fill="url(#paint5_radial_12_210)"/>
<path d="M373.96 158.983L789.3 400.384C794.895 403.634 794.192 409.276 787.686 412.994L751.745 433.559L316.131 180.406L352.072 159.815C358.579 156.123 368.364 155.733 373.96 158.983Z" fill="url(#paint6_linear_12_210)"/>
<path d="M713.982 382.965C712.32 383.805 710.483 384.243 708.621 384.243C706.758 384.243 704.921 383.805 703.259 382.965C702.613 382.748 702.051 382.334 701.654 381.781C701.256 381.228 701.042 380.565 701.042 379.884C701.042 379.203 701.256 378.539 701.654 377.986C702.051 377.434 702.613 377.02 703.259 376.803C704.919 375.956 706.757 375.515 708.621 375.515C710.484 375.515 712.322 375.956 713.982 376.803C714.616 377.032 715.164 377.45 715.551 378.002C715.939 378.553 716.147 379.21 716.147 379.884C716.147 380.557 715.939 381.215 715.551 381.766C715.164 382.317 714.616 382.736 713.982 382.965Z" fill="white"/>
<path d="M731.107 392.897C729.445 393.737 727.608 394.175 725.745 394.175C723.883 394.175 722.046 393.737 720.384 392.897C719.741 392.673 719.184 392.255 718.789 391.701C718.395 391.146 718.183 390.483 718.183 389.803C718.183 389.123 718.395 388.459 718.789 387.905C719.184 387.35 719.741 386.932 720.384 386.709C722.046 385.868 723.883 385.43 725.745 385.43C727.608 385.43 729.445 385.868 731.107 386.709C731.75 386.932 732.307 387.35 732.702 387.905C733.096 388.459 733.308 389.123 733.308 389.803C733.308 390.483 733.096 391.146 732.702 391.701C732.307 392.255 731.75 392.673 731.107 392.897Z" fill="white"/>
<path d="M748.231 402.984C746.57 403.825 744.733 404.263 742.87 404.263C741.007 404.263 739.171 403.825 737.509 402.984C736.863 402.767 736.301 402.354 735.903 401.801C735.505 401.248 735.291 400.584 735.291 399.903C735.291 399.222 735.505 398.559 735.903 398.006C736.301 397.453 736.863 397.039 737.509 396.822C739.169 395.976 741.006 395.534 742.87 395.534C744.734 395.534 746.571 395.976 748.231 396.822C748.866 397.051 749.414 397.47 749.801 398.021C750.188 398.573 750.396 399.23 750.396 399.903C750.396 400.577 750.188 401.234 749.801 401.785C749.414 402.337 748.866 402.755 748.231 402.984Z" fill="white"/>
<g opacity="0.4">
<path opacity="0.4" d="M571.961 374.385H433.271V429.217C433.27 430.064 433.515 430.894 433.977 431.605C434.439 432.316 435.098 432.877 435.874 433.221L495.733 467.695C498.119 468.773 500.725 469.277 503.341 469.169C505.958 469.061 508.512 468.342 510.801 467.071L568.396 433.844C569.331 433.423 570.15 432.782 570.785 431.976C571.419 431.171 571.849 430.224 572.039 429.217L571.961 374.385Z" fill="url(#paint7_linear_12_210)"/>
<path opacity="0.4" d="M495.628 412.786L435.77 378.337C431.892 376.101 432.387 372.201 436.863 369.627L494.483 336.426C496.775 335.149 499.335 334.427 501.956 334.319C504.578 334.211 507.189 334.719 509.578 335.802L569.437 370.251C573.314 372.487 572.82 376.387 568.369 378.961L510.775 412.162C508.479 413.451 505.909 414.18 503.277 414.288C500.644 414.397 498.024 413.882 495.628 412.786Z" fill="url(#paint8_linear_12_210)"/>
<path opacity="0.4" d="M568.291 376.387L510.697 409.613C508.408 410.884 505.853 411.603 503.237 411.711C500.62 411.819 498.015 411.315 495.628 410.237L435.77 375.763C434.713 375.198 433.892 374.276 433.454 373.163C433.086 374.16 433.122 375.261 433.555 376.232C433.988 377.203 434.782 377.968 435.77 378.363L495.628 412.811C498.013 413.895 500.62 414.403 503.237 414.294C505.855 414.186 508.41 413.464 510.697 412.187L568.291 378.987C571.336 377.219 572.482 374.853 571.701 372.825C571.006 374.367 569.803 375.624 568.291 376.387Z" fill="white"/>
<path opacity="0.4" d="M382.131 372.487H243.442V427.345C243.443 428.192 243.69 429.02 244.151 429.731C244.613 430.441 245.27 431.003 246.044 431.349L305.903 465.797C308.293 466.879 310.903 467.386 313.525 467.278C316.146 467.169 318.705 466.449 320.998 465.173L378.566 431.973C379.499 431.544 380.317 430.901 380.955 430.097C381.592 429.293 382.031 428.35 382.236 427.345L382.131 372.487Z" fill="url(#paint9_linear_12_210)"/>
<path opacity="0.4" d="M305.799 410.992L245.94 376.517C242.089 374.307 242.557 370.407 247.033 367.833L304.602 334.633C306.892 333.353 309.45 332.628 312.072 332.515C314.693 332.402 317.305 332.905 319.696 333.983L379.555 368.457C383.407 370.693 382.912 374.567 378.462 377.167L320.894 410.368C318.601 411.643 316.042 412.364 313.421 412.472C310.799 412.58 308.189 412.073 305.799 410.992Z" fill="url(#paint10_linear_12_210)"/>
<path opacity="0.4" d="M378.462 374.593L320.894 407.793C318.601 409.069 316.042 409.789 313.421 409.898C310.799 410.006 308.189 409.499 305.799 408.417L245.94 373.969C244.881 373.408 244.059 372.485 243.624 371.369C243.25 372.366 243.283 373.47 243.716 374.443C244.149 375.416 244.948 376.179 245.94 376.569L305.799 411.043C308.189 412.125 310.799 412.632 313.421 412.524C316.042 412.415 318.601 411.694 320.894 410.419L378.462 377.219C381.507 375.451 382.652 373.085 381.871 371.031C381.189 372.582 379.982 373.843 378.462 374.593Z" fill="white"/>
<path opacity="0.4" d="M477.046 427.501H338.331V482.359C338.338 483.204 338.587 484.03 339.048 484.739C339.509 485.449 340.163 486.012 340.933 486.363L400.792 520.811C403.181 521.895 405.792 522.403 408.413 522.295C411.035 522.187 413.595 521.465 415.887 520.188L473.455 486.987C474.385 486.554 475.201 485.911 475.839 485.107C476.476 484.304 476.916 483.363 477.124 482.359L477.046 427.501Z" fill="url(#paint11_linear_12_210)"/>
<path opacity="0.4" d="M400.792 466.006L340.933 431.583C337.081 429.347 337.55 425.473 342.026 422.899L399.595 389.673C401.886 388.395 404.446 387.673 407.068 387.565C409.689 387.457 412.3 387.965 414.689 389.049L474.548 423.523C478.4 425.733 477.931 429.633 473.455 432.207L415.808 465.382C413.524 466.638 410.979 467.349 408.373 467.457C405.768 467.565 403.173 467.069 400.792 466.006Z" fill="url(#paint12_linear_12_210)"/>
<path opacity="0.4" d="M473.377 429.607L415.808 462.782C413.517 464.059 410.957 464.781 408.335 464.889C405.714 464.997 403.103 464.489 400.714 463.406L340.933 428.983C339.877 428.418 339.056 427.497 338.617 426.383C338.249 427.38 338.286 428.482 338.718 429.453C339.151 430.424 339.945 431.188 340.933 431.583L400.792 466.057C403.183 467.133 405.793 467.637 408.413 467.528C411.033 467.42 413.592 466.703 415.886 465.433L473.455 432.207C476.5 430.465 477.645 428.099 476.864 426.045C476.155 427.604 474.921 428.864 473.377 429.607Z" fill="white"/>
</g>
<path d="M477.046 40.0117H338.331V283.389C338.326 284.237 338.569 285.068 339.032 285.78C339.494 286.491 340.155 287.052 340.933 287.392L400.792 321.867C403.181 322.951 405.792 323.459 408.414 323.35C411.035 323.242 413.595 322.52 415.887 321.243L473.455 288.016C474.382 287.59 475.192 286.947 475.817 286.141C476.442 285.336 476.864 284.391 477.046 283.389V40.0117Z" fill="url(#paint13_linear_12_210)"/>
<path d="M400.792 78.4904L340.933 44.0417C337.081 41.8058 337.576 37.906 342.026 35.3321L399.621 2.13131C401.913 0.856099 404.472 0.135398 407.094 0.027035C409.715 -0.0813278 412.326 0.425665 414.715 1.50733L474.574 35.956C478.426 38.1919 477.957 42.0918 473.481 44.6657L415.808 77.9964C413.516 79.2404 410.966 79.9328 408.359 80.0186C405.752 80.1043 403.161 79.5811 400.792 78.4904Z" fill="url(#paint14_linear_12_210)"/>
<path d="M473.377 42.0915L415.809 75.3963C413.514 76.6656 410.955 77.383 408.335 77.4913C405.715 77.5996 403.105 77.0959 400.714 76.0203L340.933 41.5976C339.877 41.0329 339.056 40.1114 338.617 38.9977C338.25 39.995 338.286 41.0963 338.718 42.0673C339.151 43.0384 339.946 43.8026 340.933 44.1975L400.792 78.6462C403.181 79.7299 405.792 80.238 408.414 80.1296C411.035 80.0212 413.595 79.2994 415.887 78.0222L473.455 44.8214C476.5 43.0535 477.645 40.6876 476.864 38.6597C476.133 40.1711 474.901 41.3835 473.377 42.0915Z" fill="white"/>
<path d="M571.961 148.662H433.272V338.714C433.266 339.563 433.51 340.394 433.973 341.106C434.435 341.817 435.096 342.378 435.874 342.718L495.733 377.193C498.117 378.276 500.724 378.784 503.342 378.676C505.959 378.568 508.515 377.846 510.801 376.569L568.396 343.342C569.331 342.921 570.151 342.28 570.785 341.474C571.419 340.668 571.849 339.722 572.039 338.714L571.961 148.662Z" fill="url(#paint15_linear_12_210)"/>
<path d="M495.629 187.192L435.77 152.718C431.892 150.508 432.387 146.608 436.863 144.034L494.483 110.781C496.778 109.512 499.337 108.795 501.957 108.686C504.577 108.578 507.187 109.082 509.578 110.157L569.437 144.632C573.314 146.868 572.82 150.742 568.37 153.316L510.697 186.542C508.412 187.823 505.858 188.55 503.24 188.663C500.623 188.776 498.015 188.272 495.629 187.192Z" fill="url(#paint16_linear_12_210)"/>
<path d="M568.292 150.794L510.697 183.969C508.41 185.245 505.855 185.967 503.237 186.076C500.62 186.184 498.013 185.676 495.629 184.593L435.77 150.144C434.712 149.573 433.885 148.655 433.428 147.544C433.069 148.545 433.112 149.646 433.549 150.616C433.986 151.586 434.782 152.348 435.77 152.744L495.629 187.218C498.013 188.302 500.62 188.81 503.237 188.702C505.855 188.593 508.41 187.871 510.697 186.594L568.292 153.394C571.337 151.652 572.482 149.286 571.701 147.232C571.003 148.772 569.8 150.028 568.292 150.794Z" fill="white"/>
<path d="M382.132 293.398H243.442V336.686C243.443 337.533 243.69 338.362 244.151 339.072C244.613 339.782 245.271 340.344 246.045 340.69L305.903 375.139C308.292 376.223 310.903 376.731 313.525 376.622C316.147 376.514 318.706 375.792 320.998 374.515L378.566 341.314C379.505 340.894 380.329 340.254 380.967 339.449C381.606 338.643 382.041 337.695 382.236 336.686L382.132 293.398Z" fill="url(#paint17_linear_12_210)"/>
<path d="M305.799 331.877L245.94 297.429C242.089 295.193 242.557 291.293 247.033 288.719L304.602 255.518C306.893 254.241 309.453 253.519 312.075 253.411C314.697 253.302 317.307 253.811 319.696 254.894L379.555 289.343C383.407 291.579 382.938 295.479 378.462 298.053L320.894 331.253C318.602 332.531 316.042 333.252 313.421 333.361C310.799 333.469 308.188 332.961 305.799 331.877Z" fill="url(#paint18_linear_12_210)"/>
<path d="M378.462 295.478L320.894 328.705C318.6 329.974 316.041 330.692 313.42 330.8C310.8 330.908 308.19 330.405 305.799 329.329L245.94 294.854C244.884 294.29 244.063 293.368 243.624 292.255C243.257 293.252 243.293 294.353 243.726 295.324C244.158 296.295 244.953 297.059 245.94 297.454L305.799 331.903C308.188 332.987 310.799 333.495 313.421 333.386C316.043 333.278 318.602 332.556 320.894 331.279L378.462 298.078C381.507 296.31 382.652 293.944 381.871 291.917C381.184 293.464 379.978 294.723 378.462 295.478Z" fill="white"/>
<path d="M477.046 265.891H338.331V391.934C338.329 392.782 338.574 393.612 339.036 394.323C339.498 395.034 340.157 395.595 340.933 395.938L400.792 430.387C403.181 431.471 405.792 431.979 408.414 431.87C411.035 431.762 413.595 431.04 415.887 429.763L473.455 396.562C474.394 396.142 475.217 395.502 475.856 394.697C476.495 393.891 476.93 392.943 477.124 391.934L477.046 265.891Z" fill="url(#paint19_linear_12_210)"/>
<path d="M400.792 304.396L340.933 269.947C337.056 267.711 337.55 263.812 342 261.238L399.595 228.037C401.882 226.76 404.437 226.038 407.055 225.93C409.672 225.821 412.279 226.33 414.663 227.413L474.522 261.862C478.4 264.098 477.905 267.997 473.429 270.571L415.861 303.772C413.572 305.045 411.017 305.765 408.4 305.873C405.784 305.981 403.178 305.475 400.792 304.396Z" fill="url(#paint20_linear_12_210)"/>
<path d="M473.351 267.997L415.782 301.198C413.491 302.475 410.931 303.197 408.31 303.306C405.688 303.414 403.077 302.906 400.688 301.822L340.829 267.373C339.763 266.814 338.932 265.892 338.487 264.774C338.134 265.775 338.181 266.873 338.617 267.841C339.053 268.809 339.845 269.573 340.829 269.973L400.688 304.422C403.077 305.506 405.688 306.014 408.31 305.905C410.931 305.797 413.491 305.075 415.782 303.798L473.351 270.597C476.422 268.829 477.567 266.463 476.786 264.436C476.08 265.978 474.868 267.235 473.351 267.997Z" fill="white"/>
<path d="M554.654 207.55L525.844 224.163V215.869L554.654 199.256V207.55Z" fill="#FD7207"/>
<path d="M551.505 224.839L525.844 239.632V231.365L551.505 216.571V224.839Z" fill="#FD7207"/>
<path d="M540.262 246.808L525.844 255.128V246.86L540.262 238.541V246.808Z" fill="#FD7207"/>
<path d="M540.262 262.304L525.844 270.598V262.33L540.262 254.036V262.304Z" fill="#FD7207"/>
<path d="M536.879 279.723L525.844 286.092V277.825L536.879 271.455V279.723Z" fill="#FD7207"/>
<path d="M535.291 296.128L525.844 301.562V293.294L535.291 287.86V296.128Z" fill="#FD7207"/>
<path d="M537.503 310.323L525.844 317.057V308.789L537.503 302.056V310.323Z" fill="#FD7207"/>
<path d="M532.949 328.445L525.844 332.527V324.26L532.949 320.178V328.445Z" fill="#FD7207"/>
<path d="M458.959 322.413L433.297 337.206V328.938L458.959 314.145V322.413Z" fill="#FD7207"/>
<path d="M447.69 344.382L433.297 352.702V344.408L447.69 336.115V344.382Z" fill="#FD7207"/>
<path d="M447.69 359.878L433.297 368.172V359.904L447.69 351.61V359.878Z" fill="#FD7207"/>
<path d="M444.306 377.297L433.297 383.667V375.4L444.306 369.03V377.297Z" fill="#FD7207"/>
<path opacity="0.3" d="M654.045 686.816L573.523 638.795C568.318 635.675 569.046 630.398 575.162 626.992L654.098 583.001C660.214 579.596 669.4 579.362 674.606 582.455L755.128 630.502C760.333 633.595 759.605 638.899 753.489 642.305L674.554 686.374C668.438 689.701 659.251 689.935 654.045 686.816Z" fill="url(#paint21_linear_12_210)"/>
<path d="M801.584 520.942L614.435 452.227L572.221 566.778C571.8 567.917 571.716 569.152 571.979 570.337C572.242 571.522 572.841 572.606 573.705 573.46L637.207 649.559C641.319 654.499 650.584 657.359 657.871 656.189L752.135 639.965C753.608 639.864 755.035 639.409 756.294 638.639C757.553 637.87 758.609 636.809 759.37 635.546L801.584 520.942Z" fill="url(#paint22_linear_12_210)"/>
<path d="M679.42 535.059L615.918 458.96C611.806 454.02 614.409 449.002 621.696 447.754L715.882 431.583C723.195 430.309 732.434 433.299 736.546 438.213L800.048 514.312C804.16 519.252 801.584 524.269 794.271 525.517L700.084 541.689C692.797 542.963 683.532 539.999 679.42 535.059Z" fill="url(#paint23_linear_12_210)"/>
<path d="M795.546 521.956L701.36 538.179C694.072 539.453 684.807 536.463 680.695 531.549L617.193 455.45C616.055 454.189 615.393 452.571 615.32 450.875C614.37 452.035 613.903 453.516 614.014 455.011C614.125 456.506 614.807 457.901 615.918 458.908L679.42 535.007C683.532 539.947 692.797 542.807 700.084 541.637L794.27 525.362C799.267 524.504 802.078 521.878 801.948 518.732C800.255 520.519 797.991 521.659 795.546 521.956Z" fill="white"/>
<path opacity="0.3" d="M114.512 593.947L49.136 580.011C44.8939 579.128 44.1912 575.384 47.5225 571.692L90.5946 523.88C92.312 521.999 94.4484 520.548 96.831 519.644C99.2137 518.741 101.776 518.411 104.31 518.68L169.686 532.719C173.928 533.629 174.631 537.347 171.299 541.065L128.149 588.877C126.429 590.725 124.3 592.146 121.932 593.026C119.564 593.906 117.023 594.222 114.512 593.947Z" fill="url(#paint24_linear_12_210)"/>
<path d="M113.419 435.379L0.468506 508.177L45.1282 577.334C45.5617 578.029 46.1897 578.582 46.9344 578.924C47.6792 579.266 48.508 579.382 49.3183 579.258L116.1 575.956C118.613 575.589 121.005 574.635 123.081 573.171C125.156 571.707 126.857 569.776 128.045 567.532L157.48 510.335C158.023 509.499 158.356 508.546 158.451 507.555C158.546 506.563 158.401 505.564 158.027 504.641L113.419 435.379Z" fill="url(#paint25_linear_12_210)"/>
<path d="M71.4919 506.772L4.7106 510.074C0.390381 510.282 -1.24922 506.85 1.01499 502.404L30.4498 445.206C31.6414 442.966 33.3432 441.036 35.4181 439.573C37.493 438.11 39.883 437.154 42.3955 436.783L109.307 433.455C113.627 433.221 115.293 436.653 113.002 441.098L83.5677 498.296C82.3731 500.565 80.6547 502.518 78.5548 503.991C76.4549 505.465 74.0338 506.418 71.4919 506.772Z" fill="url(#paint26_linear_12_210)"/>
<path d="M111.519 439.019L82.0842 496.217C80.9149 498.453 79.2369 500.385 77.1849 501.857C75.133 503.329 72.7642 504.3 70.2687 504.692L3.35728 507.968C2.2176 508.072 1.07706 507.778 0.130127 507.136C0.383226 508.112 0.995446 508.956 1.84454 509.501C2.69363 510.046 3.71711 510.25 4.7106 510.074L71.4919 506.772C74.0057 506.405 76.3973 505.451 78.4729 503.987C80.5484 502.523 82.2493 500.592 83.4376 498.348L112.872 441.151C114.434 438.109 114.122 435.587 112.404 434.339C112.657 435.954 112.345 437.607 111.519 439.019Z" fill="white"/>
<defs>
<linearGradient id="paint0_linear_12_210" x1="209.285" y1="164.344" x2="278.441" y2="219.114" gradientUnits="userSpaceOnUse">
<stop stop-color="#2D9CDB"/>
<stop offset="0.13" stop-color="#2B90D2"/>
<stop offset="0.37" stop-color="#2880C4"/>
<stop offset="0.65" stop-color="#2676BC"/>
<stop offset="1" stop-color="#2573BA"/>
</linearGradient>
<linearGradient id="paint1_linear_12_210" x1="274.486" y1="90.3969" x2="260.252" y2="260.137" gradientUnits="userSpaceOnUse">
<stop stop-color="#59BDEF"/>
<stop offset="1" stop-color="#7BDAFF"/>
</linearGradient>
<linearGradient id="paint2_linear_12_210" x1="22194.6" y1="68680.2" x2="191465" y2="68680.2" gradientUnits="userSpaceOnUse">
<stop stop-color="#59BDEF"/>
<stop offset="1" stop-color="#7BDAFF"/>
</linearGradient>
<linearGradient id="paint3_linear_12_210" x1="315.697" y1="304.348" x2="793.314" y2="305.85" gradientUnits="userSpaceOnUse">
<stop offset="0.4" stop-color="#F39C12"/>
<stop offset="0.54" stop-color="#F39012"/>
<stop offset="0.76" stop-color="#F38512"/>
<stop offset="1" stop-color="#F38212"/>
</linearGradient>
<linearGradient id="paint4_linear_12_210" x1="43.8652" y1="393.712" x2="751.806" y2="395.938" gradientUnits="userSpaceOnUse">
<stop stop-color="#3A9BD5"/>
<stop offset="0.31" stop-color="#3A9BD5"/>
<stop offset="0.36" stop-color="#3A9BD5"/>
<stop offset="0.6" stop-color="#3999D4"/>
<stop offset="0.69" stop-color="#3592CF"/>
<stop offset="0.75" stop-color="#2F86C7"/>
<stop offset="0.8" stop-color="#2676BC"/>
<stop offset="0.81" stop-color="#2573BA"/>
</linearGradient>
<radialGradient id="paint5_radial_12_210" cx="0" cy="0" r="1" gradientUnits="userSpaceOnUse" gradientTransform="translate(106.558 235.884) rotate(30.1482) scale(654.791 642.558)">
<stop stop-color="#7BDAFF"/>
<stop offset="1" stop-color="#59BDEF"/>
</radialGradient>
<linearGradient id="paint6_linear_12_210" x1="1181.06" y1="410.289" x2="368.224" y2="-247.421" gradientUnits="userSpaceOnUse">
<stop stop-color="#DA1E00"/>
<stop offset="0.44" stop-color="#EA3A02"/>
<stop offset="1" stop-color="#FD5A05"/>
</linearGradient>
<linearGradient id="paint7_linear_12_210" x1="23535.3" y1="15750.7" x2="30930.2" y2="15750.7" gradientUnits="userSpaceOnUse">
<stop offset="0.4" stop-color="#F39C12"/>
<stop offset="0.54" stop-color="#F39012"/>
<stop offset="0.76" stop-color="#F38512"/>
<stop offset="1" stop-color="#F38212"/>
</linearGradient>
<linearGradient id="paint8_linear_12_210" x1="441.443" y1="282.114" x2="589.293" y2="505.324" gradientUnits="userSpaceOnUse">
<stop offset="0.4" stop-color="#FC8B04"/>
<stop offset="0.51" stop-color="#FC7904"/>
<stop offset="0.66" stop-color="#FD6805"/>
<stop offset="0.81" stop-color="#FD5D05"/>
<stop offset="1" stop-color="#FD5A05"/>
</linearGradient>
<linearGradient id="paint9_linear_12_210" x1="13226.2" y1="15684.5" x2="20622.5" y2="15684.5" gradientUnits="userSpaceOnUse">
<stop offset="0.4" stop-color="#F39C12"/>
<stop offset="0.54" stop-color="#F39012"/>
<stop offset="0.76" stop-color="#F38512"/>
<stop offset="1" stop-color="#F38212"/>
</linearGradient>
<linearGradient id="paint10_linear_12_210" x1="13663.8" y1="8956.66" x2="16957.9" y2="17577.6" gradientUnits="userSpaceOnUse">
<stop offset="0.4" stop-color="#FC8B04"/>
<stop offset="0.51" stop-color="#FC7904"/>
<stop offset="0.66" stop-color="#FD6805"/>
<stop offset="0.81" stop-color="#FD5D05"/>
<stop offset="1" stop-color="#FD5A05"/>
</linearGradient>
<linearGradient id="paint11_linear_12_210" x1="18382.9" y1="17745.2" x2="25779.2" y2="17745.2" gradientUnits="userSpaceOnUse">
<stop offset="0.4" stop-color="#F39C12"/>
<stop offset="0.54" stop-color="#F39012"/>
<stop offset="0.76" stop-color="#F38512"/>
<stop offset="1" stop-color="#F38212"/>
</linearGradient>
<linearGradient id="paint12_linear_12_210" x1="18822.5" y1="10695.8" x2="22111.8" y2="19311.5" gradientUnits="userSpaceOnUse">
<stop offset="0.4" stop-color="#FC8B04"/>
<stop offset="0.51" stop-color="#FC7904"/>
<stop offset="0.66" stop-color="#FD6805"/>
<stop offset="0.81" stop-color="#FD5D05"/>
<stop offset="1" stop-color="#FD5A05"/>
</linearGradient>
<linearGradient id="paint13_linear_12_210" x1="18372.8" y1="19846.4" x2="25764.9" y2="19846.4" gradientUnits="userSpaceOnUse">
<stop offset="0.4" stop-color="#F39C12"/>
<stop offset="0.54" stop-color="#F39012"/>
<stop offset="0.76" stop-color="#F38512"/>
<stop offset="1" stop-color="#F38212"/>
</linearGradient>
<linearGradient id="paint14_linear_12_210" x1="18824.9" y1="-1605.89" x2="22120.4" y2="7018.34" gradientUnits="userSpaceOnUse">
<stop offset="0.4" stop-color="#FC8B04"/>
<stop offset="0.51" stop-color="#FC7904"/>
<stop offset="0.66" stop-color="#FD6805"/>
<stop offset="0.81" stop-color="#FD5D05"/>
<stop offset="1" stop-color="#FD5A05"/>
</linearGradient>
<linearGradient id="paint15_linear_12_210" x1="23535.3" y1="23478.2" x2="30930.3" y2="23478.2" gradientUnits="userSpaceOnUse">
<stop offset="0.4" stop-color="#F39C12"/>
<stop offset="0.54" stop-color="#F39012"/>
<stop offset="0.76" stop-color="#F38512"/>
<stop offset="1" stop-color="#F38212"/>
</linearGradient>
<linearGradient id="paint16_linear_12_210" x1="23993.1" y1="1847.21" x2="27287.1" y2="10471" gradientUnits="userSpaceOnUse">
<stop offset="0.4" stop-color="#FC8B04"/>
<stop offset="0.51" stop-color="#FC7904"/>
<stop offset="0.66" stop-color="#FD6805"/>
<stop offset="0.81" stop-color="#FD5D05"/>
<stop offset="1" stop-color="#FD5A05"/>
</linearGradient>
<linearGradient id="paint17_linear_12_210" x1="13226.2" y1="11019.5" x2="20622.5" y2="11019.5" gradientUnits="userSpaceOnUse">
<stop offset="0.4" stop-color="#F39C12"/>
<stop offset="0.54" stop-color="#F39012"/>
<stop offset="0.76" stop-color="#F38512"/>
<stop offset="1" stop-color="#F38212"/>
</linearGradient>
<linearGradient id="paint18_linear_12_210" x1="13664.7" y1="6442.94" x2="16957.9" y2="15064" gradientUnits="userSpaceOnUse">
<stop offset="0.4" stop-color="#FC8B04"/>
<stop offset="0.51" stop-color="#FC7904"/>
<stop offset="0.66" stop-color="#FD6805"/>
<stop offset="0.81" stop-color="#FD5D05"/>
<stop offset="1" stop-color="#FD5A05"/>
</linearGradient>
<linearGradient id="paint19_linear_12_210" x1="18381.5" y1="22542.2" x2="25779.2" y2="22542.2" gradientUnits="userSpaceOnUse">
<stop offset="0.4" stop-color="#F39C12"/>
<stop offset="0.54" stop-color="#F39012"/>
<stop offset="0.76" stop-color="#F38512"/>
<stop offset="1" stop-color="#F38212"/>
</linearGradient>
<linearGradient id="paint20_linear_12_210" x1="18820.8" y1="5569.63" x2="22114.4" y2="14190.6" gradientUnits="userSpaceOnUse">
<stop offset="0.4" stop-color="#FC8B04"/>
<stop offset="0.51" stop-color="#FC7904"/>
<stop offset="0.66" stop-color="#FD6805"/>
<stop offset="0.81" stop-color="#FD5D05"/>
<stop offset="1" stop-color="#FD5A05"/>
</linearGradient>
<linearGradient id="paint21_linear_12_210" x1="69795.6" y1="10772.9" x2="75650.6" y2="26789.5" gradientUnits="userSpaceOnUse">
<stop stop-color="#59BDEF"/>
<stop offset="1" stop-color="#7BDAFF"/>
</linearGradient>
<linearGradient id="paint22_linear_12_210" x1="75643.1" y1="-67272.3" x2="92184.4" y2="-61107.1" gradientUnits="userSpaceOnUse">
<stop stop-color="#2D9CDB"/>
<stop offset="0.13" stop-color="#2B90D2"/>
<stop offset="0.37" stop-color="#2880C4"/>
<stop offset="0.65" stop-color="#2676BC"/>
<stop offset="1" stop-color="#2573BA"/>
</linearGradient>
<linearGradient id="paint23_linear_12_210" x1="57263.9" y1="-39631.2" x2="57559" y2="-21269.1" gradientUnits="userSpaceOnUse">
<stop stop-color="#59BDEF"/>
<stop offset="1" stop-color="#7BDAFF"/>
</linearGradient>
<linearGradient id="paint24_linear_12_210" x1="44705.3" y1="-46131.6" x2="50036.2" y2="-39622" gradientUnits="userSpaceOnUse">
<stop stop-color="#59BDEF"/>
<stop offset="1" stop-color="#7BDAFF"/>
</linearGradient>
<linearGradient id="paint25_linear_12_210" x1="53767.2" y1="-93565" x2="60618.6" y2="-97973.9" gradientUnits="userSpaceOnUse">
<stop offset="0.4" stop-color="#F39C12"/>
<stop offset="0.54" stop-color="#F39012"/>
<stop offset="0.76" stop-color="#F38512"/>
<stop offset="1" stop-color="#F38212"/>
</linearGradient>
<linearGradient id="paint26_linear_12_210" x1="41820.1" y1="-62506" x2="48821.7" y2="-57915.2" gradientUnits="userSpaceOnUse">
<stop offset="0.4" stop-color="#FC8B04"/>
<stop offset="0.51" stop-color="#FC7904"/>
<stop offset="0.66" stop-color="#FD6805"/>
<stop offset="0.81" stop-color="#FD5D05"/>
<stop offset="1" stop-color="#FD5A05"/>
</linearGradient>
</defs>
</svg>
