<svg width="100" height="100" viewBox="0 0 100 100" fill="none" xmlns="http://www.w3.org/2000/svg">
<g clip-path="url(#clip0_12_163)">
<path d="M62.765 12.4603C51.7654 6.90207 38.5152 9.02727 29.7942 17.7484C19.6585 27.8839 18.644 44.0453 27.4347 55.341C27.7454 55.7402 28.2099 55.9492 28.6794 55.9492C29.0177 55.9492 29.3585 55.8408 29.6462 55.6168C30.3331 55.0822 30.4566 54.0922 29.9222 53.4053C22.1059 43.3619 23.0093 28.9908 32.0232 19.9769C39.779 12.2206 51.5619 10.3304 61.3439 15.2732C62.1205 15.6661 63.0685 15.354 63.4611 14.5773C63.8535 13.8005 63.5422 12.8527 62.765 12.4603Z" fill="#2D9CDB"/>
<path d="M75.3492 25.0468C74.9566 24.27 74.0091 23.9583 73.2318 24.3505C72.455 24.7429 72.1431 25.6905 72.5355 26.4677C77.4748 36.2482 75.5836 48.0294 67.8294 55.7834C58.8154 64.7971 44.4444 65.7002 34.401 57.8843C33.7139 57.35 32.7241 57.4734 32.1895 58.1601C31.6549 58.847 31.7786 59.8371 32.4655 60.3717C37.6108 64.376 43.7653 66.3455 49.9003 66.3455C57.2337 66.3455 64.5394 63.5308 70.0583 58.0119C78.7773 49.2931 80.9035 36.0454 75.3492 25.0468Z" fill="#2D9CDB"/>
<path d="M71.2775 19.0446C70.887 18.6028 70.4769 18.1664 70.0583 17.7481C69.6398 17.3295 69.2036 16.9194 68.7618 16.5289C68.1097 15.9524 67.1136 16.0141 66.5376 16.6662C65.9609 17.3182 66.0222 18.3141 66.6743 18.8905C67.0679 19.2381 67.4566 19.6037 67.8296 19.9766C68.2023 20.3496 68.5679 20.7381 68.9158 21.1317C69.2271 21.484 69.6611 21.6639 70.0972 21.6639C70.4681 21.6639 70.8404 21.5336 71.1402 21.2688C71.7925 20.6926 71.8538 19.6967 71.2775 19.0446Z" fill="#2D9CDB"/>
<path d="M87.1225 40.7053C88.1733 38.9813 88.1733 36.8399 87.1221 35.1162L85.0488 31.7164C84.7758 31.2684 84.6701 30.7363 84.7518 30.2184L85.3697 26.292C85.6848 24.291 84.8627 22.308 83.2248 21.1164L80.0117 18.7793C79.5869 18.4701 79.285 18.0191 79.1613 17.5086L78.2256 13.6416C77.7506 11.6773 76.2351 10.1621 74.2711 9.68669L70.4039 8.75075C69.8933 8.62712 69.442 8.32516 69.1332 7.90036L66.7957 4.68648C65.6043 3.04859 63.6211 2.22613 61.6207 2.54136L57.6929 3.15933C57.175 3.24078 56.6427 3.13531 56.1951 2.86226L52.7947 0.788429C51.0708 -0.262745 48.9294 -0.262549 47.2056 0.788429L43.8056 2.86168C43.3579 3.13492 42.8261 3.24 42.3075 3.15875L38.381 2.54078C36.3806 2.22593 34.3972 3.048 33.2058 4.6859L30.8687 7.89899C30.5595 8.3238 30.1083 8.62575 29.5976 8.74938L25.7306 9.68513C23.7667 10.1601 22.2511 11.6756 21.7757 13.6396L20.8397 17.5068C20.7161 18.0174 20.4143 18.4687 19.9893 18.7775L16.7755 21.115C15.1376 22.3062 14.3157 24.2891 14.6303 26.29L15.2483 30.218C15.3298 30.7361 15.2243 31.2682 14.9512 31.7158L12.8776 35.1164C11.8268 36.8403 11.8268 38.9817 12.8778 40.7053L14.951 44.1053C15.2241 44.5534 15.3298 45.0854 15.2481 45.6034L14.6301 49.5299C14.3151 51.5307 15.1372 53.5139 16.7751 54.7053L19.9882 57.0424C20.413 57.3512 20.7149 57.8026 20.8386 58.3132L21.7743 62.1802C22.2493 64.1444 23.7647 65.6597 25.7288 66.135L27.3436 66.5259L16.4151 90.9036C16.1829 91.4218 16.2471 92.0246 16.5837 92.482C16.92 92.9394 17.476 93.1806 18.0401 93.113L26.8335 92.0617L31.8991 99.3255C32.1956 99.7504 32.6794 100 33.1913 100C33.2403 100 33.2899 99.9976 33.3392 99.9931C33.9044 99.94 34.3976 99.5867 34.6298 99.0689L45.791 74.1706L47.2052 75.0329C48.0671 75.5585 49.0333 75.8212 49.9997 75.8212C50.9662 75.8212 51.9324 75.5583 52.7943 75.0329L54.2595 74.1396L65.4347 99.0689C65.667 99.5871 66.1599 99.94 66.7254 99.9931C66.7748 99.9978 66.8242 100 66.8732 100C67.3851 100 67.8691 99.7505 68.1654 99.3257L73.231 92.0619L82.0244 93.1132C82.5881 93.1802 83.1445 92.9396 83.4809 92.4822C83.8172 92.0247 83.8818 91.422 83.6494 90.9038L72.7152 66.5126L74.2693 66.1366C76.2332 65.6616 77.7488 64.1462 78.2242 62.1821L79.1602 58.3149C79.2838 57.8044 79.5857 57.353 80.0106 57.0442L83.2244 54.7067C84.8623 53.5155 85.6842 51.5327 85.3695 49.5317L84.7516 45.6038C84.6701 45.0856 84.7756 44.5536 85.0486 44.1059L87.1225 40.7053ZM32.8923 95.24L28.8778 89.4833C28.545 89.006 27.9759 88.7505 27.3981 88.8201L20.4296 89.6533L30.3864 67.4417C30.5685 67.5755 30.7317 67.7358 30.8663 67.9212L33.2038 71.1351C33.4259 71.4403 33.6755 71.7171 33.9476 71.9636L28.7067 83.6544C28.3509 84.4488 28.706 85.381 29.5001 85.737C29.7095 85.831 29.9284 85.8753 30.1437 85.8753C30.7456 85.8753 31.3206 85.5285 31.5825 84.9437L36.8048 73.2944C37.3187 73.3649 37.8478 73.3638 38.3788 73.2802L42.3066 72.6622C42.5417 72.6253 42.7794 72.6286 43.0109 72.6669L32.8923 95.24ZM79.6353 89.6529L72.6666 88.8201C72.0883 88.7507 71.5197 89.006 71.1869 89.4833L67.1724 95.24L57.0496 72.6581C57.2619 72.6292 57.4785 72.6292 57.6927 72.6628L61.6191 73.2808C62.1716 73.3677 62.7222 73.3649 63.2556 73.2855L68.4818 84.9441C68.7441 85.529 69.3187 85.8757 69.9207 85.8757C70.1361 85.8757 70.3551 85.8314 70.5642 85.7374C71.3584 85.3816 71.7137 84.449 71.3576 83.6548L66.0968 71.9194C66.3506 71.6839 66.5851 71.4231 66.7943 71.1356L69.1314 67.9225C69.2787 67.72 69.4592 67.5464 69.6619 67.406L79.6353 89.6529ZM84.4313 39.0643L82.3576 42.4649C81.6965 43.5497 81.4406 44.8383 81.6381 46.0934L82.2561 50.0211C82.3859 50.8471 82.0465 51.6657 81.3705 52.1575L78.1564 54.4952C77.1277 55.2436 76.3961 56.3368 76.0969 57.5733L75.1609 61.4405C74.9646 62.2513 74.3392 62.8768 73.5283 63.0731L69.6611 64.0089C68.4244 64.3081 67.331 65.0397 66.5826 66.0686L64.2455 69.2817C63.7537 69.9581 62.9353 70.2972 62.109 70.1671L58.1824 69.5491C56.9271 69.3517 55.6382 69.6071 54.5533 70.2686L51.1535 72.3419C50.4419 72.7755 49.5576 72.7755 48.8464 72.3419L45.4458 70.2685C44.6001 69.7526 43.6306 69.4839 42.6495 69.4839C42.3722 69.4839 42.0935 69.5054 41.8171 69.5489L37.8892 70.1669C37.063 70.297 36.2446 69.9573 35.7528 69.2813L33.4151 66.0675C32.6667 65.0388 31.5735 64.3071 30.337 64.0079L26.4698 63.072C25.6591 62.8757 25.0335 62.2503 24.8372 61.4393L23.9015 57.5723C23.6022 56.3356 22.8708 55.2421 21.8417 54.4936L18.6288 52.1563C17.9526 51.6645 17.6134 50.8458 17.7434 50.0198L18.3614 46.0932C18.5589 44.8379 18.3034 43.5493 17.6419 42.4643L15.5686 39.0641C15.1348 38.3526 15.1348 37.4684 15.5686 36.7571L17.6423 33.3565C18.3036 32.2717 18.5593 30.983 18.3618 29.7279L17.7438 25.8002C17.6139 24.9742 17.9534 24.1557 18.6294 23.6639L21.8434 21.3262C22.8722 20.5777 23.6038 19.4846 23.903 18.248L24.839 14.3808C25.0352 13.5701 25.6606 12.9445 26.4716 12.7482L30.3388 11.8125C31.5755 11.5133 32.6689 10.7816 33.4171 9.75271L35.7542 6.53961C36.246 5.86344 37.0644 5.52379 37.8907 5.65406L41.8173 6.27203C43.0728 6.46989 44.3616 6.21403 45.4464 5.5525L48.8462 3.47926C49.5578 3.04566 50.4421 3.04566 51.1533 3.47926L54.5539 5.5527C55.6386 6.21442 56.9277 6.47008 58.1826 6.27242L62.1105 5.65446C62.9363 5.52496 63.755 5.86403 64.2468 6.54L66.5845 9.75388C67.333 10.7826 68.4261 11.5142 69.6627 11.8135L73.5299 12.7494C74.3406 12.9457 74.9662 13.5711 75.1625 14.382L76.0982 18.249C76.3975 19.4857 77.1289 20.5793 78.158 21.3277L81.3711 23.6648C82.0473 24.1566 82.3865 24.9754 82.2564 25.8014L81.6385 29.7279C81.441 30.9832 81.6965 32.2719 82.358 33.3569L84.4313 36.7571C84.8652 37.4686 84.8652 38.3528 84.4313 39.0643Z" fill="#2D9CDB"/>
<path d="M68.4408 33.0073C68.0935 31.9381 67.1843 31.1916 66.0679 31.0592L56.5853 29.9348L52.5857 21.2639C52.1148 20.2432 51.1239 19.609 49.9997 19.609C48.8757 19.609 47.8847 20.2432 47.4138 21.2639L43.4142 29.935L33.9315 31.0594C32.8151 31.1918 31.9057 31.9383 31.5587 33.0075C31.2114 34.076 31.5083 35.2145 32.3333 35.9776L39.344 42.461L37.4831 51.827C37.2641 52.9298 37.6931 54.0251 38.6026 54.6856C39.1044 55.0501 39.6866 55.2347 40.2726 55.2347C40.7489 55.2347 41.2274 55.1128 41.6671 54.8667L49.9995 50.2028L58.332 54.8667C59.313 55.4159 60.4871 55.3466 61.3966 54.6858C62.3062 54.0251 62.7351 52.9296 62.516 51.827L60.655 42.4612L67.6658 35.9778C68.4912 35.2147 68.788 34.0764 68.4408 33.0073ZM57.8677 40.7462C57.4654 41.1182 57.2853 41.6727 57.3919 42.2102L59.2962 51.7944L50.7693 47.0216C50.5302 46.8878 50.265 46.8208 49.9995 46.8208C49.7341 46.8208 49.4691 46.8876 49.2298 47.0216L40.7028 51.7944L42.6071 42.2102C42.7142 41.6725 42.5339 41.1182 42.1313 40.7462L34.9571 34.1114L44.6614 32.9608C45.2056 32.8963 45.6773 32.5536 45.9069 32.0561L49.9997 23.1828L54.0925 32.0561C54.3222 32.5536 54.7937 32.8963 55.338 32.9608L65.042 34.1114L57.8677 40.7462Z" fill="#2D9CDB"/>
</g>
<defs>
<clipPath id="clip0_12_163">
<rect width="100" height="100" fill="white"/>
</clipPath>
</defs>
</svg>
