<svg width="100" height="100" viewBox="0 0 100 100" fill="none" xmlns="http://www.w3.org/2000/svg">
<g clip-path="url(#clip0_12_133)">
<path d="M94.8578 0.195312H25.1939C24.385 0.195312 23.7291 0.851172 23.7291 1.66016C23.7291 2.46914 24.385 3.125 25.1939 3.125H94.8578C96.0777 3.125 97.0703 4.11758 97.0703 5.3375V73.2773C97.0703 74.4973 96.0777 75.4896 94.8578 75.4896H5.14219C3.92227 75.4896 2.92969 74.4973 2.92969 73.2773V5.3375C2.92969 4.11758 3.92227 3.125 5.14219 3.125H18.9453C19.7543 3.125 20.4102 2.46914 20.4102 1.66016C20.4102 0.851172 19.7543 0.195312 18.9453 0.195312H5.14219C2.30684 0.195312 0 2.50215 0 5.3375V73.2773C0 76.1127 2.30684 78.4193 5.14219 78.4193H34.2045L30.5127 89.3012H15.1455C13.3119 89.3012 11.6242 90.2203 10.6311 91.7598L6.89785 97.5457C6.60723 97.9965 6.58594 98.5699 6.84238 99.0408C7.09902 99.5117 7.59238 99.8047 8.12871 99.8047H91.8713C92.4076 99.8047 92.901 99.5117 93.1576 99.0408C93.4141 98.5699 93.393 97.9963 93.1021 97.5457L89.3689 91.76C88.3758 90.2203 86.6881 89.3012 84.8545 89.3012H69.4875L65.7957 78.4193H94.858C97.6934 78.4193 100 76.1125 100 73.2773V5.3375C100 2.50215 97.6932 0.195312 94.8578 0.195312ZM86.9072 93.348L89.1828 96.875H10.8172L13.0928 93.3479C13.5441 92.6484 14.3115 92.2307 15.1455 92.2307H84.8545C85.6885 92.2309 86.4559 92.6484 86.9072 93.348ZM66.3938 89.3008H33.6063L37.298 78.4193H62.702L66.3938 89.3008Z" fill="#2D9CDB"/>
<path d="M78.6496 65.2761H91.8712C92.6802 65.2761 93.3361 64.6205 93.3361 63.8113V8.34314C93.3361 7.53416 92.6802 6.8783 91.8712 6.8783H8.12866C7.31968 6.8783 6.66382 7.53416 6.66382 8.34314V63.8113C6.66382 64.6205 7.31968 65.2761 8.12866 65.2761H72.5351C73.3441 65.2761 74 64.6205 74 63.8113C74 63.0021 73.3441 62.3465 72.5351 62.3465H9.59351V9.80798H90.4064V62.3465H78.6496C77.8406 62.3465 77.1847 63.0021 77.1847 63.8113C77.1847 64.6205 77.8406 65.2761 78.6496 65.2761Z" fill="#2D9CDB"/>
<path d="M48.334 70.0489C48.334 70.9715 49.0799 71.7196 50 71.7196C50.9201 71.7196 51.666 70.9715 51.666 70.0489C51.666 69.1262 50.9201 68.3782 50 68.3782C49.0799 68.3782 48.334 69.126 48.334 70.0489Z" fill="#2D9CDB"/>
<path d="M73.7305 41.2242H80.1758C81.1988 41.2242 82.0312 40.3918 82.0312 39.3687V32.9328C82.0312 31.9098 81.1988 31.0773 80.1758 31.0773H73.7305C72.7074 31.0773 71.875 31.9098 71.875 32.9328V34.7836H64.7775L61.9391 30.2348L66.0977 24.2543H71.875V26.1049C71.875 27.1279 72.7074 27.9603 73.7305 27.9603H80.1758C81.1988 27.9603 82.0312 27.1279 82.0312 26.1049V19.6689C82.0312 18.6459 81.1988 17.8135 80.1758 17.8135H73.7305C72.7074 17.8135 71.875 18.6459 71.875 19.6689V21.3246H65.8424C65.0436 21.3246 64.2941 21.7162 63.8379 22.3723L60.2512 27.5303L57.0988 22.4785C56.6557 21.7684 55.8635 21.3295 55.0272 21.3295C55.0199 21.3295 55.0127 21.3295 55.0057 21.3295L46.1912 21.4088V19.6689C46.1912 18.6459 45.3588 17.8135 44.3357 17.8135H19.3359C18.3129 17.8135 17.4805 18.6459 17.4805 19.6689V26.1049C17.4805 27.1279 18.3129 27.9603 19.3359 27.9603H44.3359C45.359 27.9603 46.1914 27.1279 46.1914 26.1049V24.3387L54.7584 24.2615L58.4313 30.1475L54.8041 35.3637L46.1912 35.3082V33.1279C46.1912 32.1049 45.3588 31.2725 44.3357 31.2725H19.3359C18.3129 31.2725 17.4805 32.1049 17.4805 33.1279V39.5639C17.4805 40.5869 18.3129 41.4193 19.3359 41.4193H44.3359C45.359 41.4193 46.1914 40.5869 46.1914 39.5639V38.2381L55.0424 38.2951H55.0584C55.8578 38.2951 56.6063 37.9043 57.0627 37.2475L60.1189 32.8521L62.2311 36.2367L54.7621 47.8594L46.1916 47.9365V46.1967C46.1916 45.1736 45.3592 44.3412 44.3361 44.3412H19.3359C18.3129 44.3412 17.4805 45.1736 17.4805 46.1967V52.6324C17.4805 53.6555 18.3129 54.4879 19.3359 54.4879H44.3359C45.359 54.4879 46.1914 53.6555 46.1914 52.6324V50.8664L55.052 50.7865C55.8777 50.7791 56.6373 50.3599 57.084 49.6652L64.7646 37.7131H71.875V39.3685C71.875 40.392 72.7074 41.2242 73.7305 41.2242ZM74.8047 20.7434H79.1016V25.0309H74.8047V20.7434ZM43.2617 25.0307H20.4102V20.7432H43.2617V25.0307ZM43.2617 38.4896H20.4102V34.2021H43.2617V38.4896ZM43.2617 51.5584H20.4102V47.2711H43.2617V51.5584ZM74.8047 34.0072H79.1016V38.2947H74.8047V34.0072Z" fill="#2D9CDB"/>
</g>
<defs>
<clipPath id="clip0_12_133">
<rect width="100" height="100" fill="white"/>
</clipPath>
</defs>
</svg>
